{
.appVersion = "1141";
customParameters = (
{
name = glyphOrder;
value = (
space,
exclam,
quotedbl,
numbersign,
dollar,
percent,
ampersand,
quotesingle,
parenleft,
parenright,
asterisk,
plus,
comma,
hyphen,
period,
slash,
zero,
one,
two,
three,
four,
five,
six,
seven,
eight,
nine,
colon,
semicolon,
less,
equal,
greater,
question,
at,
A,
B,
C,
D,
E,
F,
G,
H,
I,
J,
K,
L,
M,
N,
O,
P,
Q,
R,
S,
T,
U,
V,
W,
X,
Y,
Z,
bracketleft,
backslash,
bracketright,
asciicircum,
underscore,
grave,
a,
b,
c,
d,
e,
f,
g,
h,
i,
j,
k,
l,
m,
n,
o,
p,
q,
r,
s,
t,
u,
v,
w,
x,
y,
z,
braceleft,
bar,
braceright,
asciitilde,
exclamdown,
cent,
sterling,
currency,
yen,
brokenbar,
section,
dieresis,
copyright,
ordfeminine,
logicalnot,
registered,
macron,
degree,
plusminus,
twosuperior,
threesuperior,
acute,
paragraph,
periodcentered,
cedilla,
onesuperior,
ordmasculine,
onequarter,
onehalf,
threequarters,
questiondown,
Agrave,
Aacute,
Acircumflex,
Atilde,
Adieresis,
Aring,
AE,
Ccedilla,
Egrave,
Eacute,
Ecircumflex,
Edieresis,
Igrave,
Iacute,
Icircumflex,
Idieresis,
Eth,
Ntilde,
Ograve,
Oacute,
Ocircumflex,
Otilde,
Odieresis,
multiply,
Oslash,
OE,
Ugrave,
Uacute,
Ucircumflex,
Udieresis,
Yacute,
Thorn,
germandbls,
agrave,
aacute,
acircumflex,
atilde,
adieresis,
aring,
ae,
ccedilla,
egrave,
eacute,
ecircumflex,
edieresis,
igrave,
iacute,
icircumflex,
idieresis,
eth,
ntilde,
ograve,
oacute,
ocircumflex,
otilde,
odieresis,
divide,
oslash,
oe,
ugrave,
uacute,
ucircumflex,
udieresis,
yacute,
thorn,
ydieresis,
circumflex,
caron,
breve,
dotaccent,
ring,
ogonek,
tilde,
hungarumlaut,
quoteleft,
quoteright,
minus,
nbspace,
Amacron,
Abreve,
Aogonek,
Aringacute,
Adblgrave,
Ainvertedbreve,
Adotbelow,
Ahookabove,
Acircumflexacute,
Acircumflexgrave,
Acircumflexhookabove,
Acircumflextilde,
Acircumflexdotbelow,
Abreveacute,
Abrevegrave,
Abrevehookabove,
Abrevetilde,
Abrevedotbelow,
Cacute,
Ccircumflex,
Cdotaccent,
Ccaron,
Dcaron,
Emacron,
Ebreve,
Edotaccent,
Eogonek,
Ecaron,
Edblgrave,
Einvertedbreve,
Edotbelow,

glyphs = (
{
glyphname = exclam;
layers = (
{
layerId = "363404A5-CC2E-4291-9CCC-B4D2C06AB158";
paths = (
{
closed = 1;
nodes = (
"76 179 OFFCURVE",
"153 260 OFFCURVE",
"213 260 QCURVE SMOOTH",
"272 260 OFFCURVE",
"349 179 OFFCURVE",
"349 124 QCURVE SMOOTH",
"349 70 OFFCURVE",
"272 -12 OFFCURVE",
"213 -12 QCURVE SMOOTH",
"153 -12 OFFCURVE",
"76 70 OFFCURVE",
"76 124 QCURVE SMOOTH"
);
},
{
closed = 1;
nodes = (
"381 1489 OFFCURVE",
"437 1576 OFFCURVE",
"492 1577 QCURVE SMOOTH",
"547 1578 OFFCURVE",
"573 1491 OFFCURVE",
"558 1422 QCURVE SMOOTH",
"486 1108 LINE",
"402 800 LINE",
"318 435 LINE",
"226 450 LINE",
"282 800 LINE",
"320 1108 LINE",
"370 1421 LINE SMOOTH"
);
}
);
width = 604;
}
);
unicode = 0021;
},
{
glyphname = quotedbl;
layers = (
{
layerId = "363404A5-CC2E-4291-9CCC-B4D2C06AB158";
paths = (
{
closed = 1;
nodes = (
"365 1423 LINE SMOOTH",
"366 1472 OFFCURVE",
"432 1558 OFFCURVE",
"495 1558 QCURVE SMOOTH",
"554 1558 OFFCURVE",
"601 1469 OFFCURVE",
"583 1423 QCURVE SMOOTH",
"405 964 LINE",
"351 964 LINE"
);
},
{
closed = 1;
nodes = (
"735 1423 LINE SMOOTH",
"736 1472 OFFCURVE",
"802 1558 OFFCURVE",
"865 1558 QCURVE SMOOTH",
"925 1558 OFFCURVE",
"971 1469 OFFCURVE",
"953 1423 QCURVE SMOOTH",
"775 964 LINE",
"721 964 LINE"
);
}
);
width = 974;
}
);
unicode = 0022;
},
{
glyphname = numbersign;
layers = (
{
layerId = "363404A5-CC2E-4291-9CCC-B4D2C06AB158";
paths = (
{
closed = 1;
nodes = (
"70 628 LINE",
"1199 628 LINE",
"1149 456 LINE",
"20 456 LINE"
);
},
{
closed = 1;
nodes = (
"175 1028 LINE",
"1304 1028 LINE",
"1254 856 LINE",
"125 856 LINE"
);
},
{
closed = 1;
nodes = (
"677 1548 LINE",
"788 1518 LINE",
"197 -87 LINE",
"86 -57 LINE"
);
},
{
closed = 1;
nodes = (
"1136 1548 LINE",
"1246 1518 LINE",
"655 -87 LINE",
"545 -57 LINE"
);
}
);
width = 1324;
}
);
unicode = 0023;
},
{
glyphname = dollar;
layers = (
{
layerId = "363404A5-CC2E-4291-9CCC-B4D2C06AB158";
paths = (
{
closed = 1;
nodes = (
"85 330 LINE",
"138 258 OFFCURVE",
"391 116 OFFCURVE",
"510 116 QCURVE SMOOTH",
"641 116 OFFCURVE",
"792 260 OFFCURVE",
"792 384 QCURVE SMOOTH",
"792 476 OFFCURVE",
"676 650 OFFCURVE",
"533 746 QCURVE SMOOTH",
"411 828 OFFCURVE",
"240 1017 OFFCURVE",
"240 1161 QCURVE SMOOTH",
"240 1321 OFFCURVE",
"496 1520 OFFCURVE",
"657 1520 QCURVE SMOOTH",
"757 1520 OFFCURVE",
"994 1441 OFFCURVE",
"1079 1366 QCURVE",
"989 1237 LINE",
"936 1294 OFFCURVE",
"774 1399 OFFCURVE",
"673 1399 QCURVE SMOOTH",
"560 1399 OFFCURVE",
"410 1281 OFFCURVE",
"410 1190 QCURVE SMOOTH",
"410 1099 OFFCURVE",
"525 972 OFFCURVE",
"670 866 QCURVE SMOOTH",
"810 763 OFFCURVE",
"953 559 OFFCURVE",
"952 410 QCURVE SMOOTH",
"951 233 OFFCURVE",
"710 -13 OFFCURVE",
"508 -13 QCURVE SMOOTH",
"326 -13 OFFCURVE",
"55 117 OFFCURVE",
"-6 186 QCURVE"
);
},
{
closed = 1;
nodes = (
"348 52 LINE",
"368 52 LINE",
"517 820 LINE",
"633 778 LINE",
"492 52 LINE",
"514 52 LINE",
"477 -140 LINE",
"301 -190 LINE"
);
},
{
closed = 1;
nodes = (
"816 1609 LINE",
"779 1418 LINE",
"758 1418 LINE",
"633 778 LINE",
"517 820 LINE",
"634 1418 LINE",
"613 1418 LINE",
"642 1570 LINE"
);
}
);
width = 1107;
}
);
unicode = 0024;
},
{
glyphname = percent;
layers = (
{
layerId = "363404A5-CC2E-4291-9CCC-B4D2C06AB158";
paths = (
{
closed = 1;
nodes = (
"188 1263 OFFCURVE",
"449 1532 OFFCURVE",
"618 1532 QCURVE SMOOTH",
"788 1532 OFFCURVE",
"950 1281 OFFCURVE",
"910 1077 QCURVE SMOOTH",
"873 886 OFFCURVE",
"613 611 OFFCURVE",
"444 611 QCURVE SMOOTH",
"274 611 OFFCURVE",
"111 866 OFFCURVE",
"151 1071 QCURVE SMOOTH"
);
},
{
closed = 1;
nodes = (
"290 937 OFFCURVE",
"364 727 OFFCURVE",
"460 727 QCURVE SMOOTH",
"563 727 OFFCURVE",
"709 918 OFFCURVE",
"740 1077 QCURVE SMOOTH",
"768 1222 OFFCURVE",
"691 1412 OFFCURVE",
"594 1412 QCURVE SMOOTH",
"491 1412 OFFCURVE",
"348 1239 OFFCURVE",
"319 1088 QCURVE SMOOTH"
);
},
{
closed = 1;
nodes = (
"1475 1529 LINE",
"1577 1464 LINE",
"498 -40 LINE",
"396 25 LINE"
);
},
{
closed = 1;
nodes = (
"1102 632 OFFCURVE",
"1362 901 OFFCURVE",
"1531 901 QCURVE SMOOTH",
"1701 901 OFFCURVE",
"1863 650 OFFCURVE",
"1824 446 QCURVE SMOOTH",
"1786 255 OFFCURVE",
"1526 -20 OFFCURVE",
"1357 -20 QCURVE SMOOTH",
"1187 -20 OFFCURVE",
"1025 235 OFFCURVE",
"1064 440 QCURVE SMOOTH"
);
},
{
closed = 1;
nodes = (
"1203 306 OFFCURVE",
"1278 96 OFFCURVE",
"1374 96 QCURVE SMOOTH",
"1476 96 OFFCURVE",
"1623 287 OFFCURVE",
"1654 446 QCURVE SMOOTH",
"1682 591 OFFCURVE",
"1605 781 OFFCURVE",
"1508 781 QCURVE SMOOTH",
"1404 781 OFFCURVE",
"1261 608 OFFCURVE",
"1233 457 QCURVE SMOOTH"
);
}
);
width = 1943;
}
);
unicode = 0025;
},
{
glyphname = ampersand;
layers = (
{
layerId = "363404A5-CC2E-4291-9CCC-B4D2C06AB158";
paths = (
{
closed = 1;
nodes = (
"797 164 LINE",
"730 82 OFFCURVE",
"504 -23 OFFCURVE",
"333 -23 QCURVE SMOOTH",
"151 -23 OFFCURVE",
"-49 226 OFFCURVE",
"-19 400 QCURVE SMOOTH",
"10 571 OFFCURVE",
"313 783 OFFCURVE",
"480 807 QCURVE",
"363 837 OFFCURVE",
"249 1060 OFFCURVE",
"284 1211 QCURVE SMOOTH",
"321 1371 OFFCURVE",
"570 1520 OFFCURVE",
"730 1520 QCURVE SMOOTH",
"833 1520 OFFCURVE",
"971 1460 OFFCURVE",
"992 1460 QCURVE SMOOTH",
"1008 1460 OFFCURVE",
"1036 1466 OFFCURVE",
"1071 1487 QCURVE",
"1130 1487 LINE",
"1046 1102 LINE",
"952 1102 LINE",
"936 1331 LINE",
"901 1358 OFFCURVE",
"789 1401 OFFCURVE",
"724 1401 QCURVE SMOOTH",
"614 1401 OFFCURVE",
"469 1289 OFFCURVE",
"447 1177 QCURVE SMOOTH",
"422 1045 OFFCURVE",
"571 841 OFFCURVE",
"845 841 QCURVE SMOOTH",
"1087 841 OFFCURVE",
"1288 869 OFFCURVE",
"1338 916 QCURVE",
"1406 851 LINE",
"1387 797 OFFCURVE",
"1262 697 OFFCURVE",
"1168 697 QCURVE SMOOTH",
"1081 697 OFFCURVE",
"736 736 OFFCURVE",
"666 736 QCURVE SMOOTH",
"465 736 OFFCURVE",
"219 580 OFFCURVE",
"189 428 QCURVE SMOOTH",
"160 282 OFFCURVE",
"266 102 OFFCURVE",
"409 102 QCURVE SMOOTH",
"567 102 OFFCURVE",
"807 274 OFFCURVE",
"879 450 QCURVE SMOOTH",
"998 743 LINE",
"1150 719 LINE",
"1039 478 OFFCURVE",
"946 172 OFFCURVE",
"985 40 QCURVE",
"884 -10 LINE"
);
}
);
width = 1328;
}
);
unicode = 0026;
},
{
glyphname = quotesingle;
layers = (
{
layerId = "363404A5-CC2E-4291-9CCC-B4D2C06AB158";
paths = (
{
closed = 1;
nodes = (
"304 1413 LINE SMOOTH",
"304 1462 OFFCURVE",
"381 1558 OFFCURVE",
"444 1558 QCURVE SMOOTH",
"503 1558 OFFCURVE",
"561 1458 OFFCURVE",
"542 1413 QCURVE SMOOTH",
"354 964 LINE",
"300 964 LINE"
);
}
);
width = 543;
}
);
unicode = 0027;
},
{
glyphname = parenleft;
layers = (
{
layerId = "363404A5-CC2E-4291-9CCC-B4D2C06AB158";
paths = (
{
closed = 1;
nodes = (
"109 940 OFFCURVE",
"459 1427 OFFCURVE",
"634 1543 QCURVE",
"695 1481 LINE",
"552 1350 OFFCURVE",
"302 925 OFFCURVE",
"268 688 QCURVE SMOOTH",
"235 453 OFFCURVE",
"362 23 OFFCURVE",
"471 -104 QCURVE",
"394 -166 LINE",
"253 -50 OFFCURVE",
"37 427 OFFCURVE",
"73 688 QCURVE SMOOTH"
);
}
);
width = 598;
}
);
unicode = 0028;
},
{
glyphname = parenright;
layers = (
{
layerId = "363404A5-CC2E-4291-9CCC-B4D2C06AB158";
paths = (
{
closed = 1;
nodes = (
"519 430 OFFCURVE",
"169 -47 OFFCURVE",
"-5 -163 QCURVE",
"-65 -101 LINE",
"80 25 OFFCURVE",
"328 455 OFFCURVE",
"361 691 QCURVE SMOOTH",
"394 927 OFFCURVE",
"263 1353 OFFCURVE",
"157 1483 QCURVE",
"235 1545 LINE",
"376 1429 OFFCURVE",
"591 942 OFFCURVE",
"556 691 QCURVE SMOOTH"
);
}
);
width = 598;
}
);
unicode = 0029;
},
{
glyphname = asterisk;
layers = (
{
layerId = "363404A5-CC2E-4291-9CCC-B4D2C06AB158";
paths = (
{
closed = 1;
nodes = (
"361 740 OFFCURVE",
"325 823 OFFCURVE",
"353 867 QCURVE SMOOTH",
"495 1097 LINE",
"494 1101 LINE",
"254 966 LINE SMOOTH",
"217 943 OFFCURVE",
"126 973 OFFCURVE",
"114 1029 QCURVE SMOOTH",
"99 1083 OFFCURVE",
"167 1151 OFFCURVE",
"208 1148 QCURVE SMOOTH",
"481 1143 LINE",
"481 1147 LINE",
"249 1290 LINE SMOOTH",
"212 1309 OFFCURVE",
"191 1403 OFFCURVE",
"233 1442 QCURVE SMOOTH",
"273 1480 OFFCURVE",
"364 1458 OFFCURVE",
"385 1419 QCURVE SMOOTH",
"514 1179 LINE",
"519 1181 LINE",
"521 1449 LINE SMOOTH",
"522 1505 OFFCURVE",
"596 1555 OFFCURVE",
"645 1542 QCURVE SMOOTH",
"695 1526 OFFCURVE",
"730 1443 OFFCURVE",
"702 1398 QCURVE SMOOTH",
"560 1169 LINE",
"563 1164 LINE",
"796 1301 LINE SMOOTH",
"833 1323 OFFCURVE",
"923 1294 OFFCURVE",
"938 1238 QCURVE SMOOTH",
"952 1185 OFFCURVE",
"886 1116 OFFCURVE",
"842 1120 QCURVE SMOOTH",
"575 1124 LINE",
"574 1118 LINE",
"806 977 LINE SMOOTH",
"844 957 OFFCURVE",
"865 863 OFFCURVE",
"824 824 QCURVE SMOOTH",
"783 784 OFFCURVE",
"690 808 OFFCURVE",
"671 846 QCURVE SMOOTH",
"541 1087 LINE",
"538 1085 LINE",
"534 816 LINE SMOOTH",
"533 763 OFFCURVE",
"466 709 OFFCURVE",
"410 725 QCURVE SMOOTH"
);
}
);
width = 858;
}
);
unicode = 002A;
},
{
glyphname = plus;
layers = (
{
layerId = "363404A5-CC2E-4291-9CCC-B4D2C06AB158";
paths = (
{
closed = 1;
nodes = (
"60 708 LINE",
"924 708 LINE",
"924 556 LINE",
"60 556 LINE"
);
},
{
closed = 1;
nodes = (
"412 1064 LINE",
"572 1064 LINE",
"572 200 LINE",
"412 200 LINE"
);
}
);
width = 1024;
}
);
unicode = 002B;
},
{
glyphname = comma;
layers = (
{
layerId = "363404A5-CC2E-4291-9CCC-B4D2C06AB158";
paths = (
{
closed = 1;
nodes = (
"75 -164 OFFCURVE",
"189 -46 OFFCURVE",
"209 12 QCURVE",
"141 12 OFFCURVE",
"65 84 OFFCURVE",
"65 140 QCURVE SMOOTH",
"65 195 OFFCURVE",
"150 276 OFFCURVE",
"210 276 QCURVE SMOOTH",
"266 276 OFFCURVE",
"352 177 OFFCURVE",
"352 97 QCURVE SMOOTH",
"352 -2 OFFCURVE",
"181 -198 OFFCURVE",
"83 -257 QCURVE",
"32 -195 LINE"
);
}
);
width = 584;
}
);
unicode = 002C;
},
{
glyphname = hyphen;
layers = (
{
layerId = "363404A5-CC2E-4291-9CCC-B4D2C06AB158";
paths = (
{
closed = 1;
nodes = (
"80 708 LINE",
"370 704 LINE",
"659 708 LINE",
"659 556 LINE",
"370 560 LINE",
"80 556 LINE"
);
}
);
width = 739;
}
);
unicode = 002D;
},
{
glyphname = period;
layers = (
{
layerId = "363404A5-CC2E-4291-9CCC-B4D2C06AB158";
paths = (
{
closed = 1;
nodes = (
"55 176 OFFCURVE",
"132 258 OFFCURVE",
"192 258 QCURVE SMOOTH",
"252 258 OFFCURVE",
"329 176 OFFCURVE",
"329 121 QCURVE SMOOTH",
"329 67 OFFCURVE",
"252 -15 OFFCURVE",
"192 -15 QCURVE SMOOTH",
"132 -15 OFFCURVE",
"55 67 OFFCURVE",
"55 121 QCURVE SMOOTH"
);
}
);
width = 584;
}
);
unicode = 002E;
},
{
glyphname = slash;
layers = (
{
layerId = "363404A5-CC2E-4291-9CCC-B4D2C06AB158";
paths = (
{
closed = 1;
nodes = (
"571 1548 LINE",
"696 1518 LINE",
"80 -155 LINE",
"-45 -125 LINE"
);
}
);
width = 656;
}
);
unicode = 002F;
},
{
glyphname = zero;
layers = (
{
layerId = "363404A5-CC2E-4291-9CCC-B4D2C06AB158";
paths = (
{
closed = 1;
nodes = (
"152 1091 OFFCURVE",
"519 1520 OFFCURVE",
"743 1520 QCURVE SMOOTH",
"972 1520 OFFCURVE",
"1181 1097 OFFCURVE",
"1121 754 QCURVE SMOOTH",
"1064 432 OFFCURVE",
"704 -30 OFFCURVE",
"475 -30 QCURVE SMOOTH",
"243 -30 OFFCURVE",
"30 399 OFFCURVE",
"92 746 QCURVE SMOOTH"
);
},
{
closed = 1;
nodes = (
"231 481 OFFCURVE",
"341 83 OFFCURVE",
"488 83 QCURVE SMOOTH",
"647 83 OFFCURVE",
"880 447 OFFCURVE",
"935 746 QCURVE SMOOTH",
"986 1027 OFFCURVE",
"870 1390 OFFCURVE",
"721 1390 QCURVE SMOOTH",
"560 1390 OFFCURVE",
"331 1060 OFFCURVE",
"281 772 QCURVE SMOOTH"
);
}
);
width = 1176;
}
);
unicode = 0030;
},
{
glyphname = one;
layers = (
{
layerId = "363404A5-CC2E-4291-9CCC-B4D2C06AB158";
paths = (
{
closed = 1;
nodes = (
"242 61 OFFCURVE",
"278 169 OFFCURVE",
"296 276 QCURVE SMOOTH",
"427 1053 LINE",
"458 1314 LINE",
"102 1125 LINE",
"63 1232 LINE",
"655 1554 LINE",
"718 1509 LINE",
"687 1464 OFFCURVE",
"639 1317 OFFCURVE",
"635 1294 QCURVE SMOOTH",
"536 719 LINE",
"452 132 LINE",
"291 -34 LINE",
"220 -1 LINE"
);
}
);
width = 774;
}
);
unicode = 0031;
},
{
glyphname = two;
layers = (
{
layerId = "363404A5-CC2E-4291-9CCC-B4D2C06AB158";
paths = (
{
closed = 1;
nodes = (
"-127 79 LINE",
"2 196 LINE SMOOTH",
"476 626 OFFCURVE",
"736 1004 OFFCURVE",
"736 1199 QCURVE SMOOTH",
"736 1297 OFFCURVE",
"611 1399 OFFCURVE",
"525 1399 QCURVE SMOOTH",
"418 1399 OFFCURVE",
"247 1321 OFFCURVE",
"170 1246 QCURVE",
"93 1314 LINE",
"166 1390 OFFCURVE",
"407 1530 OFFCURVE",
"575 1530 QCURVE SMOOTH",
"747 1530 OFFCURVE",
"934 1345 OFFCURVE",
"934 1191 QCURVE SMOOTH",
"934 916 OFFCURVE",
"253 285 OFFCURVE",
"187 238 QCURVE",
"226 241 LINE",
"664 152 LINE",
"772 319 LINE",
"856 300 LINE",
"732 -30 LINE",
"521 27 OFFCURVE",
"73 108 OFFCURVE",
"-79 6 QCURVE"
);
}
);
width = 966;
}
);
unicode = 0032;
},
{
glyphname = three;
layers = (
{
layerId = "363404A5-CC2E-4291-9CCC-B4D2C06AB158";
paths = (
{
closed = 1;
nodes = (
"-118 239 OFFCURVE",
"-46 330 OFFCURVE",
"28 350 QCURVE",
"51 349 LINE",
"48 313 LINE SMOOTH",
"38 191 OFFCURVE",
"157 69 OFFCURVE",
"261 69 QCURVE SMOOTH",
"456 69 OFFCURVE",
"689 282 OFFCURVE",
"689 454 QCURVE SMOOTH",
"689 589 OFFCURVE",
"527 760 OFFCURVE",
"355 785 QCURVE SMOOTH",
"280 795 LINE",
"288 886 LINE",
"338 890 LINE SMOOTH",
"504 903 OFFCURVE",
"730 1057 OFFCURVE",
"730 1205 QCURVE SMOOTH",
"730 1308 OFFCURVE",
"619 1401 OFFCURVE",
"520 1401 QCURVE SMOOTH",
"397 1401 OFFCURVE",
"242 1309 OFFCURVE",
"184 1251 QCURVE",
"118 1316 LINE",
"195 1405 OFFCURVE",
"445 1532 OFFCURVE",
"591 1532 QCURVE SMOOTH",
"740 1532 OFFCURVE",
"918 1370 OFFCURVE",
"918 1229 QCURVE SMOOTH",
"918 1087 OFFCURVE",
"683 880 OFFCURVE",
"529 852 QCURVE",
"528 846 LINE",
"661 830 OFFCURVE",
"877 678 OFFCURVE",
"877 508 QCURVE SMOOTH",
"877 285 OFFCURVE",
"484 -33 OFFCURVE",
"227 -33 QCURVE SMOOTH",
"57 -33 OFFCURVE",
"-118 65 OFFCURVE",
"-118 163 QCURVE SMOOTH"
);
}
);
width = 938;
}
);
unicode = 0033;
},
{
glyphname = four;
layers = (
{
layerId = "363404A5-CC2E-4291-9CCC-B4D2C06AB158";
paths = (
{
closed = 1;
nodes = (
"-3 540 LINE",
"929 1561 LINE",
"1012 1518 LINE",
"1012 1478 LINE",
"839 520 LINE",
"830 487 LINE",
"766 176 LINE",
"766 18 LINE",
"589 -34 LINE",
"559 31 LINE",
"653 483 LINE",
"663 520 LINE",
"806 1297 LINE",
"152 560 LINE",
"156 550 LINE",
"743 550 LINE",
"1103 550 LINE",
"1086 454 LINE",
"732 440 LINE",
"-3 455 LINE"
);
}
);
width = 1170;
}
);
unicode = 0034;
},
{
glyphname = five;
layers = (
{
layerId = "363404A5-CC2E-4291-9CCC-B4D2C06AB158";
paths = (
{
closed = 1;
nodes = (
"-99 277 OFFCURVE",
"-8 359 OFFCURVE",
"44 369 QCURVE",
"54 364 LINE",
"54 295 LINE SMOOTH",
"54 213 OFFCURVE",
"148 80 OFFCURVE",
"270 80 QCURVE SMOOTH",
"446 80 OFFCURVE",
"645 340 OFFCURVE",
"645 548 QCURVE SMOOTH",
"645 723 OFFCURVE",
"455 866 OFFCURVE",
"291 815 QCURVE SMOOTH",
"178 780 LINE",
"146 850 LINE",
"323 1467 LINE",
"355 1500 LINE",
"954 1500 LINE",
"923 1324 LINE",
"399 1324 LINE",
"388 1313 LINE",
"335 1123 OFFCURVE",
"279 918 OFFCURVE",
"237 870 QCURVE",
"440 970 LINE",
"653 970 OFFCURVE",
"845 758 OFFCURVE",
"845 566 QCURVE SMOOTH",
"845 298 OFFCURVE",
"502 -24 OFFCURVE",
"246 -24 QCURVE SMOOTH",
"86 -24 OFFCURVE",
"-99 107 OFFCURVE",
"-99 202 QCURVE SMOOTH"
);
}
);
width = 930;
}
);
unicode = 0035;
},
{
glyphname = six;
layers = (
{
layerId = "363404A5-CC2E-4291-9CCC-B4D2C06AB158";
paths = (
{
closed = 1;
nodes = (
"57 806 OFFCURVE",
"612 1434 OFFCURVE",
"997 1551 QCURVE",
"1035 1452 LINE",
"735 1353 OFFCURVE",
"238 829 OFFCURVE",
"244 446 QCURVE SMOOTH",
"247 286 OFFCURVE",
"380 84 OFFCURVE",
"543 84 QCURVE SMOOTH",
"685 84 OFFCURVE",
"862 305 OFFCURVE",
"854 520 QCURVE SMOOTH",
"850 634 OFFCURVE",
"737 773 OFFCURVE",
"634 773 QCURVE SMOOTH",
"581 773 OFFCURVE",
"478 735 OFFCURVE",
"443 715 QCURVE",
"426 783 LINE",
"463 821 OFFCURVE",
"588 886 OFFCURVE",
"675 886 QCURVE SMOOTH",
"841 886 OFFCURVE",
"1043 678 OFFCURVE",
"1043 519 QCURVE SMOOTH",
"1043 293 OFFCURVE",
"736 -27 OFFCURVE",
"501 -27 QCURVE SMOOTH",
"275 -27 OFFCURVE",
"66 277 OFFCURVE",
"63 471 QCURVE SMOOTH"
);
}
);
width = 1088;
}
);
unicode = 0036;
},
{
glyphname = seven;
layers = (
{
layerId = "363404A5-CC2E-4291-9CCC-B4D2C06AB158";
paths = (
{
closed = 1;
nodes = (
"224 1500 LINE",
"1075 1500 LINE",
"1092 1452 LINE",
"807 1042 OFFCURVE",
"462 326 OFFCURVE",
"377 44 QCURVE",
"188 -32 LINE",
"143 42 LINE",
"270 348 OFFCURVE",
"725 1070 OFFCURVE",
"875 1318 QCURVE",
"863 1332 LINE",
"313 1332 LINE",
"172 1127 LINE",
"70 1127 LINE"
);
}
);
width = 965;
}
);
unicode = 0037;
},
{
glyphname = eight;
layers = (
{
layerId = "363404A5-CC2E-4291-9CCC-B4D2C06AB158";
paths = (
{
closed = 1;
nodes = (
"-15 476 OFFCURVE",
"248 737 OFFCURVE",
"444 829 QCURVE",
"512 770 LINE",
"336 687 OFFCURVE",
"138 449 OFFCURVE",
"138 317 QCURVE SMOOTH",
"138 217 OFFCURVE",
"279 80 OFFCURVE",
"412 80 QCURVE SMOOTH",
"559 80 OFFCURVE",
"773 257 OFFCURVE",
"773 388 QCURVE SMOOTH",
"773 521 OFFCURVE",
"588 676 OFFCURVE",
"513 729 QCURVE SMOOTH",
"438 782 OFFCURVE",
"236 975 OFFCURVE",
"236 1132 QCURVE SMOOTH",
"236 1285 OFFCURVE",
"511 1517 OFFCURVE",
"702 1517 QCURVE SMOOTH",
"816 1517 OFFCURVE",
"999 1388 OFFCURVE",
"999 1282 QCURVE SMOOTH",
"999 1153 OFFCURVE",
"819 921 OFFCURVE",
"628 821 QCURVE",
"551 884 LINE",
"711 966 OFFCURVE",
"852 1157 OFFCURVE",
"852 1255 QCURVE SMOOTH",
"852 1331 OFFCURVE",
"761 1405 OFFCURVE",
"677 1405 QCURVE SMOOTH",
"530 1405 OFFCURVE",
"391 1248 OFFCURVE",
"391 1173 QCURVE SMOOTH",
"391 1082 OFFCURVE",
"531 944 OFFCURVE",
"638 867 QCURVE SMOOTH",
"746 790 OFFCURVE",
"944 577 OFFCURVE",
"944 449 QCURVE SMOOTH",
"944 284 OFFCURVE",
"614 -29 OFFCURVE",
"397 -29 QCURVE SMOOTH",
"211 -29 OFFCURVE",
"-15 155 OFFCURVE",
"-15 308 QCURVE SMOOTH"
);
}
);
width = 1015;
}
);
unicode = 0038;
},
{
glyphname = nine;
layers = (
{
layerId = "363404A5-CC2E-4291-9CCC-B4D2C06AB158";
paths = (
{
closed = 1;
nodes = (
"108 32 LINE",
"408 131 OFFCURVE",
"905 655 OFFCURVE",
"899 1038 QCURVE SMOOTH",
"896 1198 OFFCURVE",
"763 1400 OFFCURVE",
"600 1400 QCURVE SMOOTH",
"458 1400 OFFCURVE",
"281 1179 OFFCURVE",
"289 964 QCURVE SMOOTH",
"293 850 OFFCURVE",
"406 711 OFFCURVE",
"509 711 QCURVE SMOOTH",
"562 711 OFFCURVE",
"665 749 OFFCURVE",
"700 769 QCURVE",
"717 701 LINE",
"680 663 OFFCURVE",
"555 598 OFFCURVE",
"468 598 QCURVE SMOOTH",
"302 598 OFFCURVE",
"100 806 OFFCURVE",
"100 965 QCURVE SMOOTH",
"100 1191 OFFCURVE",
"407 1511 OFFCURVE",
"642 1511 QCURVE SMOOTH",
"868 1511 OFFCURVE",
"1077 1207 OFFCURVE",
"1080 1013 QCURVE SMOOTH",
"1086 678 OFFCURVE",
"531 50 OFFCURVE",
"146 -67 QCURVE"
);
}
);
width = 1088;
}
);
unicode = 0039;
},
{
glyphname = colon;
layers = (
{
layerId = "363404A5-CC2E-4291-9CCC-B4D2C06AB158";
paths = (
{
closed = 1;
nodes = (
"100 176 OFFCURVE",
"177 258 OFFCURVE",
"237 258 QCURVE SMOOTH",
"297 258 OFFCURVE",
"374 176 OFFCURVE",
"374 121 QCURVE SMOOTH",
"374 67 OFFCURVE",
"297 -15 OFFCURVE",
"237 -15 QCURVE SMOOTH",
"177 -15 OFFCURVE",
"100 67 OFFCURVE",
"100 121 QCURVE SMOOTH"
);
},
{
closed = 1;
nodes = (
"267 956 OFFCURVE",
"344 1038 OFFCURVE",
"404 1038 QCURVE SMOOTH",
"464 1038 OFFCURVE",
"541 956 OFFCURVE",
"541 901 QCURVE SMOOTH",
"541 847 OFFCURVE",
"464 765 OFFCURVE",
"404 765 QCURVE SMOOTH",
"344 765 OFFCURVE",
"267 847 OFFCURVE",
"267 901 QCURVE SMOOTH"
);
}
);
width = 656;
}
);
unicode = 003A;
},
{
glyphname = semicolon;
layers = (
{
layerId = "363404A5-CC2E-4291-9CCC-B4D2C06AB158";
paths = (
{
closed = 1;
nodes = (
"267 956 OFFCURVE",
"344 1038 OFFCURVE",
"404 1038 QCURVE SMOOTH",
"464 1038 OFFCURVE",
"541 956 OFFCURVE",
"541 901 QCURVE SMOOTH",
"541 847 OFFCURVE",
"464 765 OFFCURVE",
"404 765 QCURVE SMOOTH",
"344 765 OFFCURVE",
"267 847 OFFCURVE",
"267 901 QCURVE SMOOTH"
);
},
{
closed = 1;
nodes = (
"81 -159 OFFCURVE",
"189 -46 OFFCURVE",
"209 12 QCURVE",
"141 12 OFFCURVE",
"65 84 OFFCURVE",
"65 140 QCURVE SMOOTH",
"65 195 OFFCURVE",
"150 273 OFFCURVE",
"210 273 QCURVE SMOOTH",
"266 273 OFFCURVE",
"348 177 OFFCURVE",
"348 97 QCURVE SMOOTH",
"348 -2 OFFCURVE",
"172 -202 OFFCURVE",
"83 -257 QCURVE",
"32 -195 LINE"
);
}
);
width = 656;
}
);
unicode = 003B;
},
{
glyphname = less;
layers = (
{
layerId = "363404A5-CC2E-4291-9CCC-B4D2C06AB158";
paths = (
{
closed = 1;
nodes = (
"0 696 OFFCURVE",
"507 1009 OFFCURVE",
"582 1054 QCURVE SMOOTH",
"658 1099 OFFCURVE",
"721 1004 OFFCURVE",
"653 954 QCURVE",
"554 883 OFFCURVE",
"309 709 OFFCURVE",
"250 663 QCURVE",
"294 586 OFFCURVE",
"442 348 OFFCURVE",
"482 274 QCURVE",
"518 209 OFFCURVE",
"410 137 OFFCURVE",
"365 199 QCURVE SMOOTH",
"320 261 OFFCURVE",
"0 696 OFFCURVE",
"0 696 QCURVE"
);
}
);
width = 694;
}
);
unicode = 003C;
},
{
glyphname = equal;
layers = (
{
layerId = "363404A5-CC2E-4291-9CCC-B4D2C06AB158";
paths = (
{
closed = 1;
nodes = (
"90 506 LINE",
"490 502 LINE",
"894 506 LINE",
"894 334 LINE",
"490 338 LINE",
"90 334 LINE"
);
},
{
closed = 1;
nodes = (
"90 908 LINE",
"490 904 LINE",
"894 908 LINE",
"894 736 LINE",
"490 740 LINE",
"90 736 LINE"
);
}
);
width = 1024;
}
);
unicode = 003D;
},
{
glyphname = greater;
layers = (
{
layerId = "363404A5-CC2E-4291-9CCC-B4D2C06AB158";
paths = (
{
closed = 1;
nodes = (
"653 587 OFFCURVE",
"134 261 OFFCURVE",
"58 216 QCURVE SMOOTH",
"-17 172 OFFCURVE",
"-77 268 OFFCURVE",
"-9 318 QCURVE SMOOTH",
"149 435 OFFCURVE",
"416 631 OFFCURVE",
"416 631 QCURVE",
"416 631 OFFCURVE",
"268 861 OFFCURVE",
"186 1013 QCURVE SMOOTH",
"150 1078 OFFCURVE",
"259 1148 OFFCURVE",
"305 1086 QCURVE SMOOTH",
"350 1024 OFFCURVE",
"653 587 OFFCURVE",
"653 587 QCURVE"
);
}
);
width = 694;
}
);
unicode = 003E;
},
{
glyphname = question;
layers = (
{
layerId = "363404A5-CC2E-4291-9CCC-B4D2C06AB158";
paths = (
{
closed = 1;
nodes = (
"181 1377 OFFCURVE",
"445 1540 OFFCURVE",
"649 1540 QCURVE SMOOTH",
"820 1540 OFFCURVE",
"1021 1395 OFFCURVE",
"1021 1256 QCURVE SMOOTH",
"1021 1112 OFFCURVE",
"833 881 OFFCURVE",
"617 737 QCURVE SMOOTH",
"544 688 OFFCURVE",
"415 597 OFFCURVE",
"393 522 QCURVE SMOOTH",
"367 435 LINE",
"267 435 LINE",
"278 519 LINE SMOOTH",
"288 593 OFFCURVE",
"425 762 OFFCURVE",
"540 842 QCURVE SMOOTH",
"678 938 OFFCURVE",
"835 1125 OFFCURVE",
"835 1233 QCURVE SMOOTH",
"835 1325 OFFCURVE",
"712 1429 OFFCURVE",
"595 1429 QCURVE SMOOTH",
"473 1429 OFFCURVE",
"318 1342 OFFCURVE",
"308 1289 QCURVE SMOOTH",
"302 1260 OFFCURVE",
"402 1204 OFFCURVE",
"395 1155 QCURVE SMOOTH",
"390 1115 OFFCURVE",
"326 1051 OFFCURVE",
"266 1051 QCURVE SMOOTH",
"200 1051 OFFCURVE",
"135 1144 OFFCURVE",
"153 1234 QCURVE SMOOTH"
);
},
{
closed = 1;
nodes = (
"156 179 OFFCURVE",
"233 260 OFFCURVE",
"293 260 QCURVE SMOOTH",
"352 260 OFFCURVE",
"429 179 OFFCURVE",
"429 124 QCURVE SMOOTH",
"429 70 OFFCURVE",
"352 -12 OFFCURVE",
"293 -12 QCURVE SMOOTH",
"233 -12 OFFCURVE",
"156 70 OFFCURVE",
"156 124 QCURVE SMOOTH"
);
}
);
width = 934;
}
);
unicode = 003F;
},
{
glyphname = at;
layers = (
{
layerId = "363404A5-CC2E-4291-9CCC-B4D2C06AB158";
paths = (
{
closed = 1;
nodes = (
"423 810 OFFCURVE",
"820 1170 OFFCURVE",
"1013 1170 QCURVE SMOOTH",
"1029 1170 OFFCURVE",
"1061 1164 OFFCURVE",
"1076 1159 QCURVE",
"1170 1210 LINE",
"1212 1210 LINE",
"1270 1097 LINE",
"1156 663 LINE",
"1125 492 LINE",
"1133 474 OFFCURVE",
"1158 465 OFFCURVE",
"1192 465 QCURVE SMOOTH",
"1313 465 OFFCURVE",
"1485 667 OFFCURVE",
"1522 858 QCURVE SMOOTH",
"1565 1082 OFFCURVE",
"1300 1384 OFFCURVE",
"993 1384 QCURVE SMOOTH",
"677 1384 OFFCURVE",
"277 1033 OFFCURVE",
"221 737 QCURVE SMOOTH",
"172 471 OFFCURVE",
"457 99 OFFCURVE",
"743 99 QCURVE SMOOTH",
"883 99 OFFCURVE",
"1074 163 OFFCURVE",
"1125 195 QCURVE",
"1174 108 LINE",
"1105 57 OFFCURVE",
"868 -30 OFFCURVE",
"713 -30 QCURVE SMOOTH",
"375 -30 OFFCURVE",
"8 399 OFFCURVE",
"71 725 QCURVE SMOOTH",
"136 1058 OFFCURVE",
"655 1520 OFFCURVE",
"1019 1520 QCURVE SMOOTH",
"1359 1520 OFFCURVE",
"1730 1172 OFFCURVE",
"1670 863 QCURVE SMOOTH",
"1624 630 OFFCURVE",
"1325 354 OFFCURVE",
"1182 354 QCURVE SMOOTH",
"1107 354 OFFCURVE",
"991 446 OFFCURVE",
"982 507 QCURVE",
"874 412 OFFCURVE",
"690 356 OFFCURVE",
"625 356 QCURVE SMOOTH",
"518 356 OFFCURVE",
"423 477 OFFCURVE",
"423 566 QCURVE SMOOTH"
);
},
{
closed = 1;
nodes = (
"574 547 OFFCURVE",
"633 467 OFFCURVE",
"696 467 QCURVE SMOOTH",
"804 467 OFFCURVE",
"1006 620 OFFCURVE",
"1039 763 QCURVE SMOOTH",
"1094 1003 LINE",
"1091 1036 OFFCURVE",
"1022 1057 OFFCURVE",
"984 1057 QCURVE SMOOTH",
"801 1057 OFFCURVE",
"574 798 OFFCURVE",
"574 608 QCURVE SMOOTH"
);
}
);
width = 1709;
}
);
unicode = 0040;
},
{
glyphname = A;
layers = (
{
layerId = "363404A5-CC2E-4291-9CCC-B4D2C06AB158";
paths = (
{
closed = 1;
nodes = (
"-113 100 LINE",
"71 125 LINE",
"398 660 LINE",
"953 1531 LINE",
"1073 1513 LINE",
"1114 655 LINE",
"1146 120 LINE",
"1313 100 LINE",
"1294 0 LINE",
"791 0 LINE",
"810 100 LINE",
"975 116 LINE",
"958 648 LINE",
"934 1249 LINE",
"905 1260 LINE",
"496 625 LINE",
"207 119 LINE",
"376 100 LINE",
"357 0 LINE",
"-132 0 LINE"
);
},
{
closed = 1;
nodes = (
"482 696 LINE",
"732 690 LINE",
"713 601 LINE",
"417 587 LINE"
);
},
{
closed = 1;
nodes = (
"1041 698 LINE",
"1053 599 LINE",
"713 601 LINE",
"732 690 LINE"
);
}
);
width = 1367;
}
);
unicode = 0041;
},
{
glyphname = B;
layers = (
{
layerId = "363404A5-CC2E-4291-9CCC-B4D2C06AB158";
paths = (
{
closed = 1;
nodes = (
"-1 100 LINE",
"195 126 LINE",
"323 784 LINE",
"412 1362 LINE",
"229 1386 LINE",
"242 1500 LINE",
"800 1500 LINE SMOOTH",
"992 1500 OFFCURVE",
"1158 1308 OFFCURVE",
"1144 1163 QCURVE SMOOTH",
"1131 1028 OFFCURVE",
"956 854 OFFCURVE",
"850 830 QCURVE",
"849 823 LINE",
"995 789 OFFCURVE",
"1145 575 OFFCURVE",
"1119 413 QCURVE SMOOTH",
"1089 226 OFFCURVE",
"782 0 OFFCURVE",
"572 0 QCURVE SMOOTH",
"-20 0 LINE"
);
},
{
closed = 1;
nodes = (
"394 105 LINE",
"544 105 LINE SMOOTH",
"712 105 OFFCURVE",
"914 251 OFFCURVE",
"939 420 QCURVE SMOOTH",
"960 565 OFFCURVE",
"835 743 OFFCURVE",
"695 743 QCURVE SMOOTH",
"474 743 LINE",
"472 729 LINE",
"359 125 LINE"
);
},
{
closed = 1;
nodes = (
"496 857 LINE",
"648 857 LINE SMOOTH",
"777 857 OFFCURVE",
"945 991 OFFCURVE",
"958 1129 QCURVE SMOOTH",
"970 1257 OFFCURVE",
"860 1380 OFFCURVE",
"737 1380 QCURVE SMOOTH",
"607 1380 LINE",
"578 1362 LINE",
"501 880 LINE"
);
}
);
width = 1207;
}
);
unicode = 0042;
},
{
glyphname = C;
layers = (
{
guideLines = (
{
angle = 79;
position = "{620, 0}";
}
);
layerId = "363404A5-CC2E-4291-9CCC-B4D2C06AB158";
paths = (
{
closed = 1;
nodes = (
"230 1165 OFFCURVE",
"769 1565 OFFCURVE",
"1042 1523 QCURVE SMOOTH",
"1119 1512 OFFCURVE",
"1239 1473 OFFCURVE",
"1289 1448 QCURVE",
"1315 1434 LINE",
"1339 1420 LINE",
"1276 1055 LINE",
"1168 1055 LINE",
"1178 1264 LINE",
"1147 1323 OFFCURVE",
"1031 1381 OFFCURVE",
"979 1389 QCURVE SMOOTH",
"758 1423 OFFCURVE",
"407 1151 OFFCURVE",
"330 842 QCURVE SMOOTH",
"257 552 OFFCURVE",
"421 151 OFFCURVE",
"617 121 QCURVE SMOOTH",
"808 92 OFFCURVE",
"1093 215 OFFCURVE",
"1183 351 QCURVE",
"1207 337 LINE",
"1230 262 LINE",
"1106 84 OFFCURVE",
"770 -40 OFFCURVE",
"568 -16 QCURVE SMOOTH",
"300 16 OFFCURVE",
"58 523 OFFCURVE",
"143 839 QCURVE SMOOTH"
);
}
);
width = 1303;
}
);
unicode = 0043;
userData = {
com.typemytype.robofont.guideline.magnetic.O7SZUltfz0 = 5;
};
},
{
glyphname = D;
layers = (
{
layerId = "363404A5-CC2E-4291-9CCC-B4D2C06AB158";
paths = (
{
closed = 1;
nodes = (
"9 100 LINE",
"205 125 LINE",
"323 754 LINE",
"432 1362 LINE",
"229 1386 LINE",
"242 1500 LINE",
"840 1500 LINE SMOOTH",
"1173 1500 OFFCURVE",
"1501 1087 OFFCURVE",
"1433 755 QCURVE SMOOTH",
"1363 410 OFFCURVE",
"892 0 OFFCURVE",
"532 0 QCURVE SMOOTH",
"-10 0 LINE"
);
},
{
closed = 1;
nodes = (
"398 122 OFFCURVE",
"530 106 OFFCURVE",
"598 106 QCURVE SMOOTH",
"860 106 OFFCURVE",
"1190 440 OFFCURVE",
"1252 762 QCURVE SMOOTH",
"1311 1065 OFFCURVE",
"1065 1379 OFFCURVE",
"825 1379 QCURVE SMOOTH",
"754 1379 OFFCURVE",
"630 1367 OFFCURVE",
"597 1362 QCURVE",
"483 754 LINE",
"368 128 LINE"
);
}
);
width = 1449;
}
);
unicode = 0044;
},
{
glyphname = E;
layers = (
{
guideLines = (
{
angle = 79;
position = "{740, 1500}";
}
);
layerId = "363404A5-CC2E-4291-9CCC-B4D2C06AB158";
paths = (
{
closed = 1;
nodes = (
"-1 100 LINE",
"185 127 LINE",
"313 783 LINE",
"422 1362 LINE",
"229 1386 LINE",
"242 1500 LINE",
"1219 1500 LINE",
"1181 1152 LINE",
"1082 1152 LINE",
"1075 1382 LINE",
"622 1382 LINE",
"587 1362 LINE",
"472 794 LINE",
"358 177 LINE",
"408 108 LINE",
"904 108 LINE",
"995 378 LINE",
"1095 378 LINE",
"1016 0 LINE",
"-20 0 LINE"
);
},
{
closed = 1;
nodes = (
"412 858 LINE",
"825 865 LINE",
"884 1024 LINE",
"994 1024 LINE",
"909 588 LINE",
"809 588 LINE",
"813 749 LINE",
"393 776 LINE"
);
}
);
width = 1182;
}
);
unicode = 0045;
userData = {
com.typemytype.robofont.guideline.magnetic.NsAsU2emIl = 5;
};
},
{
glyphname = F;
layers = (
{
layerId = "363404A5-CC2E-4291-9CCC-B4D2C06AB158";
paths = (
{
closed = 1;
nodes = (
"-11 100 LINE",
"176 127 LINE",
"299 760 LINE",
"412 1362 LINE",
"229 1386 LINE",
"242 1500 LINE",
"1182 1500 LINE",
"1112 1142 LINE",
"1012 1142 LINE",
"1028 1382 LINE",
"614 1392 LINE",
"578 1372 LINE",
"459 760 LINE",
"339 122 LINE",
"549 100 LINE",
"530 0 LINE",
"-30 0 LINE"
);
},
{
closed = 1;
nodes = (
"417 851 LINE",
"813 858 LINE",
"878 1019 LINE",
"978 1019 LINE",
"887 553 LINE",
"787 553 LINE",
"790 742 LINE",
"397 749 LINE"
);
}
);
width = 1050;
}
);
unicode = 0046;
},
{
glyphname = G;
layers = (
{
layerId = "363404A5-CC2E-4291-9CCC-B4D2C06AB158";
paths = (
{
closed = 1;
nodes = (
"230 1173 OFFCURVE",
"766 1562 OFFCURVE",
"1052 1523 QCURVE SMOOTH",
"1119 1514 OFFCURVE",
"1243 1477 OFFCURVE",
"1276 1461 QCURVE SMOOTH",
"1317 1441 LINE",
"1359 1420 LINE",
"1297 1076 LINE",
"1189 1076 LINE",
"1200 1290 LINE",
"1168 1322 OFFCURVE",
"1055 1381 OFFCURVE",
"989 1389 QCURVE SMOOTH",
"777 1416 OFFCURVE",
"407 1151 OFFCURVE",
"330 842 QCURVE SMOOTH",
"257 552 OFFCURVE",
"421 155 OFFCURVE",
"617 121 QCURVE SMOOTH",
"751 98 OFFCURVE",
"993 154 OFFCURVE",
"1093 223 QCURVE",
"1166 586 LINE",
"997 611 LINE",
"1009 712 LINE",
"1459 712 LINE",
"1445 610 LINE",
"1325 585 LINE",
"1245 162 LINE",
"1133 109 LINE",
"1020 41 OFFCURVE",
"744 -37 OFFCURVE",
"568 -16 QCURVE SMOOTH",
"300 16 OFFCURVE",
"61 523 OFFCURVE",
"143 839 QCURVE SMOOTH"
);
}
);
width = 1395;
}
);
unicode = 0047;
},
{
glyphname = H;
layers = (
{
layerId = "363404A5-CC2E-4291-9CCC-B4D2C06AB158";
paths = (
{
closed = 1;
nodes = (
"-1 100 LINE",
"186 120 LINE",
"325 806 LINE",
"424 1362 LINE",
"230 1385 LINE",
"242 1500 LINE",
"799 1500 LINE",
"777 1385 LINE",
"593 1362 LINE",
"481 790 LINE",
"355 120 LINE",
"546 100 LINE",
"537 0 LINE",
"-20 0 LINE"
);
},
{
closed = 1;
nodes = (
"412 855 LINE",
"855 851 LINE",
"1301 855 LINE",
"1280 738 LINE",
"836 742 LINE",
"391 738 LINE"
);
},
{
closed = 1;
nodes = (
"889 100 LINE",
"1076 120 LINE",
"1210 788 LINE",
"1314 1362 LINE",
"1120 1385 LINE",
"1132 1500 LINE",
"1688 1500 LINE",
"1666 1385 LINE",
"1483 1362 LINE",
"1366 771 LINE",
"1245 120 LINE",
"1435 100 LINE",
"1426 0 LINE",
"870 0 LINE"
);
}
);
width = 1576;
}
);
unicode = 0048;
},
{
glyphname = I;
layers = (
{
layerId = "363404A5-CC2E-4291-9CCC-B4D2C06AB158";
paths = (
{
closed = 1;
nodes = (
"9 100 LINE",
"204 125 LINE",
"327 754 LINE",
"441 1363 LINE",
"239 1386 LINE",
"252 1500 LINE",
"822 1500 LINE",
"799 1386 LINE",
"605 1363 LINE",
"487 754 LINE",
"368 126 LINE",
"569 100 LINE",
"550 -2 LINE",
"-10 -2 LINE"
);
}
);
width = 712;
}
);
unicode = 0049;
},
{
glyphname = J;
layers = (
{
layerId = "363404A5-CC2E-4291-9CCC-B4D2C06AB158";
paths = (
{
closed = 1;
nodes = (
"5 201 LINE",
"29 174 OFFCURVE",
"119 117 OFFCURVE",
"189 117 QCURVE SMOOTH",
"266 117 OFFCURVE",
"366 225 OFFCURVE",
"391 357 QCURVE SMOOTH",
"467 754 LINE",
"581 1362 LINE",
"371 1386 LINE",
"384 1500 LINE",
"946 1500 LINE",
"933 1386 LINE",
"745 1362 LINE",
"627 754 LINE",
"569 449 LINE SMOOTH",
"524 207 OFFCURVE",
"351 -15 OFFCURVE",
"207 -15 QCURVE SMOOTH",
"123 -15 OFFCURVE",
"-18 55 OFFCURVE",
"-40 90 QCURVE"
);
}
);
width = 840;
}
);
unicode = 004A;
},
{
glyphname = K;
layers = (
{
layerId = "363404A5-CC2E-4291-9CCC-B4D2C06AB158";
paths = (
{
closed = 1;
nodes = (
"-11 100 LINE",
"185 125 LINE",
"308 754 LINE",
"422 1362 LINE",
"229 1386 LINE",
"242 1500 LINE",
"784 1500 LINE",
"771 1386 LINE",
"589 1362 LINE",
"468 754 LINE",
"357 125 LINE",
"541 100 LINE",
"532 0 LINE",
"-20 0 LINE"
);
},
{
closed = 1;
nodes = (
"367 684 LINE",
"1071 1348 LINE",
"967 1386 LINE",
"980 1500 LINE",
"1400 1500 LINE",
"1387 1386 LINE",
"1226 1348 LINE",
"337 531 LINE"
);
},
{
closed = 1;
nodes = (
"770 973 LINE",
"1093 125 LINE",
"1247 100 LINE",
"1238 0 LINE",
"771 0 LINE",
"780 100 LINE",
"921 125 LINE",
"644 850 LINE"
);
}
);
width = 1302;
}
);
unicode = 004B;
},
{
glyphname = L;
layers = (
{
guideLines = (
{
angle = 79;
position = "{954, 798}";
}
);
layerId = "363404A5-CC2E-4291-9CCC-B4D2C06AB158";
paths = (
{
closed = 1;
nodes = (
"-3 100 LINE",
"193 122 LINE",
"316 754 LINE",
"430 1352 LINE",
"229 1386 LINE",
"241 1499 LINE",
"813 1499 LINE",
"801 1386 LINE",
"594 1352 LINE",
"476 754 LINE",
"357 135 LINE",
"388 108 LINE",
"844 108 LINE",
"1003 341 LINE",
"1114 341 LINE",
"965 0 LINE",
"-13 0 LINE"
);
}
);
width = 1104;
}
);
unicode = 004C;
userData = {
com.typemytype.robofont.guideline.magnetic.pzs6RtEyJ4 = 5;
};
},
{
glyphname = M;
layers = (
{
layerId = "363404A5-CC2E-4291-9CCC-B4D2C06AB158";
paths = (
{
closed = 1;
nodes = (
"-16 100 LINE",
"175 115 LINE",
"298 754 LINE",
"412 1372 LINE",
"229 1386 LINE",
"242 1500 LINE",
"662 1500 LINE",
"781 786 LINE",
"882 212 LINE",
"1218 820 LINE",
"1594 1500 LINE",
"2015 1500 LINE",
"1994 1386 LINE",
"1807 1372 LINE",
"1689 754 LINE",
"1570 115 LINE",
"1762 100 LINE",
"1753 0 LINE",
"1194 0 LINE",
"1203 100 LINE",
"1406 115 LINE",
"1529 754 LINE",
"1654 1381 LINE",
"1303 758 LINE",
"871 -8 LINE",
"760 -8 LINE",
"634 750 LINE",
"526 1356 LINE",
"406 754 LINE",
"287 115 LINE",
"483 100 LINE",
"464 0 LINE",
"-25 0 LINE"
);
}
);
width = 1918;
}
);
unicode = 004D;
},
{
glyphname = N;
layers = (
{
guideLines = (
{
angle = 79;
position = "{860, 1500}";
}
);
layerId = "363404A5-CC2E-4291-9CCC-B4D2C06AB158";
paths = (
{
closed = 1;
nodes = (
"-21 100 LINE",
"175 125 LINE",
"298 754 LINE",
"412 1362 LINE",
"229 1386 LINE",
"242 1500 LINE",
"639 1500 LINE",
"865 820 LINE",
"1043 306 LINE",
"1133 754 LINE",
"1248 1362 LINE",
"1047 1386 LINE",
"1063 1500 LINE",
"1567 1500 LINE",
"1551 1386 LINE",
"1357 1362 LINE",
"1239 754 LINE",
"1088 0 LINE",
"977 0 LINE",
"725 748 LINE",
"513 1328 LINE",
"403 754 LINE",
"284 125 LINE",
"475 100 LINE",
"466 0 LINE",
"-30 0 LINE"
);
}
);
width = 1432;
}
);
unicode = 004E;
userData = {
com.typemytype.robofont.guideline.magnetic.zJVF0kxaMe = 5;
};
},
{
glyphname = O;
layers = (
{
guideLines = (
{
angle = 79;
position = "{600, 0}";
}
);
layerId = "363404A5-CC2E-4291-9CCC-B4D2C06AB158";
paths = (
{
closed = 1;
nodes = (
"234 1194 OFFCURVE",
"735 1562 OFFCURVE",
"1008 1519 QCURVE SMOOTH",
"1299 1473 OFFCURVE",
"1565 997 OFFCURVE",
"1477 656 QCURVE SMOOTH",
"1392 328 OFFCURVE",
"875 -58 OFFCURVE",
"612 -17 QCURVE SMOOTH",
"327 27 OFFCURVE",
"61 530 OFFCURVE",
"149 868 QCURVE SMOOTH"
);
},
{
closed = 1;
nodes = (
"257 559 OFFCURVE",
"426 149 OFFCURVE",
"642 117 QCURVE SMOOTH",
"884 81 OFFCURVE",
"1211 353 OFFCURVE",
"1290 666 QCURVE SMOOTH",
"1362 953 OFFCURVE",
"1194 1351 OFFCURVE",
"976 1384 QCURVE SMOOTH",
"753 1418 OFFCURVE",
"407 1158 OFFCURVE",
"330 849 QCURVE SMOOTH"
);
}
);
width = 1528;
}
);
unicode = 004F;
userData = {
com.typemytype.robofont.guideline.magnetic.t9UmQ6O2X4 = 5;
};
},
{
glyphname = P;
layers = (
{
layerId = "363404A5-CC2E-4291-9CCC-B4D2C06AB158";
paths = (
{
closed = 1;
nodes = (
"-12 100 LINE",
"185 127 LINE",
"307 754 LINE",
"412 1362 LINE",
"229 1386 LINE",
"242 1500 LINE",
"814 1500 LINE SMOOTH",
"1031 1500 OFFCURVE",
"1234 1263 OFFCURVE",
"1197 1051 QCURVE SMOOTH",
"1159 831 OFFCURVE",
"853 599 OFFCURVE",
"649 599 QCURVE SMOOTH",
"550 599 OFFCURVE",
"402 620 OFFCURVE",
"360 628 QCURVE",
"389 729 LINE",
"440 716 OFFCURVE",
"542 707 OFFCURVE",
"635 707 QCURVE SMOOTH",
"790 707 OFFCURVE",
"997 901 OFFCURVE",
"1023 1072 QCURVE SMOOTH",
"1047 1228 OFFCURVE",
"929 1382 OFFCURVE",
"784 1382 QCURVE SMOOTH",
"599 1382 LINE",
"573 1360 LINE",
"469 764 LINE",
"348 122 LINE",
"548 100 LINE",
"539 0 LINE",
"-21 0 LINE"
);
}
);
width = 1151;
}
);
unicode = 0050;
},
{
glyphname = Q;
layers = (
{
layerId = "363404A5-CC2E-4291-9CCC-B4D2C06AB158";
paths = (
{
closed = 1;
nodes = (
"228 1172 OFFCURVE",
"735 1562 OFFCURVE",
"1008 1519 QCURVE SMOOTH",
"1299 1473 OFFCURVE",
"1565 997 OFFCURVE",
"1477 656 QCURVE SMOOTH",
"1392 328 OFFCURVE",
"877 -35 OFFCURVE",
"614 5 QCURVE SMOOTH",
"345 46 OFFCURVE",
"55 508 OFFCURVE",
"143 846 QCURVE SMOOTH"
);
},
{
closed = 1;
nodes = (
"257 559 OFFCURVE",
"426 149 OFFCURVE",
"642 117 QCURVE SMOOTH",
"884 81 OFFCURVE",
"1211 353 OFFCURVE",
"1290 666 QCURVE SMOOTH",
"1362 953 OFFCURVE",
"1194 1351 OFFCURVE",
"976 1384 QCURVE SMOOTH",
"753 1418 OFFCURVE",
"407 1158 OFFCURVE",
"330 849 QCURVE SMOOTH"
);
},
{
closed = 1;
nodes = (
"185 -57 OFFCURVE",
"334 3 OFFCURVE",
"405 -2 QCURVE",
"682 312 LINE SMOOTH",
"689 320 OFFCURVE",
"702 331 OFFCURVE",
"712 344 QCURVE",
"737 334 OFFCURVE",
"785 298 OFFCURVE",
"797 285 QCURVE",
"788 272 OFFCURVE",
"775 256 OFFCURVE",
"766 246 QCURVE SMOOTH",
"493 -32 LINE",
"1137 -315 LINE SMOOTH",
"1199 -342 OFFCURVE",
"1321 -250 OFFCURVE",
"1355 -199 QCURVE",
"1428 -262 LINE",
"1381 -359 OFFCURVE",
"1224 -480 OFFCURVE",
"1107 -463 QCURVE",
"392 -142 LINE",
"340 -134 OFFCURVE",
"233 -162 OFFCURVE",
"174 -205 QCURVE",
"123 -134 LINE"
);
}
);
width = 1528;
}
);
unicode = 0051;
},
{
glyphname = R;
layers = (
{
layerId = "363404A5-CC2E-4291-9CCC-B4D2C06AB158";
paths = (
{
closed = 1;
nodes = (
"-21 100 LINE",
"175 126 LINE",
"298 754 LINE",
"412 1362 LINE",
"229 1386 LINE",
"242 1500 LINE",
"800 1500 LINE SMOOTH",
"993 1500 OFFCURVE",
"1175 1288 OFFCURVE",
"1142 1122 QCURVE SMOOTH",
"1108 953 OFFCURVE",
"822 746 OFFCURVE",
"685 746 QCURVE SMOOTH",
"624 746 OFFCURVE",
"428 745 OFFCURVE",
"377 750 QCURVE",
"395 845 LINE",
"499 845 LINE",
"637 845 LINE SMOOTH",
"796 845 OFFCURVE",
"932 977 OFFCURVE",
"958 1116 QCURVE SMOOTH",
"980 1232 OFFCURVE",
"886 1382 OFFCURVE",
"762 1382 QCURVE SMOOTH",
"610 1382 LINE",
"580 1364 LINE",
"458 754 LINE",
"339 126 LINE",
"528 100 LINE",
"509 0 LINE",
"-40 0 LINE"
);
},
{
closed = 1;
nodes = (
"813 820 LINE",
"826 718 LINE SMOOTH",
"851 524 OFFCURVE",
"992 130 OFFCURVE",
"1179 99 QCURVE",
"1150 0 LINE",
"1074 0 LINE SMOOTH",
"874 0 OFFCURVE",
"701 447 OFFCURVE",
"675 681 QCURVE SMOOTH",
"666 761 LINE"
);
}
);
width = 1212;
}
);
unicode = 0052;
},
{
glyphname = S;
layers = (
{
guideLines = (
{
angle = 79;
position = "{620, 1500}";
}
);
layerId = "363404A5-CC2E-4291-9CCC-B4D2C06AB158";
paths = (
{
closed = 1;
nodes = (
"9 434 LINE",
"113 434 LINE",
"113 324 LINE SMOOTH",
"113 227 OFFCURVE",
"293 114 OFFCURVE",
"446 114 QCURVE SMOOTH",
"585 114 OFFCURVE",
"762 258 OFFCURVE",
"762 385 QCURVE SMOOTH",
"762 491 OFFCURVE",
"597 648 OFFCURVE",
"473 736 QCURVE SMOOTH",
"356 819 OFFCURVE",
"180 1013 OFFCURVE",
"180 1161 QCURVE SMOOTH",
"180 1314 OFFCURVE",
"425 1520 OFFCURVE",
"585 1520 QCURVE SMOOTH",
"697 1520 OFFCURVE",
"848 1464 OFFCURVE",
"896 1431 QCURVE",
"945 1514 LINE",
"1035 1496 LINE",
"980 1087 LINE",
"865 1087 LINE",
"865 1256 LINE",
"865 1301 OFFCURVE",
"714 1399 OFFCURVE",
"613 1399 QCURVE SMOOTH",
"500 1399 OFFCURVE",
"350 1281 OFFCURVE",
"350 1190 QCURVE SMOOTH",
"350 1099 OFFCURVE",
"475 972 OFFCURVE",
"620 866 QCURVE SMOOTH",
"760 763 OFFCURVE",
"923 560 OFFCURVE",
"922 411 QCURVE SMOOTH",
"921 226 OFFCURVE",
"662 -13 OFFCURVE",
"475 -13 QCURVE SMOOTH",
"350 -13 OFFCURVE",
"158 51 OFFCURVE",
"93 102 QCURVE",
"34 7 LINE",
"-56 25 LINE"
);
}
);
width = 942;
}
);
unicode = 0053;
userData = {
com.typemytype.robofont.guideline.magnetic.S5ppER3v5F = 5;
};
},
{
glyphname = T;
layers = (
{
guideLines = (
{
angle = 79;
position = "{440, 0}";
}
);
layerId = "363404A5-CC2E-4291-9CCC-B4D2C06AB158";
paths = (
{
closed = 1;
nodes = (
"230 1500 LINE",
"1327 1500 LINE",
"1244 1099 LINE",
"1144 1099 LINE",
"1172 1382 LINE",
"854 1382 LINE",
"840 1362 LINE",
"721 754 LINE",
"601 136 LINE",
"791 100 LINE",
"783 -1 LINE",
"224 -1 LINE",
"232 100 LINE",
"438 136 LINE",
"561 754 LINE",
"677 1362 LINE",
"673 1382 LINE",
"339 1382 LINE",
"247 1099 LINE",
"147 1099 LINE"
);
}
);
width = 1169;
}
);
unicode = 0054;
userData = {
com.typemytype.robofont.guideline.magnetic.ZPbYVlY61L = 5;
};
},
{
glyphname = U;
layers = (
{
guideLines = (
{
angle = 79;
position = "{880, 1500}";
}
);
layerId = "363404A5-CC2E-4291-9CCC-B4D2C06AB158";
paths = (
{
closed = 1;
nodes = (
"239 1500 LINE",
"780 1500 LINE",
"766 1386 LINE",
"591 1362 LINE",
"473 794 LINE SMOOTH",
"454 702 OFFCURVE",
"418 454 OFFCURVE",
"418 374 QCURVE SMOOTH",
"418 268 OFFCURVE",
"566 104 OFFCURVE",
"694 104 QCURVE SMOOTH",
"861 104 OFFCURVE",
"1071 277 OFFCURVE",
"1114 494 QCURVE SMOOTH",
"1173 794 LINE",
"1271 1362 LINE",
"1079 1386 LINE",
"1093 1500 LINE",
"1607 1500 LINE",
"1593 1386 LINE",
"1408 1362 LINE",
"1297 794 LINE",
"1242 493 LINE SMOOTH",
"1190 209 OFFCURVE",
"902 -22 OFFCURVE",
"675 -22 QCURVE SMOOTH",
"476 -22 OFFCURVE",
"240 178 OFFCURVE",
"243 364 QCURVE SMOOTH",
"244 444 OFFCURVE",
"277 615 OFFCURVE",
"311 794 QCURVE SMOOTH",
"418 1362 LINE",
"225 1386 LINE"
);
}
);
width = 1471;
}
);
unicode = 0055;
userData = {
com.typemytype.robofont.guideline.magnetic.wPzRvKQt7E = 5;
};
},
{
glyphname = V;
layers = (
{
layerId = "363404A5-CC2E-4291-9CCC-B4D2C06AB158";
paths = (
{
closed = 1;
nodes = (
"139 1500 LINE",
"609 1500 LINE",
"588 1386 LINE",
"428 1365 LINE",
"459 801 LINE",
"491 286 LINE",
"510 286 LINE",
"788 805 LINE",
"1077 1372 LINE",
"914 1386 LINE",
"927 1500 LINE",
"1386 1500 LINE",
"1373 1386 LINE",
"1205 1367 LINE",
"884 754 LINE",
"474 -8 LINE",
"363 -8 LINE",
"302 740 LINE",
"261 1367 LINE",
"118 1386 LINE"
);
}
);
width = 1151;
}
);
unicode = 0056;
},
{
glyphname = W;
layers = (
{
layerId = "363404A5-CC2E-4291-9CCC-B4D2C06AB158";
paths = (
{
closed = 1;
nodes = (
"130 1500 LINE",
"619 1500 LINE",
"595 1386 LINE",
"437 1366 LINE",
"447 803 LINE",
"459 269 LINE",
"475 269 LINE",
"744 737 LINE",
"1025 1221 LINE",
"1043 1083 LINE",
"847 699 LINE",
"423 -8 LINE",
"319 -8 LINE",
"295 740 LINE",
"269 1366 LINE",
"106 1386 LINE"
);
},
{
closed = 1;
nodes = (
"829 1500 LINE",
"1294 1500 LINE",
"1273 1386 LINE",
"1120 1373 LINE",
"1113 800 LINE",
"1115 268 LINE",
"1129 268 LINE",
"1411 803 LINE",
"1694 1372 LINE",
"1501 1386 LINE",
"1514 1500 LINE",
"2001 1500 LINE",
"1988 1386 LINE",
"1830 1367 LINE",
"1508 760 LINE",
"1079 -8 LINE",
"968 -8 LINE",
"962 734 LINE",
"950 1373 LINE",
"808 1394 LINE"
);
}
);
width = 1755;
}
);
unicode = 0057;
},
{
glyphname = X;
layers = (
{
layerId = "363404A5-CC2E-4291-9CCC-B4D2C06AB158";
paths = (
{
closed = 1;
nodes = (
"-118 100 LINE",
"41 125 LINE",
"613 849 LINE",
"623 849 LINE",
"1014 1370 LINE",
"858 1386 LINE",
"871 1500 LINE",
"1331 1500 LINE",
"1318 1386 LINE",
"1150 1365 LINE",
"662 757 LINE",
"653 757 LINE",
"177 120 LINE",
"332 100 LINE",
"323 0 LINE",
"-127 0 LINE"
);
},
{
closed = 1;
nodes = (
"160 1500 LINE",
"645 1500 LINE",
"632 1386 LINE",
"479 1363 LINE",
"685 851 LINE",
"993 125 LINE",
"1148 100 LINE",
"1139 0 LINE",
"645 0 LINE",
"654 100 LINE",
"809 125 LINE",
"561 727 LINE",
"295 1365 LINE",
"147 1386 LINE"
);
}
);
width = 1222;
}
);
unicode = 0058;
},
{
glyphname = Y;
layers = (
{
guideLines = (
{
angle = 79;
position = "{430, 0}";
}
);
layerId = "363404A5-CC2E-4291-9CCC-B4D2C06AB158";
paths = (
{
closed = 1;
nodes = (
"155 1500 LINE",
"633 1500 LINE",
"620 1386 LINE",
"467 1361 LINE",
"562 1055 LINE",
"660 783 LINE",
"871 1078 LINE",
"1068 1368 LINE",
"894 1386 LINE",
"907 1500 LINE",
"1369 1500 LINE",
"1356 1386 LINE",
"1208 1369 LINE",
"945 1011 LINE",
"693 652 LINE",
"594 125 LINE",
"788 100 LINE",
"779 0 LINE",
"217 0 LINE",
"226 100 LINE",
"431 125 LINE",
"533 647 LINE",
"426 976 LINE",
"284 1370 LINE",
"142 1386 LINE"
);
}
);
width = 1149;
}
);
unicode = 0059;
userData = {
com.typemytype.robofont.guideline.magnetic.QALnJiLhhi = 5;
};
},
{
glyphname = Z;
layers = (
{
layerId = "363404A5-CC2E-4291-9CCC-B4D2C06AB158";
paths = (
{
closed = 1;
nodes = (
"-70 92 LINE",
"474 785 LINE",
"909 1366 LINE",
"899 1382 LINE",
"381 1382 LINE",
"294 1101 LINE",
"184 1101 LINE",
"261 1500 LINE",
"1139 1500 LINE",
"1131 1409 LINE",
"600 712 LINE",
"153 124 LINE",
"163 108 LINE",
"719 108 LINE",
"885 339 LINE",
"984 339 LINE",
"830 0 LINE",
"-60 0 LINE"
);
}
);
width = 1014;
}
);
unicode = 005A;
},
{
glyphname = bracketleft;
layers = (
{
layerId = "363404A5-CC2E-4291-9CCC-B4D2C06AB158";
paths = (
{
closed = 1;
nodes = (
"278 1362 LINE",
"263 1382 LINE",
"286 1500 LINE",
"744 1500 LINE",
"720 1381 LINE",
"458 1362 LINE",
"280 508 LINE",
"127 -342 LINE",
"382 -361 LINE",
"359 -480 LINE",
"-99 -480 LINE",
"-76 -362 LINE",
"-53 -342 LINE",
"124 508 LINE"
);
}
);
width = 636;
}
);
unicode = 005B;
},
{
glyphname = backslash;
layers = (
{
layerId = "363404A5-CC2E-4291-9CCC-B4D2C06AB158";
paths = (
{
closed = 1;
nodes = (
"267 1555 LINE",
"558 -118 LINE",
"429 -151 LINE",
"138 1522 LINE"
);
}
);
width = 656;
}
);
unicode = 005C;
},
{
glyphname = bracketright;
layers = (
{
layerId = "363404A5-CC2E-4291-9CCC-B4D2C06AB158";
paths = (
{
closed = 1;
nodes = (
"-146 -361 LINE",
"117 -342 LINE",
"294 508 LINE",
"448 1362 LINE",
"192 1381 LINE",
"216 1500 LINE",
"674 1500 LINE",
"651 1382 LINE",
"628 1362 LINE",
"450 508 LINE",
"297 -342 LINE",
"312 -362 LINE",
"289 -480 LINE",
"-169 -480 LINE"
);
}
);
width = 636;
}
);
unicode = 005D;
},
{
glyphname = asciicircum;
layers = (
{
layerId = "363404A5-CC2E-4291-9CCC-B4D2C06AB158";
paths = (
{
closed = 1;
nodes = (
"268 988 OFFCURVE",
"834 1524 OFFCURVE",
"834 1524 QCURVE",
"834 1524 OFFCURVE",
"1232 989 OFFCURVE",
"1274 927 QCURVE",
"1180 829 LINE",
"1068 953 OFFCURVE",
"799 1267 OFFCURVE",
"799 1267 QCURVE SMOOTH",
"799 1267 OFFCURVE",
"429 958 OFFCURVE",
"285 831 QCURVE",
"202 926 LINE"
);
}
);
width = 1317;
}
);
unicode = 005E;
},
{
glyphname = underscore;
layers = (
{
layerId = "363404A5-CC2E-4291-9CCC-B4D2C06AB158";
paths = (
{
closed = 1;
nodes = (
"-216 -342 LINE",
"532 -348 LINE",
"1272 -342 LINE",
"1245 -480 LINE",
"501 -490 LINE",
"-243 -480 LINE"
);
}
);
width = 1448;
}
);
unicode = 005F;
},
{
glyphname = grave;
layers = (
{
layerId = "363404A5-CC2E-4291-9CCC-B4D2C06AB158";
paths = (
{
closed = 1;
nodes = (
"782 1132 LINE",
"856 1202 LINE",
"668 1446 LINE SMOOTH",
"642 1480 OFFCURVE",
"588 1534 OFFCURVE",
"550 1534 QCURVE SMOOTH",
"510 1534 OFFCURVE",
"460 1484 OFFCURVE",
"460 1448 QCURVE SMOOTH",
"460 1414 OFFCURVE",
"496 1369 OFFCURVE",
"528 1342 QCURVE SMOOTH"
);
}
);
width = 1024;
}
);
unicode = 0060;
},
{
glyphname = a;
layers = (
{
guideLines = (
{
angle = 79;
position = "{440, 0}";
}
);
layerId = "363404A5-CC2E-4291-9CCC-B4D2C06AB158";
paths = (
{
closed = 1;
nodes = (
"40 548 OFFCURVE",
"474 991 OFFCURVE",
"684 991 QCURVE SMOOTH",
"702 991 OFFCURVE",
"757 978 OFFCURVE",
"777 967 QCURVE",
"856 1040 LINE",
"902 1040 LINE",
"965 901 LINE",
"841 367 LINE",
"811 213 LINE",
"810 145 OFFCURVE",
"821 80 OFFCURVE",
"846 18 QCURVE",
"682 -9 LINE",
"649 40 OFFCURVE",
"626 93 OFFCURVE",
"615 150 QCURVE",
"531 78 OFFCURVE",
"332 -10 OFFCURVE",
"261 -10 QCURVE SMOOTH",
"144 -10 OFFCURVE",
"40 139 OFFCURVE",
"40 248 QCURVE SMOOTH"
);
},
{
closed = 1;
nodes = (
"205 225 OFFCURVE",
"269 127 OFFCURVE",
"338 127 QCURVE SMOOTH",
"456 127 OFFCURVE",
"677 314 OFFCURVE",
"713 491 QCURVE SMOOTH",
"773 786 LINE",
"770 826 OFFCURVE",
"694 852 OFFCURVE",
"653 852 QCURVE SMOOTH",
"453 852 OFFCURVE",
"205 533 OFFCURVE",
"205 300 QCURVE SMOOTH"
);
}
);
width = 1045;
}
);
unicode = 0061;
userData = {
com.typemytype.robofont.guideline.magnetic.aElvfKe6lu = 5;
};
},
{
glyphname = b;
layers = (
{
layerId = "363404A5-CC2E-4291-9CCC-B4D2C06AB158";
paths = (
{
closed = 1;
nodes = (
"168 633 LINE",
"315 1410 LINE",
"181 1502 LINE",
"209 1574 LINE",
"420 1608 LINE",
"507 1538 LINE",
"325 601 LINE",
"253 227 LINE",
"239 165 OFFCURVE",
"309 116 OFFCURVE",
"358 116 QCURVE SMOOTH",
"545 116 OFFCURVE",
"822 459 OFFCURVE",
"822 684 QCURVE SMOOTH",
"822 788 OFFCURVE",
"756 855 OFFCURVE",
"687 855 QCURVE SMOOTH",
"589 855 OFFCURVE",
"345 696 OFFCURVE",
"277 612 QCURVE",
"256 702 LINE",
"321 801 OFFCURVE",
"647 1003 OFFCURVE",
"765 1003 QCURVE SMOOTH",
"870 1003 OFFCURVE",
"994 874 OFFCURVE",
"994 709 QCURVE SMOOTH",
"994 415 OFFCURVE",
"555 -13 OFFCURVE",
"327 -13 QCURVE SMOOTH",
"263 -13 OFFCURVE",
"175 34 OFFCURVE",
"150 73 QCURVE",
"118 67 LINE",
"76 146 LINE"
);
}
);
width = 1042;
}
);
unicode = 0062;
},
{
glyphname = c;
layers = (
{
guideLines = (
{
angle = 79;
position = "{450, 0}";
}
);
layerId = "363404A5-CC2E-4291-9CCC-B4D2C06AB158";
paths = (
{
closed = 1;
nodes = (
"116 740 OFFCURVE",
"482 1030 OFFCURVE",
"666 1030 QCURVE SMOOTH",
"762 1030 OFFCURVE",
"895 937 OFFCURVE",
"895 849 QCURVE SMOOTH",
"895 772 OFFCURVE",
"818 652 OFFCURVE",
"752 639 QCURVE",
"729 666 LINE",
"729 839 LINE SMOOTH",
"729 864 OFFCURVE",
"672 901 OFFCURVE",
"611 901 QCURVE SMOOTH",
"474 901 OFFCURVE",
"260 688 OFFCURVE",
"216 497 QCURVE SMOOTH",
"178 334 OFFCURVE",
"280 115 OFFCURVE",
"431 115 QCURVE SMOOTH",
"546 115 OFFCURVE",
"727 223 OFFCURVE",
"789 312 QCURVE",
"847 248 LINE",
"847 219 LINE",
"783 133 OFFCURVE",
"526 -21 OFFCURVE",
"374 -21 QCURVE SMOOTH",
"178 -21 OFFCURVE",
"2 274 OFFCURVE",
"58 503 QCURVE SMOOTH"
);
}
);
width = 911;
}
);
unicode = 0063;
userData = {
com.typemytype.robofont.guideline.magnetic.NRMkUVgtUn = 5;
};
},
{
glyphname = d;
layers = (
{
layerId = "363404A5-CC2E-4291-9CCC-B4D2C06AB158";
paths = (
{
closed = 1;
nodes = (
"40 548 OFFCURVE",
"485 991 OFFCURVE",
"768 1000 QCURVE SMOOTH",
"800 1000 LINE",
"875 1408 LINE",
"741 1500 LINE",
"769 1572 LINE",
"980 1606 LINE",
"1067 1536 LINE",
"858 469 LINE",
"809 133 LINE",
"894 133 LINE",
"894 44 LINE",
"667 -16 LINE",
"630 65 LINE",
"637 171 LINE",
"572 96 OFFCURVE",
"332 -10 OFFCURVE",
"261 -10 QCURVE SMOOTH",
"144 -10 OFFCURVE",
"40 139 OFFCURVE",
"40 248 QCURVE SMOOTH"
);
},
{
closed = 1;
nodes = (
"209 225 OFFCURVE",
"269 127 OFFCURVE",
"338 127 QCURVE SMOOTH",
"456 127 OFFCURVE",
"680 313 OFFCURVE",
"713 491 QCURVE SMOOTH",
"769 784 LINE",
"766 824 OFFCURVE",
"700 850 OFFCURVE",
"659 850 QCURVE SMOOTH",
"460 850 OFFCURVE",
"209 519 OFFCURVE",
"209 300 QCURVE SMOOTH"
);
}
);
width = 1067;
}
);
unicode = 0064;
},
{
glyphname = e;
layers = (
{
guideLines = (
{
angle = 79;
position = "{440, 0}";
}
);
layerId = "363404A5-CC2E-4291-9CCC-B4D2C06AB158";
paths = (
{
closed = 1;
nodes = (
"118 728 OFFCURVE",
"510 1030 OFFCURVE",
"706 1030 QCURVE SMOOTH",
"781 1030 OFFCURVE",
"917 918 OFFCURVE",
"919 860 QCURVE SMOOTH",
"921 807 OFFCURVE",
"905 703 OFFCURVE",
"896 664 QCURVE",
"976 649 LINE",
"938 551 LINE",
"863 548 OFFCURVE",
"700 546 OFFCURVE",
"633 546 QCURVE SMOOTH",
"175 544 LINE",
"175 638 LINE",
"726 646 LINE",
"742 684 OFFCURVE",
"763 774 OFFCURVE",
"763 816 QCURVE SMOOTH",
"763 853 OFFCURVE",
"692 901 OFFCURVE",
"635 901 QCURVE SMOOTH",
"504 901 OFFCURVE",
"264 682 OFFCURVE",
"224 511 QCURVE SMOOTH",
"182 334 OFFCURVE",
"282 117 OFFCURVE",
"418 112 QCURVE SMOOTH",
"543 107 OFFCURVE",
"720 203 OFFCURVE",
"793 291 QCURVE",
"851 292 LINE",
"851 208 LINE",
"781 120 OFFCURVE",
"521 -32 OFFCURVE",
"354 -25 QCURVE SMOOTH",
"182 -18 OFFCURVE",
"5 274 OFFCURVE",
"64 512 QCURVE SMOOTH"
);
}
);
width = 986;
}
);
unicode = 0065;
userData = {
com.typemytype.robofont.guideline.magnetic.t201CLapts = 5;
};
},
{
glyphname = f;
layers = (
{
layerId = "363404A5-CC2E-4291-9CCC-B4D2C06AB158";
paths = (
{
closed = 1;
nodes = (
"-295 -305 LINE",
"-161 -303 LINE SMOOTH",
"-43 -301 OFFCURVE",
"62 -155 OFFCURVE",
"116 147 QCURVE SMOOTH",
"251 905 LINE",
"263 942 LINE",
"330 1269 LINE SMOOTH",
"366 1445 OFFCURVE",
"524 1582 OFFCURVE",
"634 1582 QCURVE SMOOTH",
"719 1582 OFFCURVE",
"817 1511 OFFCURVE",
"817 1461 QCURVE SMOOTH",
"817 1420 OFFCURVE",
"763 1369 OFFCURVE",
"736 1369 QCURVE SMOOTH",
"720 1369 OFFCURVE",
"714 1378 OFFCURVE",
"714 1396 QCURVE SMOOTH",
"714 1423 OFFCURVE",
"671 1452 OFFCURVE",
"637 1452 QCURVE SMOOTH",
"576 1452 OFFCURVE",
"482 1363 OFFCURVE",
"467 1263 QCURVE SMOOTH",
"417 938 LINE",
"416 913 LINE",
"285 214 LINE SMOOTH",
"205 -210 OFFCURVE",
"26 -447 OFFCURVE",
"-120 -447 QCURVE",
"-305 -405 LINE SMOOTH"
);
},
{
closed = 1;
nodes = (
"66 938 LINE",
"275 980 LINE",
"635 980 LINE",
"625 858 LINE",
"362 865 LINE",
"275 847 LINE",
"72 864 LINE"
);
}
);
width = 581;
}
);
unicode = 0066;
},
{
glyphname = g;
layers = (
{
guideLines = (
{
angle = 79;
position = "{550, 1000}";
}
);
layerId = "363404A5-CC2E-4291-9CCC-B4D2C06AB158";
paths = (
{
closed = 1;
nodes = (
"36 574 OFFCURVE",
"468 985 OFFCURVE",
"678 985 QCURVE SMOOTH",
"696 985 OFFCURVE",
"731 978 OFFCURVE",
"747 971 QCURVE",
"850 1034 LINE",
"896 1034 LINE",
"959 895 LINE",
"898 588 LINE SMOOTH",
"756 -126 OFFCURVE",
"423 -464 OFFCURVE",
"196 -464 QCURVE",
"28 -424 LINE",
"30 -348 LINE",
"214 -337 LINE SMOOTH",
"350 -329 OFFCURVE",
"579 -128 OFFCURVE",
"627 83 QCURVE SMOOTH",
"662 236 LINE",
"535 102 OFFCURVE",
"328 16 OFFCURVE",
"257 16 QCURVE SMOOTH",
"140 16 OFFCURVE",
"36 165 OFFCURVE",
"36 274 QCURVE SMOOTH"
);
},
{
closed = 1;
nodes = (
"205 251 OFFCURVE",
"265 153 OFFCURVE",
"334 153 QCURVE SMOOTH",
"452 153 OFFCURVE",
"670 340 OFFCURVE",
"709 517 QCURVE SMOOTH",
"767 780 LINE",
"764 820 OFFCURVE",
"688 846 OFFCURVE",
"647 846 QCURVE SMOOTH",
"448 846 OFFCURVE",
"205 545 OFFCURVE",
"205 326 QCURVE SMOOTH"
);
}
);
width = 988;
}
);
unicode = 0067;
userData = {
com.typemytype.robofont.guideline.magnetic.P2iG04Woq9 = 5;
};
},
{
glyphname = h;
layers = (
{
guideLines = (
{
angle = 79;
position = "{130, 0}";
}
);
layerId = "363404A5-CC2E-4291-9CCC-B4D2C06AB158";
paths = (
{
closed = 1;
nodes = (
"60 56 LINE",
"163 527 LINE",
"321 1404 LINE",
"217 1500 LINE",
"245 1572 LINE",
"426 1602 LINE",
"513 1532 LINE",
"330 588 LINE",
"245 87 LINE",
"276 0 LINE",
"102 -23 LINE"
);
},
{
closed = 1;
nodes = (
"697 75 LINE",
"820 702 LINE SMOOTH",
"836 785 OFFCURVE",
"793 877 OFFCURVE",
"716 877 QCURVE SMOOTH",
"618 877 OFFCURVE",
"370 700 OFFCURVE",
"313 630 QCURVE",
"292 720 LINE",
"357 819 OFFCURVE",
"658 1021 OFFCURVE",
"776 1021 QCURVE SMOOTH",
"885 1021 OFFCURVE",
"1018 878 OFFCURVE",
"990 742 QCURVE SMOOTH",
"865 134 LINE",
"1001 134 LINE",
"1001 46 LINE",
"738 -14 LINE"
);
}
);
width = 1157;
}
);
unicode = 0068;
userData = {
com.typemytype.robofont.guideline.magnetic.Q2FtUewu9M = 5;
};
},
{
glyphname = i;
layers = (
{
guideLines = (
{
angle = 79;
position = "{380, 1000}";
}
);
layerId = "363404A5-CC2E-4291-9CCC-B4D2C06AB158";
paths = (
{
closed = 1;
nodes = (
"110 68 LINE",
"204 527 LINE",
"265 820 LINE",
"94 818 LINE",
"96 915 LINE",
"349 1014 LINE",
"419 1014 LINE",
"468 898 LINE",
"417 755 LINE",
"293 140 LINE",
"514 164 LINE",
"514 76 LINE",
"151 -21 LINE"
);
},
{
closed = 1;
nodes = (
"332 1396 OFFCURVE",
"394 1460 OFFCURVE",
"447 1460 QCURVE SMOOTH",
"496 1460 OFFCURVE",
"550 1392 OFFCURVE",
"544 1337 QCURVE SMOOTH",
"538 1278 OFFCURVE",
"476 1214 OFFCURVE",
"423 1214 QCURVE SMOOTH",
"374 1214 OFFCURVE",
"320 1282 OFFCURVE",
"326 1337 QCURVE SMOOTH"
);
}
);
width = 618;
}
);
unicode = 0069;
userData = {
com.typemytype.robofont.guideline.magnetic.UoBWQ8KbZg = 5;
};
},
{
glyphname = j;
layers = (
{
layerId = "363404A5-CC2E-4291-9CCC-B4D2C06AB158";
paths = (
{
closed = 1;
nodes = (
"171 306 OFFCURVE",
"255 651 OFFCURVE",
"272 822 QCURVE",
"121 818 LINE",
"123 915 LINE",
"352 1001 LINE",
"422 1001 LINE",
"491 885 LINE",
"430 742 LINE",
"313 132 LINE",
"274 -164 OFFCURVE",
"59 -464 OFFCURVE",
"-130 -464 QCURVE",
"-340 -425 LINE",
"-322 -318 LINE",
"-134 -320 LINE SMOOTH",
"-21 -321 OFFCURVE",
"159 -98 OFFCURVE",
"176 142 QCURVE",
"136 142 LINE",
"103 193 LINE"
);
},
{
closed = 1;
nodes = (
"360 1396 OFFCURVE",
"422 1460 OFFCURVE",
"475 1460 QCURVE SMOOTH",
"524 1460 OFFCURVE",
"578 1392 OFFCURVE",
"572 1337 QCURVE SMOOTH",
"566 1278 OFFCURVE",
"504 1214 OFFCURVE",
"451 1214 QCURVE SMOOTH",
"402 1214 OFFCURVE",
"348 1282 OFFCURVE",
"354 1337 QCURVE SMOOTH"
);
}
);
width = 573;
}
);
unicode = 006A;
},
{
glyphname = k;
layers = (
{
layerId = "363404A5-CC2E-4291-9CCC-B4D2C06AB158";
paths = (
{
closed = 1;
nodes = (
"60 56 LINE",
"163 527 LINE",
"320 1408 LINE",
"216 1500 LINE",
"244 1572 LINE",
"425 1606 LINE",
"512 1536 LINE",
"370 798 LINE",
"430 890 OFFCURVE",
"599 1016 OFFCURVE",
"688 1016 QCURVE SMOOTH",
"783 1016 OFFCURVE",
"897 898 OFFCURVE",
"907 814 QCURVE SMOOTH",
"918 725 LINE",
"907 703 LINE",
"634 512 LINE",
"863 133 LINE",
"987 133 LINE",
"987 45 LINE",
"772 -6 LINE SMOOTH",
"757 -10 OFFCURVE",
"728 8 OFFCURVE",
"677 115 QCURVE",
"506 418 LINE",
"236 215 LINE",
"192 283 LINE",
"763 726 LINE",
"763 803 OFFCURVE",
"684 888 OFFCURVE",
"631 888 QCURVE SMOOTH",
"553 888 OFFCURVE",
"392 735 OFFCURVE",
"341 644 QCURVE",
"330 588 LINE",
"245 87 LINE",
"276 4 LINE",
"102 -23 LINE"
);
}
);
width = 1004;
}
);
unicode = 006B;
},
{
glyphname = l;
layers = (
{
guideLines = (
{
angle = 79;
position = "{140, 0}";
}
);
layerId = "363404A5-CC2E-4291-9CCC-B4D2C06AB158";
paths = (
{
closed = 1;
nodes = (
"64 86 LINE",
"173 606 LINE",
"321 1408 LINE",
"197 1500 LINE",
"225 1572 LINE",
"426 1606 LINE",
"513 1536 LINE",
"331 588 LINE",
"248 134 LINE",
"444 154 LINE",
"444 66 LINE",
"111 -14 LINE"
);
}
);
width = 567;
}
);
unicode = 006C;
userData = {
com.typemytype.robofont.guideline.magnetic.k5T7CLeoKK = 5;
};
},
{
glyphname = m;
layers = (
{
layerId = "363404A5-CC2E-4291-9CCC-B4D2C06AB158";
paths = (
{
closed = 1;
nodes = (
"80 56 LINE",
"203 527 LINE",
"255 822 LINE",
"113 818 LINE",
"115 915 LINE",
"334 1001 LINE",
"380 1001 LINE",
"413 736 LINE",
"380 588 LINE",
"255 87 LINE",
"286 4 LINE",
"122 -23 LINE"
);
},
{
closed = 1;
nodes = (
"691 65 LINE",
"834 702 LINE SMOOTH",
"853 785 OFFCURVE",
"813 877 OFFCURVE",
"736 877 QCURVE SMOOTH",
"638 877 OFFCURVE",
"410 700 OFFCURVE",
"353 630 QCURVE",
"332 720 LINE",
"397 819 OFFCURVE",
"678 1021 OFFCURVE",
"796 1021 QCURVE SMOOTH",
"905 1021 OFFCURVE",
"1035 877 OFFCURVE",
"1004 742 QCURVE SMOOTH",
"861 119 LINE",
"907 20 LINE",
"717 -10 LINE"
);
},
{
closed = 1;
nodes = (
"1281 64 LINE",
"1427 702 LINE SMOOTH",
"1446 785 OFFCURVE",
"1406 877 OFFCURVE",
"1329 877 QCURVE SMOOTH",
"1231 877 OFFCURVE",
"1003 700 OFFCURVE",
"946 630 QCURVE",
"925 720 LINE",
"990 819 OFFCURVE",
"1271 1021 OFFCURVE",
"1389 1021 QCURVE SMOOTH",
"1498 1021 OFFCURVE",
"1629 877 OFFCURVE",
"1597 742 QCURVE SMOOTH",
"1452 134 LINE",
"1588 134 LINE",
"1588 46 LINE",
"1322 -25 LINE"
);
}
);
width = 1760;
}
);
unicode = 006D;
},
{
glyphname = n;
layers = (
{
guideLines = (
{
angle = 79;
position = "{710, 1000}";
}
);
layerId = "363404A5-CC2E-4291-9CCC-B4D2C06AB158";
paths = (
{
closed = 1;
nodes = (
"80 56 LINE",
"183 527 LINE",
"235 822 LINE",
"93 818 LINE",
"95 915 LINE",
"314 1000 LINE",
"360 1000 LINE",
"393 736 LINE",
"360 588 LINE",
"255 83 LINE",
"286 0 LINE",
"122 -23 LINE"
);
},
{
closed = 1;
nodes = (
"717 75 LINE",
"840 702 LINE SMOOTH",
"856 785 OFFCURVE",
"813 877 OFFCURVE",
"736 877 QCURVE SMOOTH",
"638 877 OFFCURVE",
"390 700 OFFCURVE",
"333 630 QCURVE",
"312 720 LINE",
"377 819 OFFCURVE",
"678 1021 OFFCURVE",
"796 1021 QCURVE SMOOTH",
"905 1021 OFFCURVE",
"1038 878 OFFCURVE",
"1010 742 QCURVE SMOOTH",
"885 134 LINE",
"1021 134 LINE",
"1021 46 LINE",
"758 -14 LINE"
);
}
);
width = 1173;
}
);
unicode = 006E;
userData = {
com.typemytype.robofont.guideline.magnetic.fI0xi51wWb = 5;
};
},
{
glyphname = o;
layers = (
{
guideLines = (
{
angle = 79;
position = "{430, 0}";
}
);
layerId = "363404A5-CC2E-4291-9CCC-B4D2C06AB158";
paths = (
{
closed = 1;
nodes = (
"103 746 OFFCURVE",
"414 1030 OFFCURVE",
"615 1016 QCURVE SMOOTH",
"816 1002 OFFCURVE",
"1007 703 OFFCURVE",
"958 475 QCURVE SMOOTH",
"913 261 OFFCURVE",
"602 -30 OFFCURVE",
"400 -16 QCURVE SMOOTH",
"199 -2 OFFCURVE",
"8 301 OFFCURVE",
"57 532 QCURVE SMOOTH"
);
},
{
closed = 1;
nodes = (
"188 359 OFFCURVE",
"285 103 OFFCURVE",
"416 93 QCURVE SMOOTH",
"557 84 OFFCURVE",
"749 301 OFFCURVE",
"788 488 QCURVE SMOOTH",
"825 660 OFFCURVE",
"721 892 OFFCURVE",
"590 901 QCURVE SMOOTH",
"448 911 OFFCURVE",
"261 715 OFFCURVE",
"225 537 QCURVE SMOOTH"
);
}
);
width = 1050;
}
);
unicode = 006F;
userData = {
com.typemytype.robofont.guideline.magnetic.xRQiCtN0cG = 5;
};
},
{
glyphname = p;
layers = (
{
layerId = "363404A5-CC2E-4291-9CCC-B4D2C06AB158";
paths = (
{
closed = 1;
nodes = (
"157 512 LINE",
"222 983 LINE",
"191 1066 LINE",
"365 1093 LINE",
"407 1014 LINE",
"372 830 LINE",
"459 901 OFFCURVE",
"675 1006 OFFCURVE",
"757 1006 QCURVE SMOOTH",
"874 1006 OFFCURVE",
"978 877 OFFCURVE",
"978 768 QCURVE SMOOTH",
"978 427 OFFCURVE",
"541 30 OFFCURVE",
"331 30 QCURVE SMOOTH",
"300 30 OFFCURVE",
"248 41 OFFCURVE",
"227 51 QCURVE",
"158 -316 LINE",
"283 -356 LINE",
"255 -428 LINE",
"74 -462 LINE",
"-13 -392 LINE"
);
},
{
closed = 1;
nodes = (
"256 208 OFFCURVE",
"313 169 OFFCURVE",
"362 169 QCURVE SMOOTH",
"561 169 OFFCURVE",
"809 477 OFFCURVE",
"809 716 QCURVE SMOOTH",
"809 791 OFFCURVE",
"748 858 OFFCURVE",
"679 858 QCURVE SMOOTH",
"603 858 OFFCURVE",
"419 756 OFFCURVE",
"346 691 QCURVE",
"324 573 LINE",
"267 269 LINE"
);
}
);
width = 1026;
}
);
unicode = 0070;
},
{
glyphname = q;
layers = (
{
layerId = "363404A5-CC2E-4291-9CCC-B4D2C06AB158";
paths = (
{
closed = 1;
nodes = (
"40 573 OFFCURVE",
"460 985 OFFCURVE",
"670 985 QCURVE SMOOTH",
"688 985 OFFCURVE",
"723 978 OFFCURVE",
"739 971 QCURVE",
"842 1034 LINE",
"888 1034 LINE",
"951 895 LINE",
"857 506 LINE",
"664 -316 LINE",
"789 -356 LINE",
"761 -428 LINE",
"580 -462 LINE",
"493 -391 LINE",
"635 182 LINE",
"624 185 LINE",
"537 93 OFFCURVE",
"332 15 OFFCURVE",
"261 15 QCURVE SMOOTH",
"144 15 OFFCURVE",
"40 164 OFFCURVE",
"40 273 QCURVE SMOOTH"
);
},
{
closed = 1;
nodes = (
"209 250 OFFCURVE",
"269 152 OFFCURVE",
"338 152 QCURVE SMOOTH",
"456 152 OFFCURVE",
"671 339 OFFCURVE",
"703 516 QCURVE SMOOTH",
"759 780 LINE",
"756 820 OFFCURVE",
"690 846 OFFCURVE",
"649 846 QCURVE SMOOTH",
"450 846 OFFCURVE",
"209 544 OFFCURVE",
"209 325 QCURVE SMOOTH"
);
}
);
width = 987;
}
);
unicode = 0071;
},
{
glyphname = r;
layers = (
{
guideLines = (
{
angle = 79;
position = "{170, 0}";
}
);
layerId = "363404A5-CC2E-4291-9CCC-B4D2C06AB158";
paths = (
{
closed = 1;
nodes = (
"85 75 LINE",
"190 527 LINE",
"228 822 LINE",
"86 818 LINE",
"88 915 LINE",
"297 1001 LINE",
"353 1001 LINE",
"370 807 LINE",
"385 741 LINE",
"269 137 LINE",
"400 106 LINE",
"400 18 LINE",
"126 -14 LINE"
);
},
{
closed = 1;
nodes = (
"665 865 LINE",
"567 865 OFFCURVE",
"389 737 OFFCURVE",
"333 650 QCURVE",
"312 720 LINE",
"385 847 OFFCURVE",
"607 1013 OFFCURVE",
"718 1013 QCURVE SMOOTH",
"773 1013 OFFCURVE",
"828 980 OFFCURVE",
"828 937 QCURVE SMOOTH",
"828 853 OFFCURVE",
"756 648 OFFCURVE",
"700 648 QCURVE SMOOTH",
"665 648 LINE"
);
}
);
width = 783;
}
);
unicode = 0072;
userData = {
com.typemytype.robofont.guideline.magnetic.P35jP8CCy2 = 5;
};
},
{
glyphname = s;
layers = (
{
guideLines = (
{
angle = 79;
position = "{530, 1000}";
}
);
layerId = "363404A5-CC2E-4291-9CCC-B4D2C06AB158";
paths = (
{
closed = 1;
nodes = (
"21 290 OFFCURVE",
"106 380 OFFCURVE",
"163 380 QCURVE SMOOTH",
"189 380 LINE",
"189 195 LINE SMOOTH",
"189 148 OFFCURVE",
"260 98 OFFCURVE",
"341 98 QCURVE SMOOTH",
"437 98 OFFCURVE",
"564 187 OFFCURVE",
"564 261 QCURVE SMOOTH",
"564 327 OFFCURVE",
"455 437 OFFCURVE",
"363 486 QCURVE SMOOTH",
"244 550 OFFCURVE",
"134 679 OFFCURVE",
"135 766 QCURVE SMOOTH",
"136 871 OFFCURVE",
"329 1028 OFFCURVE",
"491 1028 QCURVE SMOOTH",
"610 1028 OFFCURVE",
"731 917 OFFCURVE",
"731 841 QCURVE SMOOTH",
"731 777 OFFCURVE",
"658 687 OFFCURVE",
"608 687 QCURVE SMOOTH",
"581 687 LINE",
"581 822 LINE SMOOTH",
"581 849 OFFCURVE",
"525 911 OFFCURVE",
"453 911 QCURVE SMOOTH",
"378 911 OFFCURVE",
"270 852 OFFCURVE",
"270 798 QCURVE SMOOTH",
"270 746 OFFCURVE",
"365 666 OFFCURVE",
"465 609 QCURVE SMOOTH",
"562 554 OFFCURVE",
"711 407 OFFCURVE",
"712 294 QCURVE SMOOTH",
"713 159 OFFCURVE",
"496 -15 OFFCURVE",
"324 -15 QCURVE SMOOTH",
"175 -15 OFFCURVE",
"21 127 OFFCURVE",
"21 210 QCURVE SMOOTH"
);
}
);
width = 839;
}
);
unicode = 0073;
userData = {
com.typemytype.robofont.guideline.magnetic.UIBMkLjIM1 = 5;
};
},
{
glyphname = t;
layers = (
{
guideLines = (
{
angle = 79;
position = "{160, 0}";
}
);
layerId = "363404A5-CC2E-4291-9CCC-B4D2C06AB158";
paths = (
{
closed = 1;
nodes = (
"77 117 LINE",
"174 512 LINE",
"231 830 LINE",
"70 842 LINE",
"85 916 LINE",
"187 952 OFFCURVE",
"335 1145 OFFCURVE",
"364 1237 QCURVE",
"411 1237 LINE",
"437 1197 LINE",
"322 524 LINE",
"260 134 LINE",
"446 154 LINE",
"446 66 LINE",
"151 -15 LINE"
);
},
{
closed = 1;
nodes = (
"320 980 LINE",
"625 980 LINE",
"625 875 LINE",
"275 849 LINE"
);
}
);
width = 613;
}
);
unicode = 0074;
userData = {
com.typemytype.robofont.guideline.magnetic.0teADGsfUO = 5;
};
},
{
glyphname = u;
layers = (
{
guideLines = (
{
angle = 79;
position = "{670, 1000}";
}
);
layerId = "363404A5-CC2E-4291-9CCC-B4D2C06AB158";
paths = (
{
closed = 1;
nodes = (
"735 76 LINE",
"746 278 LINE",
"861 911 LINE",
"830 994 LINE",
"994 1021 LINE",
"1036 942 LINE",
"919 362 LINE",
"893 134 LINE",
"1029 134 LINE",
"1031 47 LINE",
"777 -15 LINE"
);
},
{
closed = 1;
nodes = (
"223 822 LINE",
"81 819 LINE",
"83 915 LINE",
"302 1002 LINE",
"347 1002 LINE",
"389 923 LINE",
"282 312 LINE SMOOTH",
"267 229 OFFCURVE",
"309 137 OFFCURVE",
"386 137 QCURVE SMOOTH",
"484 137 OFFCURVE",
"716 298 OFFCURVE",
"773 368 QCURVE",
"794 278 LINE",
"729 179 OFFCURVE",
"444 -7 OFFCURVE",
"326 -7 QCURVE SMOOTH",
"217 -7 OFFCURVE",
"84 135 OFFCURVE",
"112 272 QCURVE SMOOTH"
);
}
);
width = 1171;
}
);
unicode = 0075;
userData = {
com.typemytype.robofont.guideline.magnetic.qLVYXgNDL4 = 5;
};
},
{
glyphname = v;
layers = (
{
layerId = "363404A5-CC2E-4291-9CCC-B4D2C06AB158";
paths = (
{
closed = 1;
nodes = (
"36 915 LINE",
"255 1001 LINE",
"323 1001 LINE",
"373 556 LINE",
"420 157 LINE",
"738 559 OFFCURVE",
"769 786 OFFCURVE",
"709 843 QCURVE SMOOTH",
"660 890 OFFCURVE",
"654 978 OFFCURVE",
"684 1009 QCURVE SMOOTH",
"714 1040 OFFCURVE",
"813 1042 OFFCURVE",
"855 1004 QCURVE SMOOTH",
"935 931 OFFCURVE",
"870 549 OFFCURVE",
"405 -8 QCURVE",
"283 -8 LINE",
"217 500 LINE",
"176 821 LINE",
"34 818 LINE"
);
}
);
width = 979;
}
);
unicode = 0076;
},
{
glyphname = w;
layers = (
{
layerId = "363404A5-CC2E-4291-9CCC-B4D2C06AB158";
paths = (
{
closed = 1;
nodes = (
"36 919 LINE",
"247 1001 LINE",
"325 1001 LINE",
"367 538 LINE",
"414 170 LINE",
"526 344 OFFCURVE",
"637 519 OFFCURVE",
"747 695 QCURVE",
"821 606 LINE",
"683 401 OFFCURVE",
"545 195 OFFCURVE",
"405 -8 QCURVE",
"283 -8 LINE",
"219 486 LINE",
"176 822 LINE",
"34 822 LINE"
);
},
{
closed = 1;
nodes = (
"726 1001 LINE",
"804 1001 LINE",
"861 535 LINE",
"907 172 LINE",
"1277 740 OFFCURVE",
"1255 822 OFFCURVE",
"1220 845 QCURVE SMOOTH",
"1170 877 OFFCURVE",
"1139 923 OFFCURVE",
"1167 977 QCURVE SMOOTH",
"1197 1034 OFFCURVE",
"1310 1029 OFFCURVE",
"1373 980 QCURVE SMOOTH",
"1438 930 OFFCURVE",
"1402 711 OFFCURVE",
"901 -8 QCURVE",
"779 -8 LINE",
"701 520 LINE",
"633 864 LINE",
"606 881 LINE",
"596 950 LINE"
);
}
);
width = 1464;
}
);
unicode = 0077;
},
{
glyphname = x;
layers = (
{
layerId = "363404A5-CC2E-4291-9CCC-B4D2C06AB158";
paths = (
{
closed = 1;
nodes = (
"88 915 LINE",
"317 1004 LINE",
"390 985 LINE",
"532 571 LINE",
"699 134 LINE",
"838 134 LINE",
"838 46 LINE",
"636 -11 LINE",
"567 7 LINE",
"421 438 LINE",
"266 839 LINE",
"86 818 LINE"
);
},
{
closed = 1;
nodes = (
"-112 139 LINE",
"58 137 LINE SMOOTH",
"129 136 OFFCURVE",
"340 379 OFFCURVE",
"452 548 QCURVE SMOOTH",
"565 720 OFFCURVE",
"788 1002 OFFCURVE",
"877 1002 QCURVE SMOOTH",
"936 1002 OFFCURVE",
"1020 920 OFFCURVE",
"1020 853 QCURVE SMOOTH",
"1020 796 OFFCURVE",
"942 732 OFFCURVE",
"884 732 QCURVE",
"875 741 LINE",
"875 817 LINE",
"875 872 OFFCURVE",
"871 882 OFFCURVE",
"859 882 QCURVE SMOOTH",
"806 882 OFFCURVE",
"624 632 OFFCURVE",
"515 467 QCURVE SMOOTH",
"399 291 OFFCURVE",
"166 -12 OFFCURVE",
"57 -12 QCURVE",
"-125 44 LINE"
);
}
);
width = 930;
}
);
unicode = 0078;
},
{
glyphname = y;
layers = (
{
guideLines = (
{
angle = 79;
position = "{600, 1000}";
}
);
layerId = "363404A5-CC2E-4291-9CCC-B4D2C06AB158";
paths = (
{
closed = 1;
nodes = (
"-280 -304 LINE",
"-120 -304 LINE SMOOTH",
"16 -304 OFFCURVE",
"267 -157 OFFCURVE",
"350 -28 QCURVE SMOOTH",
"367 0 LINE",
"290 0 LINE",
"290 63 OFFCURVE",
"214 630 OFFCURVE",
"176 822 QCURVE",
"34 818 LINE",
"36 915 LINE",
"255 1001 LINE",
"323 1001 LINE",
"356 890 LINE",
"439 106 LINE",
"587 323 OFFCURVE",
"739 608 OFFCURVE",
"739 737 QCURVE SMOOTH",
"739 811 OFFCURVE",
"656 945 OFFCURVE",
"726 994 QCURVE SMOOTH",
"788 1037 OFFCURVE",
"922 935 OFFCURVE",
"922 832 QCURVE SMOOTH",
"922 727 OFFCURVE",
"683 270 OFFCURVE",
"474 -22 QCURVE SMOOTH",
"449 -57 LINE SMOOTH",
"321 -237 OFFCURVE",
"9 -464 OFFCURVE",
"-105 -464 QCURVE",
"-315 -405 LINE"
);
}
);
width = 995;
}
);
unicode = 0079;
userData = {
com.typemytype.robofont.guideline.magnetic.f21M5Ywg8X = 5;
};
},
{
glyphname = z;
layers = (
{
layerId = "363404A5-CC2E-4291-9CCC-B4D2C06AB158";
paths = (
{
closed = 1;
nodes = (
"-39 73 LINE",
"63 192 OFFCURVE",
"298 466 OFFCURVE",
"370 547 QCURVE SMOOTH",
"423 608 OFFCURVE",
"588 769 OFFCURVE",
"668 850 QCURVE",
"247 846 LINE",
"199 720 LINE",
"91 720 LINE",
"148 973 LINE",
"210 992 LINE",
"817 992 LINE",
"845 875 LINE",
"759 779 OFFCURVE",
"551 554 OFFCURVE",
"499 491 QCURVE SMOOTH",
"447 428 OFFCURVE",
"296 274 OFFCURVE",
"226 210 QCURVE",
"632 133 LINE",
"724 260 LINE",
"813 235 LINE",
"732 -10 LINE",
"695 -29 LINE",
"140 83 LINE",
"36 -10 LINE"
);
}
);
width = 885;
}
);
unicode = 007A;
},
{
glyphname = braceleft;
layers = (
{
layerId = "363404A5-CC2E-4291-9CCC-B4D2C06AB158";
paths = (
{
closed = 1;
nodes = (
"44 589 LINE",
"177 599 LINE SMOOTH",
"234 603 OFFCURVE",
"294 660 OFFCURVE",
"305 716 QCURVE SMOOTH",
"328 834 OFFCURVE",
"263 1066 OFFCURVE",
"286 1184 QCURVE SMOOTH",
"317 1343 OFFCURVE",
"521 1510 OFFCURVE",
"677 1510 QCURVE SMOOTH",
"748 1510 OFFCURVE",
"808 1503 OFFCURVE",
"845 1500 QCURVE",
"822 1386 LINE",
"771 1388 OFFCURVE",
"728 1388 OFFCURVE",
"679 1388 QCURVE SMOOTH",
"597 1388 OFFCURVE",
"488 1294 OFFCURVE",
"468 1196 QCURVE SMOOTH",
"449 1094 OFFCURVE",
"494 883 OFFCURVE",
"476 792 QCURVE SMOOTH",
"457 697 OFFCURVE",
"368 571 OFFCURVE",
"313 550 QCURVE",
"369 516 OFFCURVE",
"397 384 OFFCURVE",
"383 314 QCURVE SMOOTH",
"365 223 OFFCURVE",
"191 -78 OFFCURVE",
"171 -180 QCURVE SMOOTH",
"152 -278 OFFCURVE",
"229 -374 OFFCURVE",
"311 -374 QCURVE SMOOTH",
"360 -374 OFFCURVE",
"423 -374 OFFCURVE",
"476 -372 QCURVE",
"454 -484 LINE",
"416 -487 OFFCURVE",
"333 -495 OFFCURVE",
"262 -495 QCURVE SMOOTH",
"106 -495 OFFCURVE",
"-38 -327 OFFCURVE",
"-7 -168 QCURVE SMOOTH",
"16 -50 OFFCURVE",
"213 246 OFFCURVE",
"236 364 QCURVE",
"258 481 LINE",
"23 481 LINE"
);
}
);
width = 693;
}
);
unicode = 007B;
},
{
glyphname = bar;
layers = (
{
layerId = "363404A5-CC2E-4291-9CCC-B4D2C06AB158";
paths = (
{
closed = 1;
nodes = (
"78 -58 LINE",
"152 250 LINE",
"262 830 LINE",
"310 1138 LINE",
"365 1480 LINE",
"568 1550 LINE",
"476 1138 LINE",
"402 830 LINE",
"292 250 LINE",
"244 -58 LINE",
"176 -470 LINE",
"-28 -540 LINE"
);
}
);
width = 604;
}
);
unicode = 007C;
},
{
glyphname = braceright;
layers = (
{
layerId = "363404A5-CC2E-4291-9CCC-B4D2C06AB158";
paths = (
{
closed = 1;
nodes = (
"-187 -372 LINE",
"-136 -374 OFFCURVE",
"-93 -374 OFFCURVE",
"-44 -374 QCURVE SMOOTH",
"38 -374 OFFCURVE",
"153 -278 OFFCURVE",
"172 -180 QCURVE SMOOTH",
"192 -78 OFFCURVE",
"154 223 OFFCURVE",
"172 314 QCURVE SMOOTH",
"186 384 OFFCURVE",
"264 516 OFFCURVE",
"334 550 QCURVE",
"287 571 OFFCURVE",
"246 697 OFFCURVE",
"265 792 QCURVE SMOOTH",
"283 883 OFFCURVE",
"430 1094 OFFCURVE",
"449 1196 QCURVE SMOOTH",
"469 1294 OFFCURVE",
"396 1388 OFFCURVE",
"314 1388 QCURVE SMOOTH",
"265 1388 OFFCURVE",
"202 1388 OFFCURVE",
"149 1386 QCURVE",
"172 1500 LINE",
"209 1503 OFFCURVE",
"293 1510 OFFCURVE",
"364 1510 QCURVE SMOOTH",
"520 1510 OFFCURVE",
"658 1343 OFFCURVE",
"627 1184 QCURVE SMOOTH",
"604 1066 OFFCURVE",
"429 834 OFFCURVE",
"406 716 QCURVE",
"403 598 LINE",
"617 589 LINE",
"596 481 LINE",
"451 481 LINE SMOOTH",
"382 481 OFFCURVE",
"339 402 OFFCURVE",
"339 364 QCURVE SMOOTH",
"339 288 OFFCURVE",
"377 -50 OFFCURVE",
"354 -168 QCURVE SMOOTH",
"323 -327 OFFCURVE",
"115 -495 OFFCURVE",
"-41 -495 QCURVE SMOOTH",
"-112 -495 OFFCURVE",
"-173 -487 OFFCURVE",
"-209 -484 QCURVE"
);
}
);
width = 693;
}
);
unicode = 007D;
},
{
glyphname = asciitilde;
layers = (
{
layerId = "363404A5-CC2E-4291-9CCC-B4D2C06AB158";
paths = (
{
closed = 1;
nodes = (
"96 694 OFFCURVE",
"298 806 OFFCURVE",
"386 806 QCURVE",
"742 671 LINE",
"802 671 OFFCURVE",
"912 759 OFFCURVE",
"955 813 QCURVE",
"1035 761 LINE",
"965 657 OFFCURVE",
"793 516 OFFCURVE",
"661 516 QCURVE",
"326 643 LINE",
"265 643 OFFCURVE",
"138 589 OFFCURVE",
"71 537 QCURVE",
"16 601 LINE"
);
}
);
width = 1024;
}
);
unicode = 007E;
},
{
glyphname = exclamdown;
layers = (
{
layerId = "363404A5-CC2E-4291-9CCC-B4D2C06AB158";
paths = (
{
closed = 1;
nodes = (
"513 1157 OFFCURVE",
"436 1076 OFFCURVE",
"376 1076 QCURVE SMOOTH",
"317 1076 OFFCURVE",
"240 1157 OFFCURVE",
"240 1212 QCURVE SMOOTH",
"240 1266 OFFCURVE",
"317 1348 OFFCURVE",
"376 1348 QCURVE SMOOTH",
"436 1348 OFFCURVE",
"513 1266 OFFCURVE",
"513 1212 QCURVE SMOOTH"
);
},
{
closed = 1;
nodes = (
"208 -153 OFFCURVE",
"152 -240 OFFCURVE",
"97 -241 QCURVE SMOOTH",
"42 -242 OFFCURVE",
"16 -155 OFFCURVE",
"31 -86 QCURVE SMOOTH",
"103 228 LINE",
"187 536 LINE",
"271 901 LINE",
"363 886 LINE",
"307 536 LINE",
"269 228 LINE",
"219 -85 LINE SMOOTH"
);
}
);
width = 604;
}
);
unicode = 00A1;
},
{
glyphname = cent;
layers = (
{
layerId = "363404A5-CC2E-4291-9CCC-B4D2C06AB158";
paths = (
{
closed = 1;
nodes = (
"365 52 LINE",
"382 52 LINE",
"465 520 LINE",
"581 478 LINE",
"506 52 LINE",
"525 52 LINE",
"488 -160 LINE",
"319 -210 LINE"
);
},
{
closed = 1;
nodes = (
"728 1209 LINE",
"689 988 LINE",
"671 988 LINE",
"581 478 LINE",
"465 520 LINE",
"547 988 LINE",
"529 988 LINE",
"561 1170 LINE"
);
},
{
closed = 1;
nodes = (
"148 741 OFFCURVE",
"514 1031 OFFCURVE",
"672 1031 QCURVE SMOOTH",
"770 1031 OFFCURVE",
"927 942 OFFCURVE",
"927 871 QCURVE SMOOTH",
"927 762 OFFCURVE",
"830 644 OFFCURVE",
"769 636 QCURVE SMOOTH",
"761 635 LINE",
"761 840 LINE SMOOTH",
"761 865 OFFCURVE",
"697 902 OFFCURVE",
"643 902 QCURVE SMOOTH",
"506 902 OFFCURVE",
"288 696 OFFCURVE",
"240 484 QCURVE SMOOTH",
"206 335 OFFCURVE",
"310 108 OFFCURVE",
"463 108 QCURVE SMOOTH",
"578 108 OFFCURVE",
"759 224 OFFCURVE",
"821 313 QCURVE",
"879 249 LINE",
"879 220 LINE",
"815 134 OFFCURVE",
"549 -26 OFFCURVE",
"382 -19 QCURVE SMOOTH",
"210 -12 OFFCURVE",
"34 275 OFFCURVE",
"90 504 QCURVE SMOOTH"
);
}
);
width = 974;
}
);
unicode = 00A2;
},
{
glyphname = sterling;
layers = (
{
layerId = "363404A5-CC2E-4291-9CCC-B4D2C06AB158";
paths = (
{
closed = 1;
nodes = (
"199 707 LINE",
"903 707 LINE",
"883 581 LINE",
"183 581 LINE"
);
},
{
closed = 1;
nodes = (
"626 336 OFFCURVE",
"299 -13 OFFCURVE",
"116 -13 QCURVE SMOOTH",
"-11 -13 OFFCURVE",
"-145 107 OFFCURVE",
"-137 198 QCURVE SMOOTH",
"-127 309 OFFCURVE",
"48 410 OFFCURVE",
"142 410 QCURVE SMOOTH",
"229 410 OFFCURVE",
"388 337 OFFCURVE",
"457 282 QCURVE SMOOTH",
"525 228 OFFCURVE",
"718 141 OFFCURVE",
"756 141 QCURVE SMOOTH",
"826 141 OFFCURVE",
"941 187 OFFCURVE",
"1005 238 QCURVE",
"1052 160 LINE",
"1009 102 OFFCURVE",
"821 0 OFFCURVE",
"732 0 QCURVE SMOOTH",
"652 0 OFFCURVE",
"453 98 OFFCURVE",
"376 167 QCURVE SMOOTH",
"316 220 OFFCURVE",
"195 290 OFFCURVE",
"137 290 QCURVE SMOOTH",
"85 290 OFFCURVE",
"10 256 OFFCURVE",
"1 213 QCURVE SMOOTH",
"-10 160 OFFCURVE",
"63 96 OFFCURVE",
"104 96 QCURVE SMOOTH",
"267 96 OFFCURVE",
"452 341 OFFCURVE",
"452 483 QCURVE SMOOTH",
"452 584 OFFCURVE",
"369 749 OFFCURVE",
"327 808 QCURVE SMOOTH",
"287 862 OFFCURVE",
"210 1035 OFFCURVE",
"221 1166 QCURVE SMOOTH",
"233 1304 OFFCURVE",
"458 1501 OFFCURVE",
"651 1501 QCURVE SMOOTH",
"790 1501 OFFCURVE",
"1003 1403 OFFCURVE",
"1062 1342 QCURVE",
"967 1236 LINE",
"918 1292 OFFCURVE",
"782 1375 OFFCURVE",
"675 1377 QCURVE SMOOTH",
"559 1378 OFFCURVE",
"405 1246 OFFCURVE",
"397 1156 QCURVE SMOOTH",
"389 1065 OFFCURVE",
"450 947 OFFCURVE",
"501 875 QCURVE SMOOTH",
"555 798 OFFCURVE",
"626 633 OFFCURVE",
"626 523 QCURVE SMOOTH"
);
}
);
width = 1072;
}
);
unicode = 00A3;
},
{
glyphname = currency;
layers = (
{
layerId = "363404A5-CC2E-4291-9CCC-B4D2C06AB158";
paths = (
{
closed = 1;
nodes = (
"216 995 OFFCURVE",
"473 1270 OFFCURVE",
"682 1270 QCURVE SMOOTH",
"892 1270 OFFCURVE",
"1152 1013 OFFCURVE",
"1152 805 QCURVE SMOOTH",
"1152 611 OFFCURVE",
"896 330 OFFCURVE",
"688 330 QCURVE SMOOTH",
"478 330 OFFCURVE",
"216 590 OFFCURVE",
"216 800 QCURVE SMOOTH"
);
},
{
closed = 1;
nodes = (
"383 675 OFFCURVE",
"547 483 OFFCURVE",
"680 483 QCURVE SMOOTH",
"825 483 OFFCURVE",
"981 658 OFFCURVE",
"981 805 QCURVE SMOOTH",
"981 938 OFFCURVE",
"818 1112 OFFCURVE",
"682 1112 QCURVE SMOOTH",
"536 1112 OFFCURVE",
"381 953 OFFCURVE",
"382 815 QCURVE SMOOTH"
);
},
{
closed = 1;
nodes = (
"103 1288 LINE",
"216 1408 LINE",
"451 1173 LINE",
"338 1053 LINE"
);
},
{
closed = 1;
nodes = (
"933 1161 LINE",
"1168 1396 LINE",
"1282 1277 LINE",
"1047 1042 LINE"
);
},
{
closed = 1;
nodes = (
"460 413 LINE",
"225 178 LINE",
"112 298 LINE",
"347 533 LINE"
);
},
{
closed = 1;
nodes = (
"1266 309 LINE",
"1152 190 LINE",
"917 425 LINE",
"1031 544 LINE"
);
}
);
width = 1368;
}
);
unicode = 00A4;
},
{
glyphname = yen;
layers = (
{
layerId = "363404A5-CC2E-4291-9CCC-B4D2C06AB158";
paths = (
{
closed = 1;
nodes = (
"120 1500 LINE",
"598 1500 LINE",
"585 1386 LINE",
"429 1361 LINE",
"527 1055 LINE",
"623 781 LINE",
"836 1078 LINE",
"1033 1368 LINE",
"859 1386 LINE",
"872 1500 LINE",
"1334 1500 LINE",
"1321 1386 LINE",
"1173 1369 LINE",
"910 1011 LINE",
"655 652 LINE",
"556 125 LINE",
"743 100 LINE",
"734 0 LINE",
"192 0 LINE",
"201 100 LINE",
"399 125 LINE",
"501 647 LINE",
"391 976 LINE",
"249 1370 LINE",
"107 1386 LINE"
);
},
{
closed = 1;
nodes = (
"86 757 LINE",
"1050 757 LINE",
"1010 631 LINE",
"112 631 LINE"
);
},
{
closed = 1;
nodes = (
"126 457 LINE",
"990 457 LINE",
"950 331 LINE",
"152 331 LINE"
);
}
);
width = 1242;
}
);
unicode = 00A5;
},
{
glyphname = brokenbar;
layers = (
{
layerId = "363404A5-CC2E-4291-9CCC-B4D2C06AB158";
paths = (
{
closed = 1;
nodes = (
"296 1012 LINE",
"310 1138 LINE",
"365 1480 LINE",
"568 1550 LINE",
"476 1138 LINE",
"436 1012 LINE",
"392 795 LINE",
"252 795 LINE"
);
},
{
closed = 1;
nodes = (
"78 -58 LINE",
"124 100 LINE",
"165 317 LINE",
"305 317 LINE",
"264 100 LINE",
"244 -58 LINE",
"176 -470 LINE",
"-28 -540 LINE"
);
}
);
width = 604;
}
);
unicode = 00A6;
},
{
glyphname = section;
layers = (
{
layerId = "363404A5-CC2E-4291-9CCC-B4D2C06AB158";
paths = (
{
closed = 1;
nodes = (
"849 -35 OFFCURVE",
"596 -253 OFFCURVE",
"406 -253 QCURVE SMOOTH",
"218 -253 OFFCURVE",
"-24 -98 OFFCURVE",
"-24 1 QCURVE SMOOTH",
"-24 57 OFFCURVE",
"18 162 OFFCURVE",
"50 196 QCURVE",
"136 181 LINE",
"117 148 OFFCURVE",
"105 95 OFFCURVE",
"108 24 QCURVE SMOOTH",
"110 -37 OFFCURVE",
"256 -134 OFFCURVE",
"415 -134 QCURVE SMOOTH",
"550 -134 OFFCURVE",
"701 -9 OFFCURVE",
"720 95 QCURVE SMOOTH",
"742 220 OFFCURVE",
"598 330 OFFCURVE",
"441 401 QCURVE SMOOTH",
"291 469 OFFCURVE",
"136 673 OFFCURVE",
"161 815 QCURVE SMOOTH",
"176 899 OFFCURVE",
"281 1009 OFFCURVE",
"350 1049 QCURVE",
"315 1086 OFFCURVE",
"297 1179 OFFCURVE",
"307 1239 QCURVE SMOOTH",
"327 1349 OFFCURVE",
"545 1512 OFFCURVE",
"698 1512 QCURVE SMOOTH",
"821 1512 OFFCURVE",
"964 1411 OFFCURVE",
"964 1328 QCURVE SMOOTH",
"964 1283 OFFCURVE",
"921 1190 OFFCURVE",
"895 1169 QCURVE",
"802 1194 LINE",
"816 1221 OFFCURVE",
"833 1263 OFFCURVE",
"831 1302 QCURVE",
"831 1345 OFFCURVE",
"744 1401 OFFCURVE",
"662 1401 QCURVE SMOOTH",
"571 1401 OFFCURVE",
"475 1329 OFFCURVE",
"465 1270 QCURVE SMOOTH",
"454 1208 OFFCURVE",
"529 1141 OFFCURVE",
"678 1097 QCURVE SMOOTH",
"825 1054 OFFCURVE",
"985 912 OFFCURVE",
"959 767 QCURVE SMOOTH",
"942 668 OFFCURVE",
"796 516 OFFCURVE",
"687 485 QCURVE",
"790 430 OFFCURVE",
"902 268 OFFCURVE",
"879 137 QCURVE SMOOTH"
);
},
{
closed = 1;
nodes = (
"292 738 OFFCURVE",
"395 615 OFFCURVE",
"544 551 QCURVE",
"644 551 OFFCURVE",
"796 657 OFFCURVE",
"810 740 QCURVE SMOOTH",
"825 824 OFFCURVE",
"701 899 OFFCURVE",
"545 947 QCURVE SMOOTH",
"519 955 OFFCURVE",
"475 971 OFFCURVE",
"456 980 QCURVE",
"402 958 OFFCURVE",
"316 876 OFFCURVE",
"306 816 QCURVE SMOOTH"
);
}
);
width = 1061;
}
);
unicode = 00A7;
},
{
glyphname = dieresis;
layers = (
{
layerId = "363404A5-CC2E-4291-9CCC-B4D2C06AB158";
paths = (
{
closed = 1;
nodes = (
"774 1358 OFFCURVE",
"834 1417 OFFCURVE",
"890 1417 QCURVE SMOOTH",
"943 1417 OFFCURVE",
"1006 1354 OFFCURVE",
"1006 1303 QCURVE SMOOTH",
"1006 1249 OFFCURVE",
"947 1190 OFFCURVE",
"890 1190 QCURVE SMOOTH",
"837 1190 OFFCURVE",
"774 1252 OFFCURVE",
"774 1303 QCURVE SMOOTH"
);
},
{
closed = 1;
nodes = (
"314 1358 OFFCURVE",
"374 1417 OFFCURVE",
"430 1417 QCURVE SMOOTH",
"483 1417 OFFCURVE",
"546 1354 OFFCURVE",
"546 1303 QCURVE SMOOTH",
"546 1249 OFFCURVE",
"487 1190 OFFCURVE",
"430 1190 QCURVE SMOOTH",
"377 1190 OFFCURVE",
"314 1252 OFFCURVE",
"314 1303 QCURVE SMOOTH"
);
}
);
width = 1024;
}
);
unicode = 00A8;
},
{
glyphname = copyright;
layers = (
{
layerId = "363404A5-CC2E-4291-9CCC-B4D2C06AB158";
paths = (
{
closed = 1;
nodes = (
"549 901 OFFCURVE",
"810 1209 OFFCURVE",
"1036 1209 QCURVE SMOOTH",
"1099 1209 OFFCURVE",
"1220 1176 OFFCURVE",
"1250 1152 QCURVE",
"1282 1206 LINE",
"1370 1177 LINE",
"1386 851 LINE",
"1288 834 LINE",
"1239 1019 LINE",
"1197 1053 OFFCURVE",
"1094 1098 OFFCURVE",
"1037 1098 QCURVE SMOOTH",
"898 1098 OFFCURVE",
"729 898 OFFCURVE",
"729 704 QCURVE SMOOTH",
"729 502 OFFCURVE",
"929 295 OFFCURVE",
"1060 295 QCURVE SMOOTH",
"1179 295 OFFCURVE",
"1362 398 OFFCURVE",
"1410 455 QCURVE",
"1470 380 LINE",
"1408 287 OFFCURVE",
"1170 165 OFFCURVE",
"1060 165 QCURVE SMOOTH",
"829 165 OFFCURVE",
"549 433 OFFCURVE",
"549 662 QCURVE SMOOTH"
);
},
{
closed = 1;
nodes = (
"101 1061 OFFCURVE",
"622 1570 OFFCURVE",
"1026 1570 QCURVE SMOOTH",
"1428 1570 OFFCURVE",
"1947 1087 OFFCURVE",
"1947 706 QCURVE SMOOTH",
"1947 288 OFFCURVE",
"1435 -242 OFFCURVE",
"1038 -242 QCURVE SMOOTH",
"629 -242 OFFCURVE",
"101 276 OFFCURVE",
"101 685 QCURVE SMOOTH"
);
},
{
closed = 1;
nodes = (
"243 325 OFFCURVE",
"714 -141 OFFCURVE",
"1055 -141 QCURVE SMOOTH",
"1386 -141 OFFCURVE",
"1805 351 OFFCURVE",
"1805 699 QCURVE SMOOTH",
"1805 1017 OFFCURVE",
"1362 1469 OFFCURVE",
"1005 1469 QCURVE SMOOTH",
"668 1469 OFFCURVE",
"243 1008 OFFCURVE",
"243 682 QCURVE SMOOTH"
);
}
);
width = 2048;
}
);
unicode = 00A9;
},
{
glyphname = ordfeminine;
layers = (
{
layerId = "363404A5-CC2E-4291-9CCC-B4D2C06AB158";
paths = (
{
closed = 1;
nodes = (
"127 1115 OFFCURVE",
"480 1461 OFFCURVE",
"650 1461 QCURVE SMOOTH",
"665 1461 OFFCURVE",
"710 1451 OFFCURVE",
"726 1442 QCURVE",
"790 1499 LINE",
"827 1499 LINE",
"879 1391 LINE",
"778 974 LINE",
"739 787 LINE",
"772 702 LINE",
"639 681 LINE",
"584 805 LINE",
"307 680 LINE",
"212 680 OFFCURVE",
"127 797 OFFCURVE",
"127 882 QCURVE SMOOTH"
);
},
{
closed = 1;
nodes = (
"283 873 OFFCURVE",
"327 799 OFFCURVE",
"379 799 QCURVE SMOOTH",
"467 799 OFFCURVE",
"633 939 OFFCURVE",
"660 1071 QCURVE SMOOTH",
"705 1291 LINE",
"702 1321 OFFCURVE",
"645 1340 OFFCURVE",
"615 1340 QCURVE SMOOTH",
"465 1340 OFFCURVE",
"283 1103 OFFCURVE",
"283 928 QCURVE SMOOTH"
);
}
);
width = 833;
}
);
unicode = 00AA;
},
{
glyphname = logicalnot;
layers = (
{
layerId = "363404A5-CC2E-4291-9CCC-B4D2C06AB158";
paths = (
{
closed = 1;
nodes = (
"909 708 LINE",
"909 200 LINE",
"749 200 LINE",
"749 556 LINE",
"45 556 LINE",
"45 708 LINE"
);
}
);
width = 1024;
}
);
unicode = 00AC;
},
{
glyphname = registered;
layers = (
{
layerId = "363404A5-CC2E-4291-9CCC-B4D2C06AB158";
paths = (
{
closed = 1;
nodes = (
"101 1061 OFFCURVE",
"622 1570 OFFCURVE",
"1026 1570 QCURVE SMOOTH",
"1428 1570 OFFCURVE",
"1947 1087 OFFCURVE",
"1947 706 QCURVE SMOOTH",
"1947 288 OFFCURVE",
"1435 -242 OFFCURVE",
"1038 -242 QCURVE SMOOTH",
"629 -242 OFFCURVE",
"101 276 OFFCURVE",
"101 685 QCURVE SMOOTH"
);
},
{
closed = 1;
nodes = (
"243 325 OFFCURVE",
"714 -141 OFFCURVE",
"1055 -141 QCURVE SMOOTH",
"1386 -141 OFFCURVE",
"1805 351 OFFCURVE",
"1805 699 QCURVE SMOOTH",
"1805 1017 OFFCURVE",
"1362 1469 OFFCURVE",
"1005 1469 QCURVE SMOOTH",
"668 1469 OFFCURVE",
"243 1008 OFFCURVE",
"243 682 QCURVE SMOOTH"
);
},
{
closed = 1;
nodes = (
"585 266 LINE",
"702 290 LINE",
"713 723 LINE",
"702 1088 LINE",
"575 1111 LINE",
"575 1209 LINE",
"1048 1209 LINE SMOOTH",
"1206 1209 OFFCURVE",
"1359 1082 OFFCURVE",
"1359 968 QCURVE SMOOTH",
"1359 841 OFFCURVE",
"1172 664 OFFCURVE",
"1046 664 QCURVE SMOOTH",
"995 664 OFFCURVE",
"855 673 OFFCURVE",
"831 673 QCURVE",
"831 758 LINE",
"988 758 LINE SMOOTH",
"1107 758 OFFCURVE",
"1191 868 OFFCURVE",
"1191 959 QCURVE SMOOTH",
"1191 1039 OFFCURVE",
"1099 1108 OFFCURVE",
"996 1108 QCURVE SMOOTH",
"889 1108 LINE",
"868 1095 LINE",
"855 723 LINE",
"866 290 LINE",
"998 266 LINE",
"998 176 LINE",
"595 176 LINE"
);
},
{
closed = 1;
nodes = (
"1100 738 LINE",
"1350 393 LINE SMOOTH",
"1421 295 OFFCURVE",
"1516 266 OFFCURVE",
"1558 266 QCURVE",
"1558 176 LINE",
"1367 176 LINE",
"1325 190 LINE",
"949 710 LINE"
);
}
);
width = 2048;
}
);
unicode = 00AE;
},
{
glyphname = macron;
layers = (
{
layerId = "363404A5-CC2E-4291-9CCC-B4D2C06AB158";
paths = (
{
closed = 1;
nodes = (
"375 1349 LINE",
"967 1349 LINE",
"937 1202 LINE",
"345 1202 LINE"
);
}
);
width = 1024;
}
);
unicode = 00AF;
},
{
glyphname = degree;
layers = (
{
layerId = "363404A5-CC2E-4291-9CCC-B4D2C06AB158";
paths = (
{
closed = 1;
nodes = (
"234 1371 OFFCURVE",
"412 1560 OFFCURVE",
"551 1560 QCURVE SMOOTH",
"690 1560 OFFCURVE",
"868 1371 OFFCURVE",
"868 1243 QCURVE SMOOTH",
"868 1118 OFFCURVE",
"690 928 OFFCURVE",
"551 928 QCURVE SMOOTH",
"412 928 OFFCURVE",
"234 1118 OFFCURVE",
"234 1243 QCURVE SMOOTH"
);
},
{
closed = 1;
nodes = (
"355 1167 OFFCURVE",
"466 1049 OFFCURVE",
"551 1049 QCURVE SMOOTH",
"637 1049 OFFCURVE",
"747 1167 OFFCURVE",
"747 1243 QCURVE SMOOTH",
"747 1323 OFFCURVE",
"637 1439 OFFCURVE",
"551 1439 QCURVE SMOOTH",
"466 1439 OFFCURVE",
"355 1323 OFFCURVE",
"355 1243 QCURVE SMOOTH"
);
}
);
width = 882;
}
);
unicode = 00B0;
},
{
glyphname = plusminus;
layers = (
{
layerId = "363404A5-CC2E-4291-9CCC-B4D2C06AB158";
paths = (
{
closed = 1;
nodes = (
"60 708 LINE",
"924 708 LINE",
"924 556 LINE",
"60 556 LINE"
);
},
{
closed = 1;
nodes = (
"412 1064 LINE",
"572 1064 LINE",
"572 238 LINE",
"412 238 LINE"
);
},
{
closed = 1;
nodes = (
"60 171 LINE",
"924 171 LINE",
"924 26 LINE",
"60 26 LINE"
);
}
);
width = 1024;
}
);
unicode = 00B1;
},
{
glyphname = twosuperior;
layers = (
{
layerId = "363404A5-CC2E-4291-9CCC-B4D2C06AB158";
paths = (
{
closed = 1;
nodes = (
"126 786 LINE",
"208 830 LINE",
"495 1059 OFFCURVE",
"618 1239 OFFCURVE",
"618 1328 QCURVE SMOOTH",
"618 1368 OFFCURVE",
"553 1418 OFFCURVE",
"503 1418 QCURVE SMOOTH",
"446 1418 OFFCURVE",
"352 1383 OFFCURVE",
"309 1348 QCURVE",
"264 1407 LINE",
"307 1448 OFFCURVE",
"452 1524 OFFCURVE",
"553 1524 QCURVE SMOOTH",
"654 1524 OFFCURVE",
"767 1424 OFFCURVE",
"767 1340 QCURVE SMOOTH",
"767 1191 OFFCURVE",
"407 897 OFFCURVE",
"330 846 QCURVE",
"334 841 LINE",
"407 862 OFFCURVE",
"609 850 OFFCURVE",
"691 827 QCURVE",
"671 695 LINE",
"554 726 OFFCURVE",
"278 749 OFFCURVE",
"165 713 QCURVE"
);
}
);
width = 774;
}
);
unicode = 00B2;
},
{
glyphname = threesuperior;
layers = (
{
layerId = "363404A5-CC2E-4291-9CCC-B4D2C06AB158";
paths = (
{
closed = 1;
nodes = (
"112 776 OFFCURVE",
"165 842 OFFCURVE",
"206 857 QCURVE",
"243 812 LINE",
"243 804 LINE",
"226 797 OFFCURVE",
"203 770 OFFCURVE",
"203 739 QCURVE SMOOTH",
"203 706 OFFCURVE",
"276 672 OFFCURVE",
"346 672 QCURVE SMOOTH",
"431 672 OFFCURVE",
"572 777 OFFCURVE",
"572 905 QCURVE SMOOTH",
"572 1009 OFFCURVE",
"458 1086 OFFCURVE",
"363 1089 QCURVE SMOOTH",
"300 1087 LINE",
"313 1168 LINE",
"376 1170 LINE SMOOTH",
"457 1173 OFFCURVE",
"607 1267 OFFCURVE",
"607 1334 QCURVE SMOOTH",
"607 1381 OFFCURVE",
"526 1423 OFFCURVE",
"479 1423 QCURVE SMOOTH",
"419 1423 OFFCURVE",
"345 1382 OFFCURVE",
"317 1355 QCURVE",
"276 1409 LINE",
"318 1457 OFFCURVE",
"453 1526 OFFCURVE",
"532 1526 QCURVE SMOOTH",
"613 1526 OFFCURVE",
"736 1438 OFFCURVE",
"736 1362 QCURVE SMOOTH",
"736 1276 OFFCURVE",
"575 1154 OFFCURVE",
"499 1137 QCURVE",
"498 1133 LINE",
"576 1120 OFFCURVE",
"704 1016 OFFCURVE",
"704 904 QCURVE SMOOTH",
"704 771 OFFCURVE",
"477 583 OFFCURVE",
"348 583 QCURVE SMOOTH",
"244 583 OFFCURVE",
"112 666 OFFCURVE",
"112 730 QCURVE SMOOTH"
);
}
);
width = 774;
}
);
unicode = 00B3;
},
{
glyphname = acute;
layers = (
{
layerId = "363404A5-CC2E-4291-9CCC-B4D2C06AB158";
paths = (
{
closed = 1;
nodes = (
"519 1140 LINE",
"842 1318 LINE SMOOTH",
"891 1345 OFFCURVE",
"962 1408 OFFCURVE",
"962 1448 QCURVE SMOOTH",
"962 1488 OFFCURVE",
"912 1542 OFFCURVE",
"872 1542 QCURVE SMOOTH",
"832 1542 OFFCURVE",
"764 1496 OFFCURVE",
"720 1458 QCURVE SMOOTH",
"454 1226 LINE"
);
}
);
width = 1024;
}
);
unicode = 00B4;
},
{
glyphname = paragraph;
layers = (
{
layerId = "363404A5-CC2E-4291-9CCC-B4D2C06AB158";
paths = (
{
closed = 1;
nodes = (
"821 787 LINE",
"781 781 OFFCURVE",
"594 773 OFFCURVE",
"535 773 QCURVE SMOOTH",
"342 773 OFFCURVE",
"146 989 OFFCURVE",
"176 1155 QCURVE SMOOTH",
"206 1326 OFFCURVE",
"458 1500 OFFCURVE",
"650 1500 QCURVE SMOOTH",
"1277 1500 LINE",
"1257 1386 LINE",
"1050 1352 LINE",
"943 754 LINE",
"836 234 LINE",
"902 155 OFFCURVE",
"877 6 OFFCURVE",
"793 6 QCURVE SMOOTH",
"747 6 OFFCURVE",
"694 80 OFFCURVE",
"703 132 QCURVE SMOOTH"
);
},
{
closed = 1;
nodes = (
"551 842 LINE",
"685 849 LINE",
"576 263 LINE SMOOTH",
"533 30 OFFCURVE",
"330 -283 OFFCURVE",
"141 -283 QCURVE SMOOTH",
"44 -283 OFFCURVE",
"-56 -184 OFFCURVE",
"-56 -117 QCURVE SMOOTH",
"-56 -57 OFFCURVE",
"22 29 OFFCURVE",
"67 40 QCURVE",
"121 -4 LINE",
"121 -54 LINE",
"97 -54 OFFCURVE",
"70 -77 OFFCURVE",
"70 -99 QCURVE SMOOTH",
"70 -121 OFFCURVE",
"108 -159 OFFCURVE",
"154 -159 QCURVE SMOOTH",
"258 -159 OFFCURVE",
"396 17 OFFCURVE",
"433 220 QCURVE SMOOTH"
);
}
);
width = 1148;
}
);
unicode = 00B6;
},
{
glyphname = periodcentered;
layers = (
{
layerId = "363404A5-CC2E-4291-9CCC-B4D2C06AB158";
paths = (
{
closed = 1;
nodes = (
"217 886 OFFCURVE",
"294 968 OFFCURVE",
"354 968 QCURVE SMOOTH",
"414 968 OFFCURVE",
"491 886 OFFCURVE",
"491 831 QCURVE SMOOTH",
"491 777 OFFCURVE",
"414 695 OFFCURVE",
"354 695 QCURVE SMOOTH",
"294 695 OFFCURVE",
"217 777 OFFCURVE",
"217 831 QCURVE SMOOTH"
);
}
);
width = 656;
}
);
unicode = 00B7;
},
{
glyphname = cedilla;
layers = (
{
layerId = "363404A5-CC2E-4291-9CCC-B4D2C06AB158";
paths = (
{
closed = 1;
nodes = (
"402 -139 LINE",
"419 -135 OFFCURVE",
"469 -126 OFFCURVE",
"499 -126 QCURVE SMOOTH",
"579 -126 OFFCURVE",
"672 -234 OFFCURVE",
"653 -325 QCURVE SMOOTH",
"634 -416 OFFCURVE",
"479 -536 OFFCURVE",
"369 -536 QCURVE SMOOTH",
"289 -536 OFFCURVE",
"139 -490 OFFCURVE",
"87 -450 QCURVE",
"152 -341 LINE",
"179 -364 OFFCURVE",
"293 -412 OFFCURVE",
"351 -412 QCURVE SMOOTH",
"409 -412 OFFCURVE",
"483 -366 OFFCURVE",
"493 -316 QCURVE SMOOTH",
"503 -266 OFFCURVE",
"453 -226 OFFCURVE",
"401 -226 QCURVE SMOOTH",
"370 -226 OFFCURVE",
"319 -234 OFFCURVE",
"301 -240 QCURVE",
"249 -160 LINE",
"403 51 LINE",
"496 -4 LINE"
);
}
);
width = 1024;
}
);
unicode = 00B8;
},
{
glyphname = onesuperior;
layers = (
{
layerId = "363404A5-CC2E-4291-9CCC-B4D2C06AB158";
paths = (
{
closed = 1;
nodes = (
"297 749 OFFCURVE",
"329 934 OFFCURVE",
"346 1024 QCURVE SMOOTH",
"390 1265 LINE",
"406 1358 LINE",
"226 1273 LINE",
"181 1358 LINE",
"514 1529 LINE",
"581 1484 LINE",
"569 1456 OFFCURVE",
"548 1384 OFFCURVE",
"545 1372 QCURVE SMOOTH",
"484 1083 LINE",
"450 787 LINE",
"331 696 LINE",
"276 719 LINE"
);
}
);
width = 551;
}
);
unicode = 00B9;
},
{
glyphname = ordmasculine;
layers = (
{
layerId = "363404A5-CC2E-4291-9CCC-B4D2C06AB158";
paths = (
{
closed = 1;
nodes = (
"194 1280 OFFCURVE",
"463 1510 OFFCURVE",
"637 1499 QCURVE SMOOTH",
"810 1487 OFFCURVE",
"975 1245 OFFCURVE",
"933 1060 QCURVE SMOOTH",
"894 887 OFFCURVE",
"625 651 OFFCURVE",
"451 662 QCURVE SMOOTH",
"277 674 OFFCURVE",
"112 919 OFFCURVE",
"154 1106 QCURVE SMOOTH"
);
},
{
closed = 1;
nodes = (
"283 973 OFFCURVE",
"362 779 OFFCURVE",
"469 771 QCURVE SMOOTH",
"584 763 OFFCURVE",
"741 929 OFFCURVE",
"773 1071 QCURVE SMOOTH",
"803 1202 OFFCURVE",
"718 1378 OFFCURVE",
"611 1385 QCURVE SMOOTH",
"495 1393 OFFCURVE",
"343 1244 OFFCURVE",
"313 1108 QCURVE SMOOTH"
);
}
);
width = 903;
}
);
unicode = 00BA;
},
{
glyphname = questiondown;
layers = (
{
layerId = "363404A5-CC2E-4291-9CCC-B4D2C06AB158";
paths = (
{
closed = 1;
nodes = (
"745 -39 OFFCURVE",
"484 -222 OFFCURVE",
"280 -222 QCURVE SMOOTH",
"109 -222 OFFCURVE",
"-95 -57 OFFCURVE",
"-95 82 QCURVE SMOOTH",
"-95 226 OFFCURVE",
"93 457 OFFCURVE",
"309 601 QCURVE SMOOTH",
"382 650 OFFCURVE",
"511 741 OFFCURVE",
"533 816 QCURVE SMOOTH",
"559 903 LINE",
"659 903 LINE",
"648 819 LINE SMOOTH",
"638 745 OFFCURVE",
"501 576 OFFCURVE",
"386 496 QCURVE SMOOTH",
"248 400 OFFCURVE",
"91 213 OFFCURVE",
"91 105 QCURVE SMOOTH",
"91 13 OFFCURVE",
"217 -111 OFFCURVE",
"334 -111 QCURVE SMOOTH",
"456 -111 OFFCURVE",
"608 -4 OFFCURVE",
"618 49 QCURVE SMOOTH",
"624 78 OFFCURVE",
"524 134 OFFCURVE",
"531 183 QCURVE SMOOTH",
"536 223 OFFCURVE",
"600 287 OFFCURVE",
"660 287 QCURVE SMOOTH",
"726 287 OFFCURVE",
"791 194 OFFCURVE",
"773 104 QCURVE SMOOTH"
);
},
{
closed = 1;
nodes = (
"770 1159 OFFCURVE",
"693 1078 OFFCURVE",
"633 1078 QCURVE SMOOTH",
"574 1078 OFFCURVE",
"497 1159 OFFCURVE",
"497 1214 QCURVE SMOOTH",
"497 1268 OFFCURVE",
"574 1350 OFFCURVE",
"633 1350 QCURVE SMOOTH",
"693 1350 OFFCURVE",
"770 1268 OFFCURVE",
"770 1214 QCURVE SMOOTH"
);
}
);
width = 934;
}
);
unicode = 00BF;
},
{
glyphname = AE;
layers = (
{
layerId = "363404A5-CC2E-4291-9CCC-B4D2C06AB158";
paths = (
{
closed = 1;
nodes = (
"451 694 LINE",
"686 690 LINE",
"667 601 LINE",
"383 585 LINE"
);
},
{
closed = 1;
nodes = (
"971 698 LINE",
"950 599 LINE",
"667 601 LINE",
"686 690 LINE"
);
},
{
closed = 1;
nodes = (
"566 100 LINE",
"752 127 LINE",
"880 783 LINE",
"992 1374 LINE",
"596 1386 LINE",
"608 1500 LINE",
"1786 1500 LINE",
"1748 1152 LINE",
"1649 1152 LINE",
"1642 1382 LINE",
"1189 1382 LINE",
"1154 1362 LINE",
"1039 783 LINE",
"920 138 LINE",
"951 108 LINE",
"1471 108 LINE",
"1562 378 LINE",
"1662 378 LINE",
"1573 0 LINE",
"547 0 LINE"
);
},
{
closed = 1;
nodes = (
"979 844 LINE",
"1392 854 LINE",
"1448 1014 LINE",
"1558 1014 LINE",
"1473 578 LINE",
"1373 578 LINE",
"1380 738 LINE",
"960 768 LINE"
);
},
{
closed = 1;
nodes = (
"463 623 LINE",
"161 118 LINE",
"330 100 LINE",
"311 0 LINE",
"-178 0 LINE",
"-159 100 LINE",
"25 125 LINE",
"366 658 LINE",
"865 1421 LINE",
"975 1402 LINE"
);
}
);
width = 1749;
}
);
unicode = 00C6;
},
{
glyphname = multiply;
layers = (
{
layerId = "363404A5-CC2E-4291-9CCC-B4D2C06AB158";
paths = (
{
closed = 1;
nodes = (
"136 377 LINE",
"747 988 LINE",
"848 887 LINE",
"237 276 LINE"
);
},
{
closed = 1;
nodes = (
"131 882 LINE",
"242 993 LINE",
"853 382 LINE",
"742 271 LINE"
);
}
);
width = 1024;
}
);
unicode = 00D7;
},
{
glyphname = OE;
layers = (
{
layerId = "363404A5-CC2E-4291-9CCC-B4D2C06AB158";
paths = (
{
closed = 1;
nodes = (
"182 1172 OFFCURVE",
"686 1534 OFFCURVE",
"962 1519 QCURVE SMOOTH",
"1111 1511 OFFCURVE",
"1332 1500 OFFCURVE",
"1393 1500 QCURVE SMOOTH",
"1997 1500 LINE",
"1959 1152 LINE",
"1860 1152 LINE",
"1853 1382 LINE",
"1400 1382 LINE",
"1365 1362 LINE",
"1250 783 LINE",
"1136 177 LINE",
"1186 108 LINE",
"1682 108 LINE",
"1773 378 LINE",
"1873 378 LINE",
"1784 0 LINE",
"1049 0 LINE SMOOTH",
"956 0 OFFCURVE",
"676 -34 OFFCURVE",
"566 -17 QCURVE SMOOTH",
"281 27 OFFCURVE",
"9 508 OFFCURVE",
"97 846 QCURVE SMOOTH"
);
},
{
closed = 1;
nodes = (
"194 491 OFFCURVE",
"465 97 OFFCURVE",
"691 97 QCURVE SMOOTH",
"832 97 OFFCURVE",
"913 112 OFFCURVE",
"963 127 QCURVE",
"1091 783 LINE",
"1200 1363 LINE",
"1158 1370 OFFCURVE",
"1000 1386 OFFCURVE",
"965 1388 QCURVE SMOOTH",
"726 1401 OFFCURVE",
"362 1158 OFFCURVE",
"284 849 QCURVE SMOOTH"
);
},
{
closed = 1;
nodes = (
"1190 844 LINE",
"1611 854 LINE",
"1666 1003 LINE",
"1766 1003 LINE",
"1681 567 LINE",
"1581 567 LINE",
"1591 738 LINE",
"1171 768 LINE"
);
}
);
width = 2006;
}
);
unicode = 0152;
},
{
glyphname = Thorn;
layers = (
{
layerId = "363404A5-CC2E-4291-9CCC-B4D2C06AB158";
paths = (
{
closed = 1;
nodes = (
"728 1229 LINE SMOOTH",
"945 1229 OFFCURVE",
"1153 992 OFFCURVE",
"1111 780 QCURVE SMOOTH",
"1071 579 OFFCURVE",
"762 328 OFFCURVE",
"563 328 QCURVE SMOOTH",
"464 328 OFFCURVE",
"316 349 OFFCURVE",
"274 357 QCURVE",
"303 458 LINE",
"354 445 OFFCURVE",
"456 436 OFFCURVE",
"549 436 QCURVE SMOOTH",
"704 436 OFFCURVE",
"905 632 OFFCURVE",
"937 801 QCURVE SMOOTH",
"968 956 OFFCURVE",
"843 1111 OFFCURVE",
"698 1111 QCURVE SMOOTH",
"513 1111 LINE",
"487 1089 LINE",
"429 764 LINE",
"308 122 LINE",
"508 100 LINE",
"499 0 LINE",
"-61 0 LINE",
"-52 100 LINE",
"145 127 LINE",
"267 754 LINE",
"372 1362 LINE",
"189 1386 LINE",
"202 1500 LINE",
"763 1500 LINE",
"740 1386 LINE",
"546 1363 LINE",
"512 1229 LINE"
);
}
);
width = 1151;
}
);
unicode = 00DE;
},
{
glyphname = germandbls;
layers = (
{
layerId = "363404A5-CC2E-4291-9CCC-B4D2C06AB158";
paths = (
{
closed = 1;
nodes = (
"263 1177 LINE SMOOTH",
"299 1397 OFFCURVE",
"555 1567 OFFCURVE",
"684 1567 QCURVE SMOOTH",
"831 1567 OFFCURVE",
"1022 1422 OFFCURVE",
"1022 1283 QCURVE SMOOTH",
"1022 1146 OFFCURVE",
"873 969 OFFCURVE",
"795 937 QCURVE SMOOTH",
"723 908 OFFCURVE",
"620 852 OFFCURVE",
"620 798 QCURVE SMOOTH",
"620 746 OFFCURVE",
"715 666 OFFCURVE",
"815 609 QCURVE SMOOTH",
"912 554 OFFCURVE",
"1061 407 OFFCURVE",
"1062 294 QCURVE SMOOTH",
"1063 159 OFFCURVE",
"846 -15 OFFCURVE",
"674 -15 QCURVE SMOOTH",
"525 -15 OFFCURVE",
"371 127 OFFCURVE",
"371 210 QCURVE SMOOTH",
"371 290 OFFCURVE",
"456 380 OFFCURVE",
"513 380 QCURVE SMOOTH",
"539 380 LINE",
"539 195 LINE SMOOTH",
"539 148 OFFCURVE",
"610 98 OFFCURVE",
"691 98 QCURVE SMOOTH",
"787 98 OFFCURVE",
"914 187 OFFCURVE",
"914 261 QCURVE SMOOTH",
"914 327 OFFCURVE",
"805 437 OFFCURVE",
"713 486 QCURVE SMOOTH",
"594 550 OFFCURVE",
"484 679 OFFCURVE",
"485 766 QCURVE SMOOTH",
"486 871 OFFCURVE",
"639 980 OFFCURVE",
"722 1016 QCURVE SMOOTH",
"796 1048 OFFCURVE",
"873 1169 OFFCURVE",
"873 1242 QCURVE SMOOTH",
"873 1333 OFFCURVE",
"775 1441 OFFCURVE",
"675 1441 QCURVE SMOOTH",
"571 1441 OFFCURVE",
"448 1304 OFFCURVE",
"425 1162 QCURVE SMOOTH",
"246 82 LINE SMOOTH",
"207 -152 OFFCURVE",
"12 -449 OFFCURVE",
"-177 -449 QCURVE",
"-335 -399 LINE",
"-335 -305 LINE",
"-160 -303 LINE",
"-56 -303 OFFCURVE",
"42 -164 OFFCURVE",
"78 39 QCURVE"
);
}
);
width = 1086;
}
);
unicode = 00DF;
},
{
glyphname = ae;
layers = (
{
layerId = "363404A5-CC2E-4291-9CCC-B4D2C06AB158";
paths = (
{
closed = 1;
nodes = (
"40 548 OFFCURVE",
"474 991 OFFCURVE",
"684 991 QCURVE SMOOTH",
"702 991 OFFCURVE",
"757 978 OFFCURVE",
"777 967 QCURVE",
"856 1040 LINE",
"902 1040 LINE",
"965 901 LINE",
"1022 946 OFFCURVE",
"1184 1030 OFFCURVE",
"1325 1030 QCURVE SMOOTH",
"1424 1030 OFFCURVE",
"1546 928 OFFCURVE",
"1548 870 QCURVE SMOOTH",
"1550 817 OFFCURVE",
"1548 711 OFFCURVE",
"1545 674 QCURVE",
"1595 649 LINE",
"1557 551 LINE",
"1482 548 OFFCURVE",
"1319 546 OFFCURVE",
"1252 546 QCURVE SMOOTH",
"794 544 LINE",
"794 638 LINE",
"1304 646 LINE",
"1353 694 OFFCURVE",
"1382 774 OFFCURVE",
"1382 831 QCURVE SMOOTH",
"1382 862 OFFCURVE",
"1297 901 OFFCURVE",
"1254 901 QCURVE SMOOTH",
"1123 901 OFFCURVE",
"883 682 OFFCURVE",
"836 483 QCURVE SMOOTH",
"801 334 OFFCURVE",
"901 110 OFFCURVE",
"1037 112 QCURVE SMOOTH",
"1179 114 OFFCURVE",
"1353 208 OFFCURVE",
"1412 292 QCURVE",
"1470 292 LINE",
"1470 208 LINE",
"1400 120 OFFCURVE",
"1140 -30 OFFCURVE",
"973 -25 QCURVE SMOOTH",
"839 -21 OFFCURVE",
"700 123 OFFCURVE",
"684 213 QCURVE",
"590 102 OFFCURVE",
"369 -10 OFFCURVE",
"261 -10 QCURVE SMOOTH",
"144 -10 OFFCURVE",
"40 139 OFFCURVE",
"40 248 QCURVE SMOOTH"
);
},
{
closed = 1;
nodes = (
"205 225 OFFCURVE",
"269 127 OFFCURVE",
"338 127 QCURVE SMOOTH",
"456 127 OFFCURVE",
"658 351 OFFCURVE",
"695 491 QCURVE SMOOTH",
"773 786 LINE",
"770 826 OFFCURVE",
"694 852 OFFCURVE",
"653 852 QCURVE SMOOTH",
"453 852 OFFCURVE",
"205 533 OFFCURVE",
"205 300 QCURVE SMOOTH"
);
}
);
width = 1605;
}
);
unicode = 00E6;
},
{
glyphname = eth;
layers = (
{
layerId = "363404A5-CC2E-4291-9CCC-B4D2C06AB158";
paths = (
{
closed = 1;
nodes = (
"131 746 OFFCURVE",
"446 1041 OFFCURVE",
"663 1016 QCURVE SMOOTH",
"837 996 OFFCURVE",
"966 687 OFFCURVE",
"926 475 QCURVE",
"846 488 LINE",
"883 660 OFFCURVE",
"759 892 OFFCURVE",
"628 901 QCURVE SMOOTH",
"486 911 OFFCURVE",
"288 700 OFFCURVE",
"250 525 QCURVE SMOOTH",
"214 359 OFFCURVE",
"313 103 OFFCURVE",
"444 93 QCURVE SMOOTH",
"585 84 OFFCURVE",
"768 304 OFFCURVE",
"819 488 QCURVE SMOOTH",
"953 971 OFFCURVE",
"905 1379 OFFCURVE",
"799 1412 QCURVE SMOOTH",
"695 1444 OFFCURVE",
"483 1335 OFFCURVE",
"444 1283 QCURVE",
"398 1283 LINE",
"398 1400 LINE",
"454 1453 OFFCURVE",
"696 1557 OFFCURVE",
"848 1527 QCURVE SMOOTH",
"1011 1494 OFFCURVE",
"1134 1034 OFFCURVE",
"979 475 QCURVE SMOOTH",
"920 263 OFFCURVE",
"630 -30 OFFCURVE",
"428 -16 QCURVE SMOOTH",
"227 -2 OFFCURVE",
"36 301 OFFCURVE",
"85 532 QCURVE SMOOTH"
);
},
{
closed = 1;
nodes = (
"1151 1590 LINE",
"1205 1483 LINE",
"968 1310 LINE",
"736 1120 LINE",
"671 1224 LINE",
"919 1392 LINE"
);
}
);
width = 1066;
}
);
unicode = 00F0;
},
{
glyphname = divide;
layers = (
{
layerId = "363404A5-CC2E-4291-9CCC-B4D2C06AB158";
paths = (
{
closed = 1;
nodes = (
"60 708 LINE",
"924 708 LINE",
"924 556 LINE",
"60 556 LINE"
);
},
{
closed = 1;
nodes = (
"362 359 OFFCURVE",
"435 437 OFFCURVE",
"492 437 QCURVE SMOOTH",
"549 437 OFFCURVE",
"622 359 OFFCURVE",
"622 307 QCURVE SMOOTH",
"622 256 OFFCURVE",
"549 178 OFFCURVE",
"492 178 QCURVE SMOOTH",
"435 178 OFFCURVE",
"362 256 OFFCURVE",
"362 307 QCURVE SMOOTH"
);
},
{
closed = 1;
nodes = (
"362 1010 OFFCURVE",
"435 1088 OFFCURVE",
"492 1088 QCURVE SMOOTH",
"549 1088 OFFCURVE",
"622 1010 OFFCURVE",
"622 958 QCURVE SMOOTH",
"622 907 OFFCURVE",
"549 829 OFFCURVE",
"492 829 QCURVE SMOOTH",
"435 829 OFFCURVE",
"362 907 OFFCURVE",
"362 958 QCURVE SMOOTH"
);
}
);
width = 1024;
}
);
unicode = 00F7;
},
{
glyphname = oe;
layers = (
{
layerId = "363404A5-CC2E-4291-9CCC-B4D2C06AB158";
paths = (
{
closed = 1;
nodes = (
"128 746 OFFCURVE",
"456 1022 OFFCURVE",
"657 1016 QCURVE SMOOTH",
"783 1012 OFFCURVE",
"932 864 OFFCURVE",
"931 774 QCURVE",
"985 861 OFFCURVE",
"1275 1030 OFFCURVE",
"1430 1030 QCURVE SMOOTH",
"1522 1030 OFFCURVE",
"1651 922 OFFCURVE",
"1651 840 QCURVE SMOOTH",
"1651 784 OFFCURVE",
"1645 710 OFFCURVE",
"1638 674 QCURVE",
"1698 649 LINE",
"1660 551 LINE",
"1585 548 OFFCURVE",
"1424 546 OFFCURVE",
"1357 546 QCURVE SMOOTH",
"899 544 LINE",
"899 638 LINE",
"1469 646 LINE",
"1477 679 OFFCURVE",
"1487 744 OFFCURVE",
"1487 801 QCURVE SMOOTH",
"1487 846 OFFCURVE",
"1414 901 OFFCURVE",
"1359 901 QCURVE SMOOTH",
"1228 901 OFFCURVE",
"988 682 OFFCURVE",
"941 483 QCURVE SMOOTH",
"906 334 OFFCURVE",
"1014 120 OFFCURVE",
"1150 122 QCURVE SMOOTH",
"1292 124 OFFCURVE",
"1466 218 OFFCURVE",
"1525 302 QCURVE",
"1583 302 LINE",
"1583 218 LINE",
"1513 130 OFFCURVE",
"1253 -14 OFFCURVE",
"1086 -15 QCURVE SMOOTH",
"968 -16 OFFCURVE",
"805 104 OFFCURVE",
"800 185 QCURVE",
"767 124 OFFCURVE",
"532 -16 OFFCURVE",
"366 -16 QCURVE SMOOTH",
"166 -16 OFFCURVE",
"4 301 OFFCURVE",
"68 532 QCURVE SMOOTH"
);
},
{
closed = 1;
nodes = (
"188 359 OFFCURVE",
"269 103 OFFCURVE",
"399 93 QCURVE SMOOTH",
"540 84 OFFCURVE",
"745 301 OFFCURVE",
"796 488 QCURVE SMOOTH",
"844 660 OFFCURVE",
"755 892 OFFCURVE",
"625 901 QCURVE SMOOTH",
"483 911 OFFCURVE",
"284 715 OFFCURVE",
"236 537 QCURVE SMOOTH"
);
}
);
width = 1708;
}
);
unicode = 0153;
},
{
glyphname = thorn;
layers = (
{
layerId = "363404A5-CC2E-4291-9CCC-B4D2C06AB158";
paths = (
{
closed = 1;
nodes = (
"157 512 LINE",
"307 1410 LINE",
"203 1502 LINE",
"231 1574 LINE",
"412 1608 LINE",
"499 1538 LINE",
"372 830 LINE",
"459 901 OFFCURVE",
"675 1006 OFFCURVE",
"757 1006 QCURVE SMOOTH",
"874 1006 OFFCURVE",
"978 877 OFFCURVE",
"978 768 QCURVE SMOOTH",
"978 427 OFFCURVE",
"541 30 OFFCURVE",
"331 30 QCURVE SMOOTH",
"300 30 OFFCURVE",
"248 41 OFFCURVE",
"227 51 QCURVE",
"158 -316 LINE",
"283 -356 LINE",
"255 -428 LINE",
"74 -462 LINE",
"-13 -392 LINE"
);
},
{
closed = 1;
nodes = (
"256 208 OFFCURVE",
"313 169 OFFCURVE",
"362 169 QCURVE SMOOTH",
"561 169 OFFCURVE",
"809 477 OFFCURVE",
"809 716 QCURVE SMOOTH",
"809 791 OFFCURVE",
"748 858 OFFCURVE",
"679 858 QCURVE SMOOTH",
"603 858 OFFCURVE",
"419 756 OFFCURVE",
"346 691 QCURVE",
"309 494 LINE",
"267 269 LINE"
);
}
);
width = 1023;
}
);
unicode = 00FE;
},
{
glyphname = circumflex;
layers = (
{
layerId = "363404A5-CC2E-4291-9CCC-B4D2C06AB158";
paths = (
{
closed = 1;
nodes = (
"759 1531 OFFCURVE",
"797 1500 OFFCURVE",
"820 1458 QCURVE SMOOTH",
"972 1215 LINE",
"884 1142 LINE",
"694 1357 LINE",
"414 1142 LINE",
"346 1215 LINE",
"600 1458 LINE SMOOTH",
"651 1507 OFFCURVE",
"691 1531 OFFCURVE",
"725 1531 QCURVE SMOOTH"
);
}
);
width = 1024;
}
);
unicode = 02C6;
},
{
glyphname = caron;
layers = (
{
layerId = "363404A5-CC2E-4291-9CCC-B4D2C06AB158";
paths = (
{
closed = 1;
nodes = (
"631 1132 OFFCURVE",
"593 1163 OFFCURVE",
"571 1205 QCURVE SMOOTH",
"419 1448 LINE",
"500 1521 LINE",
"690 1306 LINE",
"970 1521 LINE",
"1045 1448 LINE",
"791 1205 LINE SMOOTH",
"739 1156 OFFCURVE",
"699 1132 OFFCURVE",
"665 1132 QCURVE SMOOTH"
);
}
);
width = 1024;
}
);
unicode = 02C7;
},
{
glyphname = breve;
layers = (
{
layerId = "363404A5-CC2E-4291-9CCC-B4D2C06AB158";
paths = (
{
closed = 1;
nodes = (
"1058 1439 LINE",
"1016 1341 OFFCURVE",
"786 1172 OFFCURVE",
"656 1172 QCURVE SMOOTH",
"526 1172 OFFCURVE",
"352 1326 OFFCURVE",
"349 1436 QCURVE",
"433 1493 LINE",
"452 1431 OFFCURVE",
"576 1328 OFFCURVE",
"672 1328 QCURVE SMOOTH",
"774 1328 OFFCURVE",
"942 1439 OFFCURVE",
"981 1492 QCURVE"
);
}
);
width = 1024;
}
);
unicode = 02D8;
},
{
glyphname = dotaccent;
layers = (
{
layerId = "363404A5-CC2E-4291-9CCC-B4D2C06AB158";
paths = (
{
closed = 1;
nodes = (
"541 1346 OFFCURVE",
"603 1407 OFFCURVE",
"662 1407 QCURVE SMOOTH",
"717 1407 OFFCURVE",
"783 1342 OFFCURVE",
"783 1289 QCURVE SMOOTH",
"783 1232 OFFCURVE",
"721 1171 OFFCURVE",
"662 1171 QCURVE SMOOTH",
"607 1171 OFFCURVE",
"541 1236 OFFCURVE",
"541 1289 QCURVE SMOOTH"
);
}
);
width = 1024;
}
);
unicode = 02D9;
},
{
glyphname = ring;
layers = (
{
layerId = "363404A5-CC2E-4291-9CCC-B4D2C06AB158";
paths = (
{
closed = 1;
nodes = (
"482 1438 OFFCURVE",
"622 1570 OFFCURVE",
"712 1570 QCURVE SMOOTH",
"802 1570 OFFCURVE",
"942 1438 OFFCURVE",
"942 1354 QCURVE SMOOTH",
"942 1270 OFFCURVE",
"802 1138 OFFCURVE",
"712 1138 QCURVE SMOOTH",
"622 1138 OFFCURVE",
"482 1270 OFFCURVE",
"482 1354 QCURVE SMOOTH"
);
},
{
closed = 1;
nodes = (
"603 1307 OFFCURVE",
"664 1247 OFFCURVE",
"712 1247 QCURVE SMOOTH",
"760 1247 OFFCURVE",
"821 1307 OFFCURVE",
"821 1354 QCURVE SMOOTH",
"821 1401 OFFCURVE",
"760 1461 OFFCURVE",
"712 1461 QCURVE SMOOTH",
"664 1461 OFFCURVE",
"603 1401 OFFCURVE",
"603 1354 QCURVE SMOOTH"
);
}
);
width = 1024;
}
);
unicode = 02DA;
},
{
glyphname = ogonek;
layers = (
{
layerId = "363404A5-CC2E-4291-9CCC-B4D2C06AB158";
paths = (
{
closed = 1;
nodes = (
"298 -292 OFFCURVE",
"347 -347 OFFCURVE",
"398 -347 QCURVE SMOOTH",
"450 -347 OFFCURVE",
"587 -301 OFFCURVE",
"659 -254 QCURVE",
"694 -357 LINE",
"628 -418 OFFCURVE",
"450 -497 OFFCURVE",
"350 -497 QCURVE SMOOTH",
"250 -497 OFFCURVE",
"133 -389 OFFCURVE",
"133 -306 QCURVE SMOOTH",
"133 -223 OFFCURVE",
"285 -45 OFFCURVE",
"368 8 QCURVE SMOOTH",
"435 51 LINE",
"529 0 LINE",
"477 -42 LINE SMOOTH",
"400 -104 OFFCURVE",
"317 -199 OFFCURVE",
"308 -244 QCURVE SMOOTH"
);
}
);
width = 1024;
}
);
unicode = 02DB;
},
{
glyphname = tilde;
layers = (
{
layerId = "363404A5-CC2E-4291-9CCC-B4D2C06AB158";
paths = (
{
closed = 1;
nodes = (
"318 1322 OFFCURVE",
"480 1427 OFFCURVE",
"551 1427 QCURVE SMOOTH",
"594 1427 OFFCURVE",
"663 1399 OFFCURVE",
"697 1373 QCURVE SMOOTH",
"721 1356 OFFCURVE",
"801 1304 OFFCURVE",
"844 1304 QCURVE SMOOTH",
"886 1304 OFFCURVE",
"976 1357 OFFCURVE",
"1008 1394 QCURVE",
"1076 1315 LINE",
"1021 1239 OFFCURVE",
"875 1157 OFFCURVE",
"817 1157 QCURVE SMOOTH",
"767 1157 OFFCURVE",
"677 1202 OFFCURVE",
"652 1222 QCURVE SMOOTH",
"623 1245 OFFCURVE",
"553 1280 OFFCURVE",
"523 1280 QCURVE SMOOTH",
"473 1280 OFFCURVE",
"368 1208 OFFCURVE",
"343 1180 QCURVE",
"270 1259 LINE"
);
}
);
width = 1024;
}
);
unicode = 02DC;
},
{
glyphname = hungarumlaut;
layers = (
{
layerId = "363404A5-CC2E-4291-9CCC-B4D2C06AB158";
paths = (
{
closed = 1;
nodes = (
"407 1136 LINE",
"661 1348 LINE SMOOTH",
"703 1382 OFFCURVE",
"763 1440 OFFCURVE",
"763 1476 QCURVE SMOOTH",
"763 1512 OFFCURVE",
"715 1554 OFFCURVE",
"679 1554 QCURVE SMOOTH",
"643 1554 OFFCURVE",
"587 1512 OFFCURVE",
"551 1470 QCURVE SMOOTH",
"333 1216 LINE"
);
},
{
closed = 1;
nodes = (
"797 1136 LINE",
"1054 1344 LINE SMOOTH",
"1096 1378 OFFCURVE",
"1163 1440 OFFCURVE",
"1163 1476 QCURVE SMOOTH",
"1163 1512 OFFCURVE",
"1115 1554 OFFCURVE",
"1079 1554 QCURVE SMOOTH",
"1043 1554 OFFCURVE",
"981 1508 OFFCURVE",
"944 1466 QCURVE SMOOTH",
"723 1216 LINE"
);
}
);
width = 1024;
}
);
unicode = 02DD;
},
{
glyphname = quoteleft;
layers = (
{
layerId = "363404A5-CC2E-4291-9CCC-B4D2C06AB158";
paths = (
{
closed = 1;
nodes = (
"516 1462 OFFCURVE",
"402 1344 OFFCURVE",
"382 1286 QCURVE",
"450 1286 OFFCURVE",
"526 1214 OFFCURVE",
"526 1158 QCURVE SMOOTH",
"526 1103 OFFCURVE",
"441 1022 OFFCURVE",
"381 1022 QCURVE SMOOTH",
"325 1022 OFFCURVE",
"239 1121 OFFCURVE",
"239 1201 QCURVE SMOOTH",
"239 1300 OFFCURVE",
"410 1496 OFFCURVE",
"508 1555 QCURVE",
"559 1493 LINE"
);
}
);
width = 584;
}
);
unicode = 2018;
},
{
glyphname = quoteright;
layers = (
{
layerId = "363404A5-CC2E-4291-9CCC-B4D2C06AB158";
paths = (
{
closed = 1;
nodes = (
"292 1105 OFFCURVE",
"406 1223 OFFCURVE",
"426 1281 QCURVE",
"358 1281 OFFCURVE",
"282 1353 OFFCURVE",
"282 1409 QCURVE SMOOTH",
"282 1464 OFFCURVE",
"367 1545 OFFCURVE",
"427 1545 QCURVE SMOOTH",
"483 1545 OFFCURVE",
"569 1446 OFFCURVE",
"569 1366 QCURVE SMOOTH",
"569 1267 OFFCURVE",
"398 1071 OFFCURVE",
"300 1012 QCURVE",
"249 1074 LINE"
);
}
);
width = 584;
}
);
unicode = 2019;
},
{
glyphname = minus;
layers = (
{
layerId = "363404A5-CC2E-4291-9CCC-B4D2C06AB158";
paths = (
{
closed = 1;
nodes = (
"60 708 LINE",
"924 708 LINE",
"924 556 LINE",
"60 556 LINE"
);
}
);
width = 1024;
}
);
unicode = 2212;
},
{
glyphname = Schwa;
layers = (
{
layerId = "363404A5-CC2E-4291-9CCC-B4D2C06AB158";
paths = (
{
closed = 1;
nodes = (
"260 1436 OFFCURVE",
"596 1560 OFFCURVE",
"798 1536 QCURVE SMOOTH",
"1066 1504 OFFCURVE",
"1308 997 OFFCURVE",
"1223 681 QCURVE SMOOTH",
"1136 355 OFFCURVE",
"599 -40 OFFCURVE",
"324 -3 QCURVE SMOOTH",
"174 17 OFFCURVE",
"-14 191 OFFCURVE",
"-14 327 QCURVE SMOOTH",
"-14 359 OFFCURVE",
"-9 422 OFFCURVE",
"-1 466 QCURVE",
"46 493 LINE",
"974 493 LINE",
"992 534 OFFCURVE",
"1023 627 OFFCURVE",
"1036 678 QCURVE SMOOTH",
"1109 968 OFFCURVE",
"945 1369 OFFCURVE",
"749 1399 QCURVE SMOOTH",
"558 1428 OFFCURVE",
"273 1305 OFFCURVE",
"183 1169 QCURVE",
"159 1183 LINE",
"136 1258 LINE"
);
},
{
closed = 1;
nodes = (
"544 107 OFFCURVE",
"816 229 OFFCURVE",
"912 377 QCURVE",
"521 384 LINE",
"260 378 LINE SMOOTH",
"204 377 OFFCURVE",
"170 318 OFFCURVE",
"188 256 QCURVE SMOOTH",
"207 192 OFFCURVE",
"335 139 OFFCURVE",
"387 131 QCURVE SMOOTH"
);
}
);
width = 1303;
}
);
unicode = 018F;
},
{
glyphname = Germandbls;
layers = (
{
layerId = "363404A5-CC2E-4291-9CCC-B4D2C06AB158";
paths = (
{
closed = 1;
nodes = (
"409 -448 LINE",
"-151 -448 LINE",
"-132 -348 LINE",
"55 -321 LINE",
"263 760 LINE",
"335 1138 LINE SMOOTH",
"365 1297 OFFCURVE",
"582 1546 OFFCURVE",
"772 1546 QCURVE SMOOTH",
"825 1546 OFFCURVE",
"947 1533 OFFCURVE",
"1016 1513 QCURVE",
"1077 1520 LINE",
"1093 1399 LINE",
"980 1399 OFFCURVE",
"830 1281 OFFCURVE",
"830 1190 QCURVE SMOOTH",
"830 1099 OFFCURVE",
"955 972 OFFCURVE",
"1100 866 QCURVE SMOOTH",
"1240 763 OFFCURVE",
"1373 559 OFFCURVE",
"1372 410 QCURVE SMOOTH",
"1371 233 OFFCURVE",
"1131 -13 OFFCURVE",
"910 -13 QCURVE SMOOTH",
"825 -13 OFFCURVE",
"638 51 OFFCURVE",
"573 102 QCURVE",
"514 7 LINE",
"424 25 LINE",
"489 434 LINE",
"593 434 LINE",
"593 324 LINE SMOOTH",
"593 241 OFFCURVE",
"755 116 OFFCURVE",
"930 116 QCURVE SMOOTH",
"1043 116 OFFCURVE",
"1212 251 OFFCURVE",
"1212 384 QCURVE SMOOTH",
"1212 476 OFFCURVE",
"1096 640 OFFCURVE",
"953 736 QCURVE SMOOTH",
"831 818 OFFCURVE",
"660 1017 OFFCURVE",
"660 1161 QCURVE SMOOTH",
"660 1238 OFFCURVE",
"725 1367 OFFCURVE",
"779 1414 QCURVE",
"667 1401 OFFCURVE",
"501 1219 OFFCURVE",
"480 1096 QCURVE SMOOTH",
"423 760 LINE",
"218 -326 LINE",
"428 -348 LINE"
);
}
);
width = 1407;
}
);
unicode = 1E9E;
},
{
glyphname = micro;
layers = (
{
layerId = "363404A5-CC2E-4291-9CCC-B4D2C06AB158";
paths = (
{
closed = 1;
nodes = (
"21 -295 LINE",
"49 -176 OFFCURVE",
"118 96 OFFCURVE",
"133 181 QCURVE SMOOTH",
"245 822 LINE",
"103 819 LINE",
"105 915 LINE",
"334 1002 LINE",
"379 1002 LINE",
"421 923 LINE",
"304 312 LINE SMOOTH",
"288 229 OFFCURVE",
"341 167 OFFCURVE",
"418 167 QCURVE SMOOTH",
"511 167 OFFCURVE",
"721 285 OFFCURVE",
"782 352 QCURVE",
"883 911 LINE",
"852 994 LINE",
"1016 1021 LINE",
"1058 942 LINE",
"941 362 LINE",
"915 134 LINE",
"1051 134 LINE",
"1053 47 LINE",
"799 -15 LINE",
"757 76 LINE",
"765 215 LINE",
"688 136 OFFCURVE",
"457 23 OFFCURVE",
"358 23 QCURVE SMOOTH",
"325 23 OFFCURVE",
"275 36 OFFCURVE",
"250 48 QCURVE",
"193 -274 LINE",
"339 -282 LINE",
"331 -371 LINE",
"8 -399 LINE",
"-15 -317 LINE"
);
}
);
width = 1198;
}
);
unicode = 00B5;
},
{
glyphname = idotless;
layers = (
{
guideLines = (
{
angle = 79;
position = "{380, 1000}";
}
);
layerId = "363404A5-CC2E-4291-9CCC-B4D2C06AB158";
paths = (
{
closed = 1;
nodes = (
"110 68 LINE",
"204 527 LINE",
"275 820 LINE",
"94 818 LINE",
"96 915 LINE",
"349 1014 LINE",
"419 1014 LINE",
"488 898 LINE",
"417 755 LINE",
"293 140 LINE",
"514 164 LINE",
"514 76 LINE",
"151 -21 LINE"
);
}
);
width = 556;
}
);
unicode = 0131;
userData = {
com.typemytype.robofont.guideline.magnetic.qoMhRnfvzs = 5;
};
},
{
glyphname = kgreenlandic;
layers = (
{
layerId = "363404A5-CC2E-4291-9CCC-B4D2C06AB158";
paths = (
{
closed = 1;
nodes = (
"183 527 LINE",
"235 820 LINE",
"93 816 LINE",
"92 915 LINE",
"314 1003 LINE",
"359 1001 LINE",
"412 930 LINE",
"352 588 LINE",
"256 87 LINE",
"287 4 LINE",
"122 -23 LINE",
"80 56 LINE"
);
},
{
closed = 1;
nodes = (
"885 862 LINE",
"582 601 LINE",
"883 133 LINE",
"1007 133 LINE",
"1007 45 LINE",
"772 -8 LINE SMOOTH",
"757 -11 OFFCURVE",
"743 7 OFFCURVE",
"697 115 QCURVE",
"454 507 LINE",
"298 404 LINE",
"254 462 LINE",
"761 865 LINE",
"766 894 LINE",
"654 917 LINE",
"665 1000 LINE",
"1021 1000 LINE",
"1006 908 LINE"
);
}
);
width = 1011;
}
);
unicode = 0138;
},
{
glyphname = jdotless;
layers = (
{
layerId = "363404A5-CC2E-4291-9CCC-B4D2C06AB158";
paths = (
{
closed = 1;
nodes = (
"171 306 OFFCURVE",
"255 651 OFFCURVE",
"272 822 QCURVE",
"121 818 LINE",
"123 915 LINE",
"352 1001 LINE",
"422 1001 LINE",
"491 885 LINE",
"430 742 LINE",
"313 132 LINE",
"274 -164 OFFCURVE",
"59 -464 OFFCURVE",
"-130 -464 QCURVE",
"-340 -425 LINE",
"-322 -318 LINE",
"-134 -320 LINE SMOOTH",
"-21 -321 OFFCURVE",
"159 -98 OFFCURVE",
"176 142 QCURVE",
"136 142 LINE",
"103 193 LINE"
);
}
);
width = 573;
}
);
unicode = 0237;
},
{
glyphname = schwa;
layers = (
{
layerId = "363404A5-CC2E-4291-9CCC-B4D2C06AB158";
paths = (
{
closed = 1;
nodes = (
"901 297 OFFCURVE",
"514 -32 OFFCURVE",
"305 -32 QCURVE SMOOTH",
"202 -32 OFFCURVE",
"94 66 OFFCURVE",
"82 128 QCURVE SMOOTH",
"72 181 OFFCURVE",
"85 287 OFFCURVE",
"104 326 QCURVE",
"35 349 LINE",
"73 447 LINE",
"130 444 OFFCURVE",
"341 445 OFFCURVE",
"408 452 QCURVE SMOOTH",
"826 494 LINE",
"826 400 LINE",
"244 335 LINE",
"234 304 OFFCURVE",
"224 248 OFFCURVE",
"224 205 QCURVE SMOOTH",
"224 157 OFFCURVE",
"305 97 OFFCURVE",
"376 97 QCURVE SMOOTH",
"507 97 OFFCURVE",
"747 316 OFFCURVE",
"794 515 QCURVE SMOOTH",
"829 664 OFFCURVE",
"729 888 OFFCURVE",
"593 886 QCURVE SMOOTH",
"451 884 OFFCURVE",
"277 790 OFFCURVE",
"218 706 QCURVE",
"160 706 LINE",
"160 790 LINE",
"230 878 OFFCURVE",
"490 1030 OFFCURVE",
"657 1023 QCURVE SMOOTH",
"829 1016 OFFCURVE",
"1004 724 OFFCURVE",
"949 495 QCURVE SMOOTH"
);
}
);
width = 994;
}
);
unicode = 0259;
},
{
glyphname = primemod;
layers = (
{
layerId = "363404A5-CC2E-4291-9CCC-B4D2C06AB158";
paths = (
{
closed = 1;
nodes = (
"563 1502 LINE",
"375 984 LINE",
"253 989 LINE",
"374 1502 LINE"
);
}
);
width = 600;
}
);
unicode = 02B9;
},
{
glyphname = doubleprimemod;
layers = (
{
layerId = "363404A5-CC2E-4291-9CCC-B4D2C06AB158";
paths = (
{
closed = 1;
nodes = (
"483 1502 LINE",
"284 985 LINE",
"162 990 LINE",
"294 1502 LINE"
);
},
{
closed = 1;
nodes = (
"783 1502 LINE",
"584 985 LINE",
"462 990 LINE",
"594 1502 LINE"
);
}
);
width = 788;
}
);
unicode = 02BA;
},
{
glyphname = apostrophemod;
layers = (
{
layerId = "363404A5-CC2E-4291-9CCC-B4D2C06AB158";
paths = (
{
closed = 1;
nodes = (
"292 1105 OFFCURVE",
"406 1223 OFFCURVE",
"426 1281 QCURVE",
"358 1281 OFFCURVE",
"282 1353 OFFCURVE",
"282 1409 QCURVE SMOOTH",
"282 1464 OFFCURVE",
"367 1545 OFFCURVE",
"427 1545 QCURVE SMOOTH",
"483 1545 OFFCURVE",
"569 1446 OFFCURVE",
"569 1366 QCURVE SMOOTH",
"569 1267 OFFCURVE",
"398 1071 OFFCURVE",
"300 1012 QCURVE",
"249 1074 LINE"
);
}
);
width = 584;
}
);
unicode = 02BC;
},
{
glyphname = foursuperior;
layers = (
{
layerId = "363404A5-CC2E-4291-9CCC-B4D2C06AB158";
paths = (
{
closed = 1;
nodes = (
"131 1027 LINE",
"649 1540 LINE",
"719 1516 LINE",
"729 1494 LINE",
"626 998 LINE",
"588 795 LINE",
"596 710 LINE",
"499 681 LINE",
"455 734 LINE",
"521 1011 LINE",
"592 1370 LINE",
"255 1039 LINE",
"258 1033 LINE",
"584 1028 LINE",
"783 1028 LINE",
"769 938 LINE",
"568 942 LINE",
"121 950 LINE"
);
}
);
width = 739;
}
);
unicode = 2074;
},
{
glyphname = hyphentwo;
layers = (
{
layerId = "363404A5-CC2E-4291-9CCC-B4D2C06AB158";
paths = (
{
closed = 1;
nodes = (
"80 708 LINE",
"370 704 LINE",
"659 708 LINE",
"659 556 LINE",
"370 560 LINE",
"80 556 LINE"
);
}
);
width = 739;
}
);
unicode = 2010;
},
{
glyphname = endash;
layers = (
{
layerId = "363404A5-CC2E-4291-9CCC-B4D2C06AB158";
paths = (
{
closed = 1;
nodes = (
"0 700 LINE",
"503 702 LINE",
"1024 700 LINE",
"1024 562 LINE",
"503 556 LINE",
"0 562 LINE"
);
}
);
width = 1024;
}
);
unicode = 2013;
},
{
glyphname = emdash;
layers = (
{
layerId = "363404A5-CC2E-4291-9CCC-B4D2C06AB158";
paths = (
{
closed = 1;
nodes = (
"256 700 LINE",
"1024 702 LINE",
"1792 700 LINE",
"1792 562 LINE",
"1024 556 LINE",
"256 562 LINE"
);
}
);
width = 2048;
}
);
unicode = 2014;
},
{
glyphname = horizontalbar;
layers = (
{
layerId = "363404A5-CC2E-4291-9CCC-B4D2C06AB158";
paths = (
{
closed = 1;
nodes = (
"43 636 LINE",
"83 782 LINE",
"377 782 LINE",
"689 782 LINE",
"660 636 LINE",
"305 636 LINE"
);
}
);
width = 656;
}
);
unicode = 2015;
},
{
glyphname = leftanglebracket;
layers = (
{
layerId = "363404A5-CC2E-4291-9CCC-B4D2C06AB158";
paths = (
{
closed = 1;
nodes = (
"1113 1440 LINE",
"195 710 LINE",
"830 -83 LINE",
"710 -177 LINE",
"24 622 LINE",
"24 801 LINE",
"1046 1518 LINE"
);
}
);
width = 983;
}
);
unicode = 27E8;
},
{
glyphname = rightanglebracket;
layers = (
{
layerId = "363404A5-CC2E-4291-9CCC-B4D2C06AB158";
paths = (
{
closed = 1;
nodes = (
"-166 -99 LINE",
"752 631 LINE",
"117 1424 LINE",
"237 1518 LINE",
"923 719 LINE",
"923 540 LINE",
"-99 -177 LINE"
);
}
);
width = 983;
}
);
unicode = 27E9;
},
{
glyphname = perthousand;
layers = (
{
layerId = "363404A5-CC2E-4291-9CCC-B4D2C06AB158";
paths = (
{
closed = 1;
nodes = (
"188 1263 OFFCURVE",
"449 1532 OFFCURVE",
"618 1532 QCURVE SMOOTH",
"788 1532 OFFCURVE",
"950 1281 OFFCURVE",
"910 1077 QCURVE SMOOTH",
"873 886 OFFCURVE",
"613 611 OFFCURVE",
"444 611 QCURVE SMOOTH",
"274 611 OFFCURVE",
"111 866 OFFCURVE",
"151 1071 QCURVE SMOOTH"
);
},
{
closed = 1;
nodes = (
"290 937 OFFCURVE",
"364 727 OFFCURVE",
"460 727 QCURVE SMOOTH",
"563 727 OFFCURVE",
"709 918 OFFCURVE",
"740 1077 QCURVE SMOOTH",
"768 1222 OFFCURVE",
"691 1412 OFFCURVE",
"594 1412 QCURVE SMOOTH",
"491 1412 OFFCURVE",
"348 1239 OFFCURVE",
"319 1088 QCURVE SMOOTH"
);
},
{
closed = 1;
nodes = (
"1475 1529 LINE",
"1577 1464 LINE",
"498 -40 LINE",
"396 25 LINE"
);
},
{
closed = 1;
nodes = (
"1102 632 OFFCURVE",
"1362 901 OFFCURVE",
"1531 901 QCURVE SMOOTH",
"1701 901 OFFCURVE",
"1863 650 OFFCURVE",
"1824 446 QCURVE SMOOTH",
"1786 255 OFFCURVE",
"1526 -20 OFFCURVE",
"1357 -20 QCURVE SMOOTH",
"1187 -20 OFFCURVE",
"1025 235 OFFCURVE",
"1064 440 QCURVE SMOOTH"
);
},
{
closed = 1;
nodes = (
"1203 306 OFFCURVE",
"1278 96 OFFCURVE",
"1374 96 QCURVE SMOOTH",
"1476 96 OFFCURVE",
"1623 287 OFFCURVE",
"1654 446 QCURVE SMOOTH",
"1682 591 OFFCURVE",
"1605 781 OFFCURVE",
"1508 781 QCURVE SMOOTH",
"1404 781 OFFCURVE",
"1261 608 OFFCURVE",
"1233 457 QCURVE SMOOTH"
);
},
{
closed = 1;
nodes = (
"1982 632 OFFCURVE",
"2242 901 OFFCURVE",
"2411 901 QCURVE SMOOTH",
"2581 901 OFFCURVE",
"2743 650 OFFCURVE",
"2704 446 QCURVE SMOOTH",
"2666 255 OFFCURVE",
"2406 -20 OFFCURVE",
"2237 -20 QCURVE SMOOTH",
"2067 -20 OFFCURVE",
"1905 235 OFFCURVE",
"1944 440 QCURVE SMOOTH"
);
},
{
closed = 1;
nodes = (
"2083 306 OFFCURVE",
"2158 96 OFFCURVE",
"2254 96 QCURVE SMOOTH",
"2356 96 OFFCURVE",
"2503 287 OFFCURVE",
"2534 446 QCURVE SMOOTH",
"2562 591 OFFCURVE",
"2485 781 OFFCURVE",
"2388 781 QCURVE SMOOTH",
"2284 781 OFFCURVE",
"2141 608 OFFCURVE",
"2113 457 QCURVE SMOOTH"
);
}
);
width = 2823;
}
);
unicode = 2030;
},
{
glyphname = quotedblleft;
layers = (
{
layerId = "363404A5-CC2E-4291-9CCC-B4D2C06AB158";
paths = (
{
closed = 1;
nodes = (
"516 1462 OFFCURVE",
"402 1344 OFFCURVE",
"382 1286 QCURVE",
"450 1286 OFFCURVE",
"526 1214 OFFCURVE",
"526 1158 QCURVE SMOOTH",
"526 1103 OFFCURVE",
"441 1022 OFFCURVE",
"381 1022 QCURVE SMOOTH",
"325 1022 OFFCURVE",
"239 1121 OFFCURVE",
"239 1201 QCURVE SMOOTH",
"239 1300 OFFCURVE",
"410 1496 OFFCURVE",
"508 1555 QCURVE",
"559 1493 LINE"
);
},
{
closed = 1;
nodes = (
"932 1462 OFFCURVE",
"818 1344 OFFCURVE",
"798 1286 QCURVE",
"866 1286 OFFCURVE",
"942 1214 OFFCURVE",
"942 1158 QCURVE SMOOTH",
"942 1103 OFFCURVE",
"857 1022 OFFCURVE",
"797 1022 QCURVE SMOOTH",
"741 1022 OFFCURVE",
"655 1121 OFFCURVE",
"655 1201 QCURVE SMOOTH",
"655 1300 OFFCURVE",
"826 1496 OFFCURVE",
"924 1555 QCURVE",
"975 1493 LINE"
);
}
);
width = 994;
}
);
unicode = 201C;
},
{
glyphname = quotedblright;
layers = (
{
layerId = "363404A5-CC2E-4291-9CCC-B4D2C06AB158";
paths = (
{
closed = 1;
nodes = (
"702 1105 OFFCURVE",
"816 1223 OFFCURVE",
"836 1281 QCURVE",
"768 1281 OFFCURVE",
"692 1353 OFFCURVE",
"692 1409 QCURVE SMOOTH",
"692 1464 OFFCURVE",
"777 1545 OFFCURVE",
"837 1545 QCURVE SMOOTH",
"893 1545 OFFCURVE",
"979 1446 OFFCURVE",
"979 1366 QCURVE SMOOTH",
"979 1267 OFFCURVE",
"808 1071 OFFCURVE",
"710 1012 QCURVE",
"659 1074 LINE"
);
},
{
closed = 1;
nodes = (
"292 1105 OFFCURVE",
"406 1223 OFFCURVE",
"426 1281 QCURVE",
"358 1281 OFFCURVE",
"282 1353 OFFCURVE",
"282 1409 QCURVE SMOOTH",
"282 1464 OFFCURVE",
"367 1545 OFFCURVE",
"427 1545 QCURVE SMOOTH",
"483 1545 OFFCURVE",
"569 1446 OFFCURVE",
"569 1366 QCURVE SMOOTH",
"569 1267 OFFCURVE",
"398 1071 OFFCURVE",
"300 1012 QCURVE",
"249 1074 LINE"
);
}
);
width = 994;
}
);
unicode = 201D;
},
{
glyphname = quotesinglbase;
layers = (
{
layerId = "363404A5-CC2E-4291-9CCC-B4D2C06AB158";
paths = (
{
closed = 1;
nodes = (
"62 -195 OFFCURVE",
"176 -77 OFFCURVE",
"196 -19 QCURVE",
"128 -19 OFFCURVE",
"52 53 OFFCURVE",
"52 109 QCURVE SMOOTH",
"52 164 OFFCURVE",
"137 245 OFFCURVE",
"197 245 QCURVE SMOOTH",
"253 245 OFFCURVE",
"339 146 OFFCURVE",
"339 66 QCURVE SMOOTH",
"339 -33 OFFCURVE",
"168 -229 OFFCURVE",
"70 -288 QCURVE",
"19 -226 LINE"
);
}
);
width = 584;
}
);
unicode = 201A;
},
{
glyphname = quotedblbase;
layers = (
{
layerId = "363404A5-CC2E-4291-9CCC-B4D2C06AB158";
paths = (
{
closed = 1;
nodes = (
"472 -175 OFFCURVE",
"586 -57 OFFCURVE",
"606 1 QCURVE",
"538 1 OFFCURVE",
"462 73 OFFCURVE",
"462 129 QCURVE SMOOTH",
"462 184 OFFCURVE",
"547 265 OFFCURVE",
"607 265 QCURVE SMOOTH",
"663 265 OFFCURVE",
"749 166 OFFCURVE",
"749 86 QCURVE SMOOTH",
"749 -13 OFFCURVE",
"578 -209 OFFCURVE",
"480 -268 QCURVE",
"429 -206 LINE"
);
},
{
closed = 1;
nodes = (
"62 -175 OFFCURVE",
"176 -57 OFFCURVE",
"196 1 QCURVE",
"128 1 OFFCURVE",
"52 73 OFFCURVE",
"52 129 QCURVE SMOOTH",
"52 184 OFFCURVE",
"137 265 OFFCURVE",
"197 265 QCURVE SMOOTH",
"253 265 OFFCURVE",
"339 166 OFFCURVE",
"339 86 QCURVE SMOOTH",
"339 -13 OFFCURVE",
"168 -209 OFFCURVE",
"70 -268 QCURVE",
"19 -206 LINE"
);
}
);
width = 994;
}
);
unicode = 201E;
},
{
glyphname = guilsinglleft;
layers = (
{
layerId = "363404A5-CC2E-4291-9CCC-B4D2C06AB158";
paths = (
{
closed = 1;
nodes = (
"29 624 OFFCURVE",
"634 953 OFFCURVE",
"713 993 QCURVE SMOOTH",
"778 1026 OFFCURVE",
"833 914 OFFCURVE",
"773 879 QCURVE SMOOTH",
"608 783 OFFCURVE",
"278 598 OFFCURVE",
"278 598 QCURVE",
"278 598 OFFCURVE",
"563 371 OFFCURVE",
"644 307 QCURVE SMOOTH",
"700 263 OFFCURVE",
"624 175 OFFCURVE",
"559 213 QCURVE SMOOTH",
"499 247 OFFCURVE",
"87 536 OFFCURVE",
"21 584 QCURVE",
"29 624 LINE"
);
}
);
width = 847;
}
);
unicode = 2039;
},
{
glyphname = guilsinglright;
layers = (
{
layerId = "363404A5-CC2E-4291-9CCC-B4D2C06AB158";
paths = (
{
closed = 1;
nodes = (
"805 577 OFFCURVE",
"200 248 OFFCURVE",
"121 208 QCURVE SMOOTH",
"56 175 OFFCURVE",
"1 287 OFFCURVE",
"61 322 QCURVE SMOOTH",
"226 418 OFFCURVE",
"556 603 OFFCURVE",
"556 603 QCURVE",
"556 603 OFFCURVE",
"271 830 OFFCURVE",
"190 894 QCURVE SMOOTH",
"134 938 OFFCURVE",
"210 1026 OFFCURVE",
"275 988 QCURVE SMOOTH",
"335 954 OFFCURVE",
"747 665 OFFCURVE",
"813 617 QCURVE",
"805 577 LINE"
);
}
);
width = 847;
}
);
unicode = 203A;
},
{
glyphname = guillemetleft;
layers = (
{
layerId = "363404A5-CC2E-4291-9CCC-B4D2C06AB158";
paths = (
{
closed = 1;
nodes = (
"49 624 OFFCURVE",
"634 953 OFFCURVE",
"713 993 QCURVE SMOOTH",
"778 1026 OFFCURVE",
"833 914 OFFCURVE",
"773 879 QCURVE SMOOTH",
"608 783 OFFCURVE",
"278 598 OFFCURVE",
"278 598 QCURVE",
"278 598 OFFCURVE",
"563 371 OFFCURVE",
"644 307 QCURVE SMOOTH",
"700 263 OFFCURVE",
"624 175 OFFCURVE",
"559 213 QCURVE SMOOTH",
"499 247 OFFCURVE",
"107 536 OFFCURVE",
"41 584 QCURVE",
"49 624 LINE"
);
},
{
closed = 1;
nodes = (
"527 605 OFFCURVE",
"1112 934 OFFCURVE",
"1191 974 QCURVE SMOOTH",
"1256 1007 OFFCURVE",
"1311 895 OFFCURVE",
"1251 860 QCURVE SMOOTH",
"1086 764 OFFCURVE",
"756 579 OFFCURVE",
"756 579 QCURVE",
"756 579 OFFCURVE",
"1023 371 OFFCURVE",
"1104 307 QCURVE SMOOTH",
"1160 263 OFFCURVE",
"1084 175 OFFCURVE",
"1019 213 QCURVE SMOOTH",
"959 247 OFFCURVE",
"585 517 OFFCURVE",
"519 565 QCURVE",
"527 605 LINE"
);
}
);
width = 1295;
}
);
unicode = 00AB;
},
{
glyphname = guillemetright;
layers = (
{
layerId = "363404A5-CC2E-4291-9CCC-B4D2C06AB158";
paths = (
{
closed = 1;
nodes = (
"775 586 OFFCURVE",
"190 257 OFFCURVE",
"111 217 QCURVE SMOOTH",
"46 184 OFFCURVE",
"-9 296 OFFCURVE",
"51 331 QCURVE SMOOTH",
"216 427 OFFCURVE",
"546 612 OFFCURVE",
"546 612 QCURVE",
"546 612 OFFCURVE",
"279 820 OFFCURVE",
"198 884 QCURVE SMOOTH",
"142 928 OFFCURVE",
"218 1016 OFFCURVE",
"283 978 QCURVE SMOOTH",
"343 944 OFFCURVE",
"717 674 OFFCURVE",
"783 626 QCURVE",
"775 586 LINE"
);
},
{
closed = 1;
nodes = (
"1253 567 OFFCURVE",
"668 238 OFFCURVE",
"589 198 QCURVE SMOOTH",
"524 165 OFFCURVE",
"469 277 OFFCURVE",
"529 312 QCURVE SMOOTH",
"694 408 OFFCURVE",
"1024 593 OFFCURVE",
"1024 593 QCURVE",
"1024 593 OFFCURVE",
"739 820 OFFCURVE",
"658 884 QCURVE SMOOTH",
"602 928 OFFCURVE",
"678 1016 OFFCURVE",
"743 978 QCURVE SMOOTH",
"803 944 OFFCURVE",
"1195 655 OFFCURVE",
"1261 607 QCURVE",
"1253 567 LINE"
);
}
);
width = 1295;
}
);
unicode = 00BB;
},
{
glyphname = dagger;
layers = (
{
layerId = "363404A5-CC2E-4291-9CCC-B4D2C06AB158";
paths = (
{
closed = 1;
nodes = (
"258 -58 LINE",
"389 550 LINE",
"436 830 LINE",
"511 1438 LINE",
"573 1503 LINE",
"653 1506 LINE",
"687 1438 LINE",
"556 830 LINE",
"509 550 LINE",
"424 -58 LINE",
"271 -540 LINE",
"251 -540 LINE"
);
},
{
closed = 1;
nodes = (
"92 1000 LINE",
"495 992 LINE",
"916 1000 LINE",
"916 852 LINE",
"495 856 LINE",
"92 852 LINE"
);
}
);
width = 968;
}
);
unicode = 2020;
},
{
glyphname = daggerdbl;
layers = (
{
layerId = "363404A5-CC2E-4291-9CCC-B4D2C06AB158";
paths = (
{
closed = 1;
nodes = (
"278 -58 LINE",
"409 550 LINE",
"456 830 LINE",
"531 1438 LINE",
"593 1503 LINE",
"673 1506 LINE",
"707 1438 LINE",
"576 830 LINE",
"529 550 LINE",
"444 -58 LINE",
"291 -540 LINE",
"271 -540 LINE"
);
},
{
closed = 1;
nodes = (
"124 1000 LINE",
"527 992 LINE",
"948 1000 LINE",
"948 852 LINE",
"527 856 LINE",
"124 852 LINE"
);
},
{
closed = 1;
nodes = (
"48 571 LINE",
"451 563 LINE",
"872 571 LINE",
"872 423 LINE",
"451 427 LINE",
"48 423 LINE"
);
}
);
width = 996;
}
);
unicode = 2021;
},
{
glyphname = ellipsis;
layers = (
{
layerId = "363404A5-CC2E-4291-9CCC-B4D2C06AB158";
paths = (
{
closed = 1;
nodes = (
"55 176 OFFCURVE",
"132 258 OFFCURVE",
"192 258 QCURVE SMOOTH",
"252 258 OFFCURVE",
"329 176 OFFCURVE",
"329 121 QCURVE SMOOTH",
"329 67 OFFCURVE",
"252 -15 OFFCURVE",
"192 -15 QCURVE SMOOTH",
"132 -15 OFFCURVE",
"55 67 OFFCURVE",
"55 121 QCURVE SMOOTH"
);
},
{
closed = 1;
nodes = (
"1183 176 OFFCURVE",
"1260 258 OFFCURVE",
"1320 258 QCURVE SMOOTH",
"1380 258 OFFCURVE",
"1457 176 OFFCURVE",
"1457 121 QCURVE SMOOTH",
"1457 67 OFFCURVE",
"1380 -15 OFFCURVE",
"1320 -15 QCURVE SMOOTH",
"1260 -15 OFFCURVE",
"1183 67 OFFCURVE",
"1183 121 QCURVE SMOOTH"
);
},
{
closed = 1;
nodes = (
"619 176 OFFCURVE",
"696 258 OFFCURVE",
"756 258 QCURVE SMOOTH",
"816 258 OFFCURVE",
"893 176 OFFCURVE",
"893 121 QCURVE SMOOTH",
"893 67 OFFCURVE",
"816 -15 OFFCURVE",
"756 -15 QCURVE SMOOTH",
"696 -15 OFFCURVE",
"619 67 OFFCURVE",
"619 121 QCURVE SMOOTH"
);
}
);
width = 1712;
}
);
unicode = 2026;
},
{
glyphname = fraction;
layers = (
{
layerId = "363404A5-CC2E-4291-9CCC-B4D2C06AB158";
paths = (
{
closed = 1;
nodes = (
"738 1529 LINE",
"840 1464 LINE",
"-318 -40 LINE",
"-420 25 LINE"
);
}
);
width = 420;
}
);
unicode = 2044;
},
{
glyphname = numero;
layers = (
{
layerId = "363404A5-CC2E-4291-9CCC-B4D2C06AB158";
paths = (
{
closed = 1;
nodes = (
"1368 390 OFFCURVE",
"1368 391 OFFCURVE",
"1752 373 QCURVE SMOOTH",
"2147 355 OFFCURVE",
"2149 354 OFFCURVE",
"2136 285 QCURVE SMOOTH",
"2125 227 OFFCURVE",
"2125 226 OFFCURVE",
"1737 241 QCURVE SMOOTH",
"1349 256 OFFCURVE",
"1349 255 OFFCURVE",
"1359 327 QCURVE SMOOTH"
);
},
{
closed = 1;
nodes = (
"-51 100 LINE",
"145 125 LINE",
"268 754 LINE",
"382 1362 LINE",
"199 1386 LINE",
"212 1500 LINE",
"609 1500 LINE",
"835 820 LINE",
"1033 306 LINE",
"1103 754 LINE",
"1218 1362 LINE",
"1017 1386 LINE",
"1033 1500 LINE",
"1537 1500 LINE",
"1521 1386 LINE",
"1327 1362 LINE",
"1209 754 LINE",
"1078 0 LINE",
"967 0 LINE",
"695 748 LINE",
"483 1328 LINE",
"373 754 LINE",
"254 125 LINE",
"445 100 LINE",
"436 0 LINE",
"-60 0 LINE"
);
},
{
closed = 1;
nodes = (
"1484 1240 OFFCURVE",
"1790 1524 OFFCURVE",
"1991 1510 QCURVE SMOOTH",
"2192 1496 OFFCURVE",
"2377 1197 OFFCURVE",
"2328 969 QCURVE SMOOTH",
"2283 755 OFFCURVE",
"1978 464 OFFCURVE",
"1776 478 QCURVE SMOOTH",
"1575 492 OFFCURVE",
"1389 795 OFFCURVE",
"1438 1026 QCURVE SMOOTH"
);
},
{
closed = 1;
nodes = (
"1564 853 OFFCURVE",
"1661 597 OFFCURVE",
"1792 587 QCURVE SMOOTH",
"1933 578 OFFCURVE",
"2125 795 OFFCURVE",
"2164 982 QCURVE SMOOTH",
"2201 1154 OFFCURVE",
"2097 1386 OFFCURVE",
"1966 1395 QCURVE SMOOTH",
"1824 1405 OFFCURVE",
"1637 1209 OFFCURVE",
"1601 1031 QCURVE SMOOTH"
);
}
);
width = 2341;
}
);
unicode = 2116;
},
{
glyphname = bullet;
layers = (
{
layerId = "363404A5-CC2E-4291-9CCC-B4D2C06AB158";
paths = (
{
closed = 1;
nodes = (
"154 1009 OFFCURVE",
"316 1181 OFFCURVE",
"444 1181 QCURVE SMOOTH",
"568 1181 OFFCURVE",
"730 1009 OFFCURVE",
"730 893 QCURVE SMOOTH",
"730 779 OFFCURVE",
"568 607 OFFCURVE",
"444 607 QCURVE SMOOTH",
"316 607 OFFCURVE",
"154 779 OFFCURVE",
"154 893 QCURVE SMOOTH"
);
}
);
width = 784;
}
);
unicode = 2022;
},
{
glyphname = minute;
layers = (
{
layerId = "363404A5-CC2E-4291-9CCC-B4D2C06AB158";
paths = (
{
closed = 1;
nodes = (
"380 1481 LINE SMOOTH",
"400 1525 OFFCURVE",
"491 1572 OFFCURVE",
"547 1541 QCURVE SMOOTH",
"602 1511 OFFCURVE",
"615 1404 OFFCURVE",
"583 1368 QCURVE SMOOTH",
"218 964 LINE",
"144 964 LINE"
);
}
);
width = 584;
}
);
unicode = 2032;
},
{
glyphname = second;
layers = (
{
layerId = "363404A5-CC2E-4291-9CCC-B4D2C06AB158";
paths = (
{
closed = 1;
nodes = (
"380 1482 LINE SMOOTH",
"400 1526 OFFCURVE",
"491 1573 OFFCURVE",
"547 1542 QCURVE SMOOTH",
"602 1512 OFFCURVE",
"615 1405 OFFCURVE",
"583 1369 QCURVE SMOOTH",
"218 965 LINE",
"144 965 LINE"
);
},
{
closed = 1;
nodes = (
"780 1482 LINE SMOOTH",
"800 1526 OFFCURVE",
"891 1573 OFFCURVE",
"947 1542 QCURVE SMOOTH",
"1002 1512 OFFCURVE",
"1015 1405 OFFCURVE",
"983 1369 QCURVE SMOOTH",
"618 965 LINE",
"544 965 LINE"
);
}
);
width = 984;
}
);
unicode = 2033;
},
{
glyphname = lessequal;
layers = (
{
layerId = "363404A5-CC2E-4291-9CCC-B4D2C06AB158";
paths = (
{
closed = 1;
nodes = (
"30 198 LINE",
"834 198 LINE",
"834 46 LINE",
"30 46 LINE"
);
},
{
closed = 1;
nodes = (
"153 700 OFFCURVE",
"682 1037 OFFCURVE",
"757 1086 QCURVE SMOOTH",
"832 1134 OFFCURVE",
"895 1041 OFFCURVE",
"827 989 QCURVE SMOOTH",
"684 879 OFFCURVE",
"448 720 OFFCURVE",
"379 697 QCURVE",
"434 674 OFFCURVE",
"629 501 OFFCURVE",
"724 393 QCURVE",
"773 340 OFFCURVE",
"676 250 OFFCURVE",
"618 298 QCURVE SMOOTH",
"560 346 OFFCURVE",
"153 700 OFFCURVE",
"153 700 QCURVE"
);
}
);
width = 1024;
}
);
unicode = 2264;
},
{
glyphname = greaterequal;
layers = (
{
layerId = "363404A5-CC2E-4291-9CCC-B4D2C06AB158";
paths = (
{
closed = 1;
nodes = (
"20 198 LINE",
"824 198 LINE",
"824 46 LINE",
"20 46 LINE"
);
},
{
closed = 1;
nodes = (
"323 505 OFFCURVE",
"559 664 OFFCURVE",
"628 687 QCURVE",
"573 710 OFFCURVE",
"378 883 OFFCURVE",
"283 991 QCURVE",
"234 1044 OFFCURVE",
"331 1134 OFFCURVE",
"389 1086 QCURVE SMOOTH",
"447 1038 OFFCURVE",
"854 684 OFFCURVE",
"854 684 QCURVE",
"854 684 OFFCURVE",
"325 347 OFFCURVE",
"250 298 QCURVE SMOOTH",
"175 250 OFFCURVE",
"112 343 OFFCURVE",
"180 395 QCURVE SMOOTH"
);
}
);
width = 1024;
}
);
unicode = 2265;
},
{
glyphname = approxequal;
layers = (
{
layerId = "363404A5-CC2E-4291-9CCC-B4D2C06AB158";
paths = (
{
closed = 1;
nodes = (
"80 844 OFFCURVE",
"260 956 OFFCURVE",
"348 956 QCURVE",
"691 821 LINE",
"751 821 OFFCURVE",
"843 909 OFFCURVE",
"876 963 QCURVE",
"966 911 LINE",
"916 807 OFFCURVE",
"772 666 OFFCURVE",
"640 666 QCURVE",
"320 793 LINE",
"259 793 OFFCURVE",
"143 739 OFFCURVE",
"86 687 QCURVE",
"18 751 LINE"
);
},
{
closed = 1;
nodes = (
"80 464 OFFCURVE",
"260 576 OFFCURVE",
"348 576 QCURVE",
"691 441 LINE",
"751 441 OFFCURVE",
"843 529 OFFCURVE",
"876 583 QCURVE",
"966 531 LINE",
"916 427 OFFCURVE",
"772 286 OFFCURVE",
"640 286 QCURVE",
"320 413 LINE",
"259 413 OFFCURVE",
"143 359 OFFCURVE",
"86 307 QCURVE",
"18 371 LINE"
);
}
);
width = 1024;
}
);
unicode = 2248;
},
{
glyphname = notequal;
layers = (
{
layerId = "363404A5-CC2E-4291-9CCC-B4D2C06AB158";
paths = (
{
closed = 1;
nodes = (
"80 501 LINE",
"450 497 LINE",
"904 501 LINE",
"904 339 LINE",
"400 343 LINE",
"80 339 LINE"
);
},
{
closed = 1;
nodes = (
"80 903 LINE",
"570 899 LINE",
"904 903 LINE",
"904 741 LINE",
"500 745 LINE",
"80 741 LINE"
);
},
{
closed = 1;
nodes = (
"625 1211 LINE",
"766 1168 LINE",
"357 53 LINE",
"216 96 LINE"
);
}
);
width = 1024;
}
);
unicode = 2260;
},
{
glyphname = commercialMinusSign;
layers = (
{
layerId = "363404A5-CC2E-4291-9CCC-B4D2C06AB158";
paths = (
{
closed = 1;
nodes = (
"629 1538 LINE",
"770 1495 LINE",
"201 -45 LINE",
"60 -2 LINE"
);
},
{
closed = 1;
nodes = (
"477 179 OFFCURVE",
"558 265 OFFCURVE",
"621 265 QCURVE SMOOTH",
"684 265 OFFCURVE",
"765 179 OFFCURVE",
"765 121 QCURVE SMOOTH",
"765 64 OFFCURVE",
"684 -22 OFFCURVE",
"621 -22 QCURVE SMOOTH",
"558 -22 OFFCURVE",
"477 64 OFFCURVE",
"477 121 QCURVE SMOOTH"
);
},
{
closed = 1;
nodes = (
"107 1432 OFFCURVE",
"188 1518 OFFCURVE",
"251 1518 QCURVE SMOOTH",
"314 1518 OFFCURVE",
"395 1432 OFFCURVE",
"395 1374 QCURVE SMOOTH",
"395 1317 OFFCURVE",
"314 1231 OFFCURVE",
"251 1231 QCURVE SMOOTH",
"188 1231 OFFCURVE",
"107 1317 OFFCURVE",
"107 1374 QCURVE SMOOTH"
);
}
);
width = 834;
}
);
unicode = 2052;
},
{
glyphname = divisionslash;
layers = (
{
layerId = "363404A5-CC2E-4291-9CCC-B4D2C06AB158";
paths = (
{
closed = 1;
nodes = (
"554 1555 LINE",
"695 1512 LINE",
"79 -161 LINE",
"-62 -118 LINE"
);
}
);
width = 656;
}
);
unicode = 2215;
},
{
glyphname = bulletoperator;
layers = (
{
layerId = "363404A5-CC2E-4291-9CCC-B4D2C06AB158";
paths = (
{
closed = 1;
nodes = (
"348 702 OFFCURVE",
"429 788 OFFCURVE",
"492 788 QCURVE SMOOTH",
"555 788 OFFCURVE",
"636 702 OFFCURVE",
"636 644 QCURVE SMOOTH",
"636 587 OFFCURVE",
"555 501 OFFCURVE",
"492 501 QCURVE SMOOTH",
"429 501 OFFCURVE",
"348 587 OFFCURVE",
"348 644 QCURVE SMOOTH"
);
}
);
width = 1024;
}
);
unicode = 2219;
},
{
glyphname = colonsign;
layers = (
{
layerId = "363404A5-CC2E-4291-9CCC-B4D2C06AB158";
paths = (
{
closed = 1;
nodes = (
"634 138 LINE",
"645 133 LINE",
"807 831 LINE",
"919 762 LINE",
"766 106 LINE",
"779 101 LINE",
"722 -198 LINE",
"571 -149 LINE"
);
},
{
closed = 1;
nodes = (
"1117 1568 LINE",
"1067 1346 LINE",
"1055 1350 LINE",
"919 762 LINE",
"807 831 LINE",
"934 1378 LINE",
"921 1383 LINE",
"962 1567 LINE"
);
},
{
closed = 1;
nodes = (
"370 229 LINE",
"381 224 LINE",
"517 831 LINE",
"629 762 LINE",
"502 197 LINE",
"515 192 LINE",
"444 -128 LINE",
"293 -79 LINE"
);
},
{
closed = 1;
nodes = (
"827 1568 LINE",
"784 1382 LINE",
"772 1386 LINE",
"629 762 LINE",
"517 831 LINE",
"643 1384 LINE",
"630 1389 LINE",
"672 1567 LINE"
);
},
{
closed = 1;
nodes = (
"182 1165 OFFCURVE",
"688 1472 OFFCURVE",
"946 1433 QCURVE SMOOTH",
"1023 1421 OFFCURVE",
"1143 1383 OFFCURVE",
"1193 1358 QCURVE",
"1219 1344 LINE",
"1243 1330 LINE",
"1180 965 LINE",
"1072 965 LINE",
"1082 1174 LINE",
"1051 1233 OFFCURVE",
"935 1290 OFFCURVE",
"883 1299 QCURVE SMOOTH",
"697 1330 OFFCURVE",
"358 1150 OFFCURVE",
"289 864 QCURVE SMOOTH",
"224 594 OFFCURVE",
"383 237 OFFCURVE",
"579 207 QCURVE SMOOTH",
"770 178 OFFCURVE",
"1055 301 OFFCURVE",
"1145 437 QCURVE",
"1169 423 LINE",
"1192 348 LINE",
"1068 170 OFFCURVE",
"732 46 OFFCURVE",
"530 70 QCURVE SMOOTH",
"262 102 OFFCURVE",
"25 565 OFFCURVE",
"106 875 QCURVE SMOOTH"
);
}
);
width = 1280;
}
);
unicode = 20A1;
},
{
glyphname = franc;
layers = (
{
layerId = "363404A5-CC2E-4291-9CCC-B4D2C06AB158";
paths = (
{
closed = 1;
nodes = (
"46 457 LINE",
"730 457 LINE",
"700 331 LINE",
"16 331 LINE"
);
},
{
closed = 1;
nodes = (
"-27 100 LINE",
"160 127 LINE",
"283 760 LINE",
"396 1362 LINE",
"213 1386 LINE",
"226 1500 LINE",
"1136 1500 LINE",
"1069 1174 LINE",
"969 1174 LINE",
"982 1382 LINE",
"598 1392 LINE",
"562 1372 LINE",
"443 760 LINE",
"323 122 LINE",
"523 100 LINE",
"504 0 LINE",
"-46 0 LINE"
);
},
{
closed = 1;
nodes = (
"412 881 LINE",
"778 888 LINE",
"835 1051 LINE",
"935 1051 LINE",
"844 585 LINE",
"744 585 LINE",
"755 772 LINE",
"392 779 LINE"
);
}
);
width = 1060;
}
);
unicode = 20A3;
},
{
glyphname = naira;
layers = (
{
layerId = "363404A5-CC2E-4291-9CCC-B4D2C06AB158";
paths = (
{
closed = 1;
nodes = (
"1091 535 LINE",
"1096 561 LINE",
"843 561 LINE",
"813 664 LINE",
"1114 664 LINE",
"1118 682 LINE",
"1444 682 LINE",
"1404 535 LINE"
);
},
{
closed = 1;
nodes = (
"55 682 LINE",
"328 682 LINE",
"324 664 LINE",
"813 664 LINE",
"849 552 LINE",
"303 552 LINE",
"300 536 LINE",
"34 536 LINE"
);
},
{
closed = 1;
nodes = (
"1155 886 LINE",
"1158 900 LINE",
"737 900 LINE",
"689 1018 LINE",
"1179 1018 LINE",
"1182 1034 LINE",
"1494 1034 LINE",
"1454 886 LINE"
);
},
{
closed = 1;
nodes = (
"115 1034 LINE",
"394 1034 LINE",
"389 1012 LINE",
"693 1012 LINE",
"737 901 LINE",
"369 901 LINE",
"366 886 LINE",
"94 886 LINE"
);
},
{
closed = 1;
nodes = (
"-31 100 LINE",
"165 125 LINE",
"288 754 LINE",
"402 1362 LINE",
"219 1386 LINE",
"232 1500 LINE",
"620 1500 LINE",
"835 820 LINE",
"993 306 LINE",
"1083 754 LINE",
"1198 1362 LINE",
"997 1386 LINE",
"1013 1500 LINE",
"1517 1500 LINE",
"1501 1386 LINE",
"1307 1362 LINE",
"1189 754 LINE",
"1038 0 LINE",
"927 0 LINE",
"695 748 LINE",
"503 1328 LINE",
"393 754 LINE",
"274 125 LINE",
"465 100 LINE",
"456 0 LINE",
"-40 0 LINE"
);
}
);
width = 1518;
}
);
unicode = 20A6;
},
{
glyphname = peseta;
layers = (
{
layerId = "363404A5-CC2E-4291-9CCC-B4D2C06AB158";
paths = (
{
closed = 1;
nodes = (
"-52 100 LINE",
"135 127 LINE",
"247 754 LINE",
"352 1362 LINE",
"189 1386 LINE",
"202 1500 LINE",
"694 1500 LINE SMOOTH",
"911 1500 OFFCURVE",
"1149 1263 OFFCURVE",
"1107 1051 QCURVE SMOOTH",
"1067 850 OFFCURVE",
"771 666 OFFCURVE",
"592 666 QCURVE SMOOTH",
"493 666 OFFCURVE",
"355 687 OFFCURVE",
"313 695 QCURVE",
"342 796 LINE",
"393 783 OFFCURVE",
"485 774 OFFCURVE",
"578 774 QCURVE SMOOTH",
"713 774 OFFCURVE",
"901 903 OFFCURVE",
"933 1072 QCURVE SMOOTH",
"964 1227 OFFCURVE",
"809 1382 OFFCURVE",
"664 1382 QCURVE SMOOTH",
"539 1382 LINE",
"513 1360 LINE",
"409 764 LINE",
"298 122 LINE",
"488 100 LINE",
"479 0 LINE",
"-61 0 LINE"
);
},
{
closed = 1;
nodes = (
"1017 117 LINE",
"1077 359 LINE",
"1171 780 LINE",
"1010 822 LINE",
"1025 896 LINE",
"1125 919 OFFCURVE",
"1247 1050 OFFCURVE",
"1304 1237 QCURVE",
"1381 1237 LINE",
"1407 1197 LINE",
"1272 567 LINE",
"1200 134 LINE",
"1386 154 LINE",
"1386 66 LINE",
"1091 -15 LINE"
);
},
{
closed = 1;
nodes = (
"1260 930 LINE",
"1565 930 LINE",
"1565 825 LINE",
"1215 799 LINE"
);
},
{
closed = 1;
nodes = (
"1429 278 OFFCURVE",
"1515 367 OFFCURVE",
"1570 367 QCURVE SMOOTH",
"1595 367 LINE",
"1588 184 LINE SMOOTH",
"1586 137 OFFCURVE",
"1652 87 OFFCURVE",
"1730 87 QCURVE SMOOTH",
"1823 87 OFFCURVE",
"1949 176 OFFCURVE",
"1951 249 QCURVE SMOOTH",
"1954 315 OFFCURVE",
"1853 424 OFFCURVE",
"1767 473 QCURVE SMOOTH",
"1654 536 OFFCURVE",
"1553 664 OFFCURVE",
"1557 751 QCURVE SMOOTH",
"1562 855 OFFCURVE",
"1754 1011 OFFCURVE",
"1910 1011 QCURVE SMOOTH",
"2025 1011 OFFCURVE",
"2147 901 OFFCURVE",
"2144 825 QCURVE SMOOTH",
"2142 762 OFFCURVE",
"2076 652 OFFCURVE",
"2009 652 QCURVE SMOOTH",
"1983 652 LINE",
"1989 806 LINE SMOOTH",
"1990 833 OFFCURVE",
"1939 895 OFFCURVE",
"1869 895 QCURVE SMOOTH",
"1797 895 OFFCURVE",
"1690 836 OFFCURVE",
"1688 783 QCURVE SMOOTH",
"1686 731 OFFCURVE",
"1774 651 OFFCURVE",
"1869 595 QCURVE SMOOTH",
"1960 540 OFFCURVE",
"2099 394 OFFCURVE",
"2096 282 QCURVE SMOOTH",
"2091 148 OFFCURVE",
"1876 -25 OFFCURVE",
"1710 -25 QCURVE SMOOTH",
"1566 -25 OFFCURVE",
"1423 116 OFFCURVE",
"1426 198 QCURVE SMOOTH"
);
}
);
width = 2182;
}
);
unicode = 20A7;
},
{
glyphname = won;
layers = (
{
layerId = "363404A5-CC2E-4291-9CCC-B4D2C06AB158";
paths = (
{
closed = 1;
nodes = (
"1382 535 LINE",
"1382 561 LINE",
"1086 561 LINE",
"1086 663 LINE",
"1441 663 LINE",
"1441 682 LINE",
"1743 682 LINE",
"1684 535 LINE"
);
},
{
closed = 1;
nodes = (
"1561 886 LINE",
"1561 908 LINE",
"1091 908 LINE",
"1091 1015 LINE",
"1621 1015 LINE",
"1621 1034 LINE",
"1901 1034 LINE",
"1833 886 LINE"
);
},
{
closed = 1;
nodes = (
"158 682 LINE",
"415 682 LINE",
"411 663 LINE",
"1086 663 LINE",
"1086 561 LINE",
"445 561 LINE",
"439 535 LINE",
"177 535 LINE"
);
},
{
closed = 1;
nodes = (
"90 1034 LINE",
"400 1034 LINE",
"395 1015 LINE",
"1091 1015 LINE",
"1091 908 LINE",
"410 908 LINE",
"404 886 LINE",
"108 886 LINE"
);
},
{
closed = 1;
nodes = (
"166 1500 LINE",
"655 1500 LINE",
"631 1386 LINE",
"473 1366 LINE",
"483 803 LINE",
"496 318 LINE",
"542 318 LINE",
"780 737 LINE",
"1061 1221 LINE",
"1079 1083 LINE",
"883 699 LINE",
"459 -8 LINE",
"355 -8 LINE",
"331 740 LINE",
"305 1366 LINE",
"142 1386 LINE"
);
},
{
closed = 1;
nodes = (
"865 1500 LINE",
"1330 1500 LINE",
"1309 1386 LINE",
"1156 1373 LINE",
"1149 800 LINE",
"1151 317 LINE",
"1195 319 LINE",
"1447 803 LINE",
"1730 1372 LINE",
"1537 1386 LINE",
"1550 1500 LINE",
"2037 1500 LINE",
"2024 1386 LINE",
"1866 1367 LINE",
"1544 760 LINE",
"1115 -8 LINE",
"1004 -8 LINE",
"998 734 LINE",
"986 1373 LINE",
"844 1394 LINE"
);
}
);
width = 1918;
}
);
unicode = 20A9;
},
{
glyphname = dong;
layers = (
{
layerId = "363404A5-CC2E-4291-9CCC-B4D2C06AB158";
paths = (
{
closed = 1;
nodes = (
"25 -124 LINE",
"446 -128 LINE",
"897 -124 LINE",
"877 -266 LINE",
"427 -262 LINE",
"5 -266 LINE"
);
},
{
closed = 1;
nodes = (
"527 1247 LINE",
"944 1244 LINE",
"1160 1247 LINE",
"1130 1122 LINE",
"913 1126 LINE",
"496 1122 LINE"
);
},
{
closed = 1;
nodes = (
"54 548 OFFCURVE",
"497 987 OFFCURVE",
"780 987 QCURVE SMOOTH",
"812 987 LINE",
"874 1336 LINE",
"770 1428 LINE",
"798 1500 LINE",
"979 1534 LINE",
"1066 1464 LINE",
"872 469 LINE",
"823 133 LINE",
"908 133 LINE",
"908 44 LINE",
"681 -16 LINE",
"644 65 LINE",
"651 171 LINE",
"586 96 OFFCURVE",
"346 -10 OFFCURVE",
"275 -10 QCURVE SMOOTH",
"158 -10 OFFCURVE",
"54 139 OFFCURVE",
"54 248 QCURVE SMOOTH"
);
},
{
closed = 1;
nodes = (
"223 225 OFFCURVE",
"283 127 OFFCURVE",
"352 127 QCURVE SMOOTH",
"470 127 OFFCURVE",
"694 313 OFFCURVE",
"727 491 QCURVE SMOOTH",
"781 771 LINE",
"778 811 OFFCURVE",
"712 837 OFFCURVE",
"671 837 QCURVE SMOOTH",
"472 837 OFFCURVE",
"223 519 OFFCURVE",
"223 300 QCURVE SMOOTH"
);
}
);
width = 1207;
}
);
unicode = 20AB;
},
{
glyphname = euro;
layers = (
{
layerId = "363404A5-CC2E-4291-9CCC-B4D2C06AB158";
paths = (
{
closed = 1;
nodes = (
"124 994 LINE",
"924 994 LINE",
"894 858 LINE",
"70 858 LINE"
);
},
{
closed = 1;
nodes = (
"49 667 LINE",
"913 667 LINE",
"883 531 LINE",
"53 531 LINE"
);
},
{
closed = 1;
nodes = (
"995 1308 OFFCURVE",
"890 1370 OFFCURVE",
"821 1370 QCURVE SMOOTH",
"660 1370 OFFCURVE",
"435 1060 OFFCURVE",
"382 755 QCURVE SMOOTH",
"335 481 OFFCURVE",
"456 119 OFFCURVE",
"603 119 QCURVE SMOOTH",
"683 119 OFFCURVE",
"806 180 OFFCURVE",
"881 257 QCURVE",
"960 171 LINE",
"879 81 OFFCURVE",
"684 -25 OFFCURVE",
"579 -25 QCURVE SMOOTH",
"347 -25 OFFCURVE",
"130 399 OFFCURVE",
"199 766 QCURVE SMOOTH",
"267 1128 OFFCURVE",
"623 1520 OFFCURVE",
"847 1520 QCURVE SMOOTH",
"964 1520 OFFCURVE",
"1112 1386 OFFCURVE",
"1143 1278 QCURVE",
"1024 1234 LINE"
);
}
);
width = 1099;
}
);
unicode = 20AC;
},
{
glyphname = florin;
layers = (
{
layerId = "363404A5-CC2E-4291-9CCC-B4D2C06AB158";
paths = (
{
closed = 1;
nodes = (
"202 -173 OFFCURVE",
"89 -309 OFFCURVE",
"-11 -309 QCURVE SMOOTH",
"-44 -309 OFFCURVE",
"-120 -302 OFFCURVE",
"-149 -295 QCURVE SMOOTH",
"-170 -290 LINE",
"-154 -183 LINE",
"-130 -190 LINE SMOOTH",
"-122 -192 OFFCURVE",
"-91 -197 OFFCURVE",
"-75 -197 QCURVE SMOOTH",
"-6 -197 OFFCURVE",
"52 -112 OFFCURVE",
"66 -40 QCURVE SMOOTH",
"239 860 LINE",
"44 872 LINE",
"34 966 LINE",
"259 984 LINE",
"315 1304 LINE SMOOTH",
"332 1403 OFFCURVE",
"448 1518 OFFCURVE",
"548 1518 QCURVE SMOOTH",
"581 1518 OFFCURVE",
"657 1511 OFFCURVE",
"686 1504 QCURVE SMOOTH",
"707 1499 LINE",
"691 1392 LINE",
"667 1399 LINE SMOOTH",
"659 1401 OFFCURVE",
"628 1406 OFFCURVE",
"612 1406 QCURVE SMOOTH",
"543 1406 OFFCURVE",
"484 1342 OFFCURVE",
"471 1269 QCURVE SMOOTH",
"421 985 LINE",
"618 985 LINE",
"618 883 LINE",
"393 872 LINE",
"220 -75 LINE SMOOTH"
);
}
);
width = 618;
}
);
unicode = 0192;
},
{
glyphname = kip;
layers = (
{
layerId = "363404A5-CC2E-4291-9CCC-B4D2C06AB158";
paths = (
{
closed = 1;
nodes = (
"653 755 LINE",
"653 781 LINE",
"564 781 LINE",
"497 843 LINE",
"573 843 LINE",
"573 902 LINE",
"1175 902 LINE",
"1152 755 LINE"
);
},
{
closed = 1;
nodes = (
"56 901 LINE",
"367 901 LINE",
"367 843 LINE",
"497 843 LINE",
"564 781 LINE",
"367 781 LINE",
"367 755 LINE",
"45 755 LINE"
);
},
{
closed = 1;
nodes = (
"-57 100 LINE",
"139 125 LINE",
"262 754 LINE",
"376 1362 LINE",
"183 1386 LINE",
"196 1500 LINE",
"738 1500 LINE",
"725 1386 LINE",
"543 1362 LINE",
"422 754 LINE",
"311 125 LINE",
"495 100 LINE",
"486 0 LINE",
"-66 0 LINE"
);
},
{
closed = 1;
nodes = (
"343 757 LINE",
"965 1348 LINE",
"861 1386 LINE",
"874 1500 LINE",
"1294 1500 LINE",
"1281 1386 LINE",
"1120 1348 LINE",
"313 604 LINE"
);
},
{
closed = 1;
nodes = (
"599 896 LINE",
"1087 125 LINE",
"1241 100 LINE",
"1232 0 LINE",
"743 0 LINE",
"752 100 LINE",
"893 125 LINE",
"473 783 LINE"
);
}
);
width = 1331;
}
);
unicode = 20AD;
},
{
glyphname = peso;
layers = (
{
layerId = "363404A5-CC2E-4291-9CCC-B4D2C06AB158";
paths = (
{
closed = 1;
nodes = (
"1012 764 LINE",
"1012 778 LINE",
"679 778 LINE",
"706 890 LINE",
"1042 890 LINE",
"1042 905 LINE",
"1323 905 LINE",
"1293 764 LINE"
);
},
{
closed = 1;
nodes = (
"65 904 LINE",
"373 904 LINE",
"371 890 LINE",
"706 890 LINE",
"679 779 LINE",
"355 779 LINE",
"353 765 LINE",
"44 765 LINE"
);
},
{
closed = 1;
nodes = (
"1102 1069 LINE",
"1102 1083 LINE",
"607 1083 LINE",
"629 1195 LINE",
"1082 1195 LINE",
"1082 1211 LINE",
"1354 1211 LINE",
"1324 1069 LINE"
);
},
{
closed = 1;
nodes = (
"65 1211 LINE",
"419 1211 LINE",
"417 1195 LINE",
"629 1195 LINE",
"607 1084 LINE",
"400 1084 LINE",
"398 1069 LINE",
"44 1069 LINE"
);
},
{
closed = 1;
nodes = (
"-52 100 LINE",
"145 127 LINE",
"267 754 LINE",
"372 1362 LINE",
"189 1386 LINE",
"202 1500 LINE",
"774 1500 LINE SMOOTH",
"991 1500 OFFCURVE",
"1218 1215 OFFCURVE",
"1176 1003 QCURVE SMOOTH",
"1136 802 OFFCURVE",
"818 499 OFFCURVE",
"619 499 QCURVE SMOOTH",
"520 499 OFFCURVE",
"372 520 OFFCURVE",
"330 528 QCURVE",
"359 629 LINE",
"410 616 OFFCURVE",
"512 607 OFFCURVE",
"605 607 QCURVE SMOOTH",
"743 607 OFFCURVE",
"980 839 OFFCURVE",
"1013 1022 QCURVE SMOOTH",
"1041 1177 OFFCURVE",
"889 1382 OFFCURVE",
"744 1382 QCURVE SMOOTH",
"559 1382 LINE",
"533 1360 LINE",
"429 764 LINE",
"308 122 LINE",
"508 100 LINE",
"499 0 LINE",
"-61 0 LINE"
);
}
);
width = 1349;
}
);
unicode = 20B1;
},
{
glyphname = guarani;
layers = (
{
layerId = "363404A5-CC2E-4291-9CCC-B4D2C06AB158";
paths = (
{
closed = 1;
nodes = (
"479 86 LINE",
"497 81 LINE",
"703 871 LINE",
"811 803 LINE",
"618 54 LINE",
"638 50 LINE",
"595 -109 LINE",
"422 -122 LINE"
);
},
{
closed = 1;
nodes = (
"1045 1618 LINE",
"992 1424 LINE",
"971 1428 LINE",
"811 803 LINE",
"703 871 LINE",
"851 1455 LINE",
"831 1460 LINE",
"874 1618 LINE"
);
},
{
closed = 1;
nodes = (
"204 1165 OFFCURVE",
"703 1575 OFFCURVE",
"976 1533 QCURVE SMOOTH",
"1041 1523 OFFCURVE",
"1134 1502 OFFCURVE",
"1180 1482 QCURVE",
"1221 1461 LINE",
"1263 1440 LINE",
"1201 1096 LINE",
"1093 1096 LINE",
"1102 1299 LINE",
"1066 1358 OFFCURVE",
"965 1406 OFFCURVE",
"913 1414 QCURVE SMOOTH",
"692 1448 OFFCURVE",
"381 1151 OFFCURVE",
"304 842 QCURVE SMOOTH",
"231 552 OFFCURVE",
"370 175 OFFCURVE",
"544 151 QCURVE SMOOTH",
"678 133 OFFCURVE",
"897 174 OFFCURVE",
"997 243 QCURVE",
"1070 606 LINE",
"921 631 LINE",
"943 732 LINE",
"1343 732 LINE",
"1329 630 LINE",
"1229 605 LINE",
"1149 182 LINE",
"1104 152 LINE",
"984 92 OFFCURVE",
"641 -7 OFFCURVE",
"495 14 QCURVE SMOOTH",
"248 49 OFFCURVE",
"32 523 OFFCURVE",
"117 839 QCURVE SMOOTH"
);
}
);
width = 1376;
}
);
unicode = 20B2;
},
{
glyphname = cedi;
layers = (
{
layerId = "363404A5-CC2E-4291-9CCC-B4D2C06AB158";
paths = (
{
closed = 1;
nodes = (
"479 102 LINE",
"498 97 LINE",
"667 831 LINE",
"779 762 LINE",
"626 88 LINE",
"647 83 LINE",
"596 -137 LINE",
"423 -149 LINE"
);
},
{
closed = 1;
nodes = (
"985 1567 LINE",
"937 1357 LINE",
"917 1361 LINE",
"779 762 LINE",
"667 831 LINE",
"796 1389 LINE",
"775 1394 LINE",
"814 1567 LINE"
);
},
{
closed = 1;
nodes = (
"184 1165 OFFCURVE",
"663 1468 OFFCURVE",
"905 1426 QCURVE SMOOTH",
"982 1413 OFFCURVE",
"1102 1376 OFFCURVE",
"1152 1351 QCURVE",
"1178 1337 LINE",
"1202 1323 LINE",
"1139 958 LINE",
"1031 958 LINE",
"1041 1167 LINE",
"1010 1226 OFFCURVE",
"894 1283 OFFCURVE",
"842 1292 QCURVE SMOOTH",
"652 1326 OFFCURVE",
"356 1151 OFFCURVE",
"279 842 QCURVE SMOOTH",
"206 552 OFFCURVE",
"373 225 OFFCURVE",
"538 195 QCURVE SMOOTH",
"726 161 OFFCURVE",
"1014 289 OFFCURVE",
"1104 425 QCURVE",
"1128 411 LINE",
"1151 336 LINE",
"1027 158 OFFCURVE",
"690 31 OFFCURVE",
"489 58 QCURVE SMOOTH",
"252 90 OFFCURVE",
"12 523 OFFCURVE",
"97 839 QCURVE SMOOTH"
);
}
);
width = 1312;
}
);
unicode = 20B5;
},
{
glyphname = rupeeIndian;
layers = (
{
layerId = "363404A5-CC2E-4291-9CCC-B4D2C06AB158";
paths = (
{
closed = 1;
nodes = (
"133 808 LINE",
"174 842 LINE",
"426 845 LINE SMOOTH",
"585 847 OFFCURVE",
"721 967 OFFCURVE",
"747 1106 QCURVE SMOOTH",
"769 1222 OFFCURVE",
"675 1390 OFFCURVE",
"551 1390 QCURVE SMOOTH",
"447 1390 OFFCURVE",
"216 1380 OFFCURVE",
"62 1372 QCURVE",
"123 1514 LINE",
"340 1499 OFFCURVE",
"639 1487 OFFCURVE",
"654 1485 QCURVE",
"1212 1517 LINE",
"1172 1355 LINE",
"1083 1360 OFFCURVE",
"943 1369 OFFCURVE",
"883 1373 QCURVE",
"921 1324 OFFCURVE",
"947 1190 OFFCURVE",
"931 1112 QCURVE SMOOTH",
"897 943 OFFCURVE",
"611 736 OFFCURVE",
"474 736 QCURVE SMOOTH",
"413 736 OFFCURVE",
"208 720 OFFCURVE",
"157 695 QCURVE"
);
},
{
closed = 1;
nodes = (
"602 810 LINE",
"615 708 LINE SMOOTH",
"640 514 OFFCURVE",
"781 120 OFFCURVE",
"968 89 QCURVE",
"939 -10 LINE",
"863 -10 LINE SMOOTH",
"663 -10 OFFCURVE",
"490 437 OFFCURVE",
"464 671 QCURVE SMOOTH",
"455 751 LINE"
);
},
{
closed = 1;
nodes = (
"143 1164 LINE",
"830 1140 LINE",
"830 1155 LINE",
"1121 1165 LINE",
"1081 1024 LINE",
"800 1014 LINE",
"800 1028 LINE",
"112 1025 LINE"
);
}
);
width = 1120;
}
);
unicode = 20B9;
},
{
glyphname = liraTurkish;
layers = (
{
layerId = "363404A5-CC2E-4291-9CCC-B4D2C06AB158";
paths = (
{
closed = 1;
nodes = (
"88 662 LINE",
"393 776 LINE",
"393 772 LINE",
"730 910 LINE",
"715 753 LINE",
"392 634 LINE",
"392 630 LINE",
"124 529 LINE"
);
},
{
closed = 1;
nodes = (
"90 985 LINE",
"396 1099 LINE",
"396 1096 LINE",
"782 1240 LINE",
"763 1076 LINE",
"395 952 LINE",
"395 950 LINE",
"126 849 LINE"
);
},
{
closed = 1;
nodes = (
"365 132 LINE",
"523 153 OFFCURVE",
"904 369 OFFCURVE",
"953 564 QCURVE SMOOTH",
"1002 758 LINE",
"1124 758 LINE",
"1073 400 LINE",
"960 246 OFFCURVE",
"558 48 OFFCURVE",
"321 -8 QCURVE",
"196 -29 LINE",
"109 47 LINE",
"150 132 LINE",
"277 754 LINE",
"391 1352 LINE",
"190 1386 LINE",
"203 1500 LINE",
"775 1500 LINE",
"762 1386 LINE",
"555 1352 LINE",
"437 754 LINE",
"325 159 LINE"
);
}
);
width = 1176;
}
);
unicode = 20BA;
},
{
glyphname = manat;
layers = (
{
layerId = "363404A5-CC2E-4291-9CCC-B4D2C06AB158";
paths = (
{
closed = 1;
nodes = (
"592 662 LINE",
"705 1350 LINE",
"714 1570 LINE",
"915 1587 LINE",
"841 1350 LINE",
"731 762 LINE",
"685 330 LINE",
"501 260 LINE"
);
},
{
closed = 1;
nodes = (
"1229 0 LINE",
"702 0 LINE",
"716 114 LINE",
"887 138 LINE",
"990 610 LINE SMOOTH",
"1010 702 OFFCURVE",
"1045 950 OFFCURVE",
"1045 1017 QCURVE SMOOTH",
"1045 1136 OFFCURVE",
"898 1309 OFFCURVE",
"757 1309 QCURVE SMOOTH",
"603 1309 OFFCURVE",
"396 1127 OFFCURVE",
"349 910 QCURVE SMOOTH",
"305 706 LINE",
"207 138 LINE",
"394 114 LINE",
"380 0 LINE",
"-119 0 LINE",
"-105 114 LINE",
"70 138 LINE",
"181 706 LINE",
"221 911 LINE SMOOTH",
"276 1193 OFFCURVE",
"561 1426 OFFCURVE",
"788 1426 QCURVE SMOOTH",
"1024 1426 OFFCURVE",
"1223 1202 OFFCURVE",
"1220 1040 QCURVE SMOOTH",
"1219 960 OFFCURVE",
"1187 789 OFFCURVE",
"1152 610 QCURVE SMOOTH",
"1060 138 LINE",
"1243 114 LINE"
);
}
);
width = 1362;
}
);
unicode = 20BC;
},
{
glyphname = ruble;
layers = (
{
layerId = "363404A5-CC2E-4291-9CCC-B4D2C06AB158";
paths = (
{
closed = 1;
nodes = (
"12 445 LINE",
"740 445 LINE",
"709 309 LINE",
"-14 349 LINE"
);
},
{
closed = 1;
nodes = (
"-52 100 LINE",
"145 127 LINE",
"267 754 LINE",
"372 1362 LINE",
"189 1386 LINE",
"202 1500 LINE",
"774 1500 LINE SMOOTH",
"991 1500 OFFCURVE",
"1195 1237 OFFCURVE",
"1153 1025 QCURVE SMOOTH",
"1113 824 OFFCURVE",
"808 589 OFFCURVE",
"609 589 QCURVE SMOOTH",
"510 589 OFFCURVE",
"188 629 OFFCURVE",
"65 660 QCURVE",
"94 761 LINE",
"224 731 OFFCURVE",
"502 697 OFFCURVE",
"595 697 QCURVE SMOOTH",
"750 697 OFFCURVE",
"947 877 OFFCURVE",
"979 1046 QCURVE SMOOTH",
"1010 1201 OFFCURVE",
"889 1382 OFFCURVE",
"744 1382 QCURVE SMOOTH",
"559 1382 LINE",
"533 1360 LINE",
"429 764 LINE",
"308 122 LINE",
"508 100 LINE",
"499 0 LINE",
"-51 0 LINE"
);
}
);
width = 1165;
}
);
unicode = 20BD;
},
{
glyphname = circumflex_acute;
layers = (
{
layerId = "363404A5-CC2E-4291-9CCC-B4D2C06AB158";
paths = (
{
closed = 1;
nodes = (
"414 1126 LINE",
"701 1298 LINE",
"884 1126 LINE",
"972 1199 LINE",
"820 1402 LINE SMOOTH",
"791 1440 OFFCURVE",
"759 1475 OFFCURVE",
"725 1475 QCURVE SMOOTH",
"691 1475 OFFCURVE",
"655 1446 OFFCURVE",
"600 1402 QCURVE SMOOTH",
"346 1199 LINE"
);
},
{
closed = 1;
nodes = (
"543 1468 LINE",
"785 1605 LINE SMOOTH",
"843 1638 OFFCURVE",
"909 1684 OFFCURVE",
"909 1720 QCURVE SMOOTH",
"909 1753 OFFCURVE",
"866 1809 OFFCURVE",
"818 1809 QCURVE SMOOTH",
"786 1809 OFFCURVE",
"693 1742 OFFCURVE",
"658 1710 QCURVE SMOOTH",
"480 1546 LINE"
);
}
);
width = 1024;
}
);
},
{
glyphname = circumflex_grave;
layers = (
{
layerId = "363404A5-CC2E-4291-9CCC-B4D2C06AB158";
paths = (
{
closed = 1;
nodes = (
"414 1126 LINE",
"701 1298 LINE",
"884 1126 LINE",
"972 1199 LINE",
"820 1402 LINE SMOOTH",
"791 1440 OFFCURVE",
"759 1475 OFFCURVE",
"725 1475 QCURVE SMOOTH",
"691 1475 OFFCURVE",
"655 1446 OFFCURVE",
"600 1402 QCURVE SMOOTH",
"346 1199 LINE"
);
},
{
closed = 1;
nodes = (
"902 1462 LINE",
"966 1540 LINE",
"774 1717 LINE SMOOTH",
"744 1745 OFFCURVE",
"670 1806 OFFCURVE",
"625 1806 QCURVE SMOOTH",
"578 1806 OFFCURVE",
"526 1754 OFFCURVE",
"526 1724 QCURVE",
"526 1689 OFFCURVE",
"571 1639 OFFCURVE",
"611 1618 QCURVE SMOOTH"
);
}
);
width = 1024;
}
);
},
{
glyphname = circumflex_hookabove;
layers = (
{
layerId = "363404A5-CC2E-4291-9CCC-B4D2C06AB158";
paths = (
{
closed = 1;
nodes = (
"752 1480 OFFCURVE",
"787 1448 OFFCURVE",
"813 1407 QCURVE SMOOTH",
"954 1181 LINE",
"864 1107 LINE",
"687 1306 LINE",
"407 1091 LINE",
"339 1164 LINE",
"593 1407 LINE SMOOTH",
"644 1456 OFFCURVE",
"684 1480 OFFCURVE",
"718 1480 QCURVE SMOOTH"
);
},
{
closed = 1;
nodes = (
"959 1098 LINE",
"1049 1193 LINE",
"1064 1186 OFFCURVE",
"1112 1179 OFFCURVE",
"1133 1179 QCURVE SMOOTH",
"1185 1179 OFFCURVE",
"1247 1234 OFFCURVE",
"1247 1290 QCURVE SMOOTH",
"1247 1328 OFFCURVE",
"1197 1376 OFFCURVE",
"1142 1382 QCURVE SMOOTH",
"1087 1388 OFFCURVE",
"984 1361 OFFCURVE",
"949 1340 QCURVE",
"902 1448 LINE",
"956 1477 OFFCURVE",
"1131 1511 OFFCURVE",
"1192 1504 QCURVE SMOOTH",
"1310 1491 OFFCURVE",
"1409 1385 OFFCURVE",
"1409 1299 QCURVE SMOOTH",
"1409 1200 OFFCURVE",
"1277 1062 OFFCURVE",
"1182 1062 QCURVE SMOOTH",
"1152 1062 OFFCURVE",
"1096 1071 OFFCURVE",
"1081 1075 QCURVE",
"1057 979 LINE",
"931 979 LINE"
);
}
);
width = 1024;
}
);
},
{
glyphname = circumflex_tilde;
layers = (
{
layerId = "363404A5-CC2E-4291-9CCC-B4D2C06AB158";
paths = (
{
closed = 1;
nodes = (
"758 1532 OFFCURVE",
"832 1488 OFFCURVE",
"885 1487 QCURVE",
"938 1487 OFFCURVE",
"1069 1569 OFFCURVE",
"1103 1622 QCURVE",
"1058 1701 LINE",
"1046 1687 OFFCURVE",
"964 1634 OFFCURVE",
"926 1634 QCURVE SMOOTH",
"887 1634 OFFCURVE",
"814 1686 OFFCURVE",
"792 1703 QCURVE SMOOTH",
"761 1729 OFFCURVE",
"697 1757 OFFCURVE",
"658 1757 QCURVE SMOOTH",
"594 1757 OFFCURVE",
"449 1652 OFFCURVE",
"418 1609 QCURVE",
"467 1530 LINE",
"478 1538 OFFCURVE",
"572 1610 OFFCURVE",
"618 1610 QCURVE SMOOTH",
"645 1610 OFFCURVE",
"708 1575 OFFCURVE",
"735 1552 QCURVE SMOOTH"
);
},
{
closed = 1;
nodes = (
"414 1126 LINE",
"701 1298 LINE",
"884 1126 LINE",
"972 1199 LINE",
"820 1402 LINE SMOOTH",
"791 1440 OFFCURVE",
"759 1475 OFFCURVE",
"725 1475 QCURVE SMOOTH",
"691 1475 OFFCURVE",
"655 1446 OFFCURVE",
"600 1402 QCURVE SMOOTH",
"346 1199 LINE"
);
}
);
width = 1024;
}
);
},
{
glyphname = breve_acute;
layers = (
{
layerId = "363404A5-CC2E-4291-9CCC-B4D2C06AB158";
paths = (
{
closed = 1;
nodes = (
"347 1295 OFFCURVE",
"521 1157 OFFCURVE",
"651 1157 QCURVE SMOOTH",
"781 1157 OFFCURVE",
"1011 1310 OFFCURVE",
"1053 1408 QCURVE",
"976 1461 LINE",
"937 1408 OFFCURVE",
"769 1313 OFFCURVE",
"667 1313 QCURVE SMOOTH",
"571 1313 OFFCURVE",
"447 1400 OFFCURVE",
"428 1462 QCURVE",
"344 1405 LINE"
);
},
{
closed = 1;
nodes = (
"548 1463 LINE",
"875 1573 LINE SMOOTH",
"939 1594 OFFCURVE",
"1001 1648 OFFCURVE",
"1001 1684 QCURVE SMOOTH",
"1001 1717 OFFCURVE",
"958 1766 OFFCURVE",
"910 1766 QCURVE SMOOTH",
"878 1766 OFFCURVE",
"789 1714 OFFCURVE",
"748 1690 QCURVE SMOOTH",
"500 1546 LINE"
);
}
);
width = 1024;
}
);
},
{
glyphname = breve_grave;
layers = (
{
layerId = "363404A5-CC2E-4291-9CCC-B4D2C06AB158";
paths = (
{
closed = 1;
nodes = (
"347 1295 OFFCURVE",
"521 1157 OFFCURVE",
"651 1157 QCURVE SMOOTH",
"781 1157 OFFCURVE",
"1011 1310 OFFCURVE",
"1053 1408 QCURVE",
"976 1461 LINE",
"937 1408 OFFCURVE",
"769 1313 OFFCURVE",
"667 1313 QCURVE SMOOTH",
"571 1313 OFFCURVE",
"447 1400 OFFCURVE",
"428 1462 QCURVE",
"344 1405 LINE"
);
},
{
closed = 1;
nodes = (
"892 1462 LINE",
"956 1540 LINE",
"734 1686 LINE SMOOTH",
"700 1709 OFFCURVE",
"620 1766 OFFCURVE",
"575 1766 QCURVE SMOOTH",
"528 1766 OFFCURVE",
"476 1707 OFFCURVE",
"476 1677 QCURVE SMOOTH",
"476 1642 OFFCURVE",
"519 1585 OFFCURVE",
"561 1571 QCURVE SMOOTH"
);
}
);
width = 1024;
}
);
},
{
glyphname = breve_hookabove;
layers = (
{
layerId = "363404A5-CC2E-4291-9CCC-B4D2C06AB158";
paths = (
{
closed = 1;
nodes = (
"660 1397 LINE",
"680 1466 LINE",
"695 1463 OFFCURVE",
"748 1455 OFFCURVE",
"777 1455 QCURVE SMOOTH",
"868 1455 OFFCURVE",
"995 1559 OFFCURVE",
"995 1646 QCURVE SMOOTH",
"995 1733 OFFCURVE",
"874 1821 OFFCURVE",
"763 1821 QCURVE SMOOTH",
"704 1821 OFFCURVE",
"552 1795 OFFCURVE",
"499 1774 QCURVE",
"529 1661 LINE",
"565 1675 OFFCURVE",
"674 1695 OFFCURVE",
"729 1695 QCURVE SMOOTH",
"772 1695 OFFCURVE",
"840 1667 OFFCURVE",
"840 1634 QCURVE SMOOTH",
"840 1591 OFFCURVE",
"780 1567 OFFCURVE",
"732 1567 QCURVE SMOOTH",
"711 1567 OFFCURVE",
"653 1574 OFFCURVE",
"638 1580 QCURVE",
"563 1504 LINE",
"545 1417 LINE"
);
},
{
closed = 1;
nodes = (
"347 1295 OFFCURVE",
"521 1157 OFFCURVE",
"651 1157 QCURVE SMOOTH",
"781 1157 OFFCURVE",
"1011 1310 OFFCURVE",
"1053 1408 QCURVE",
"976 1461 LINE",
"937 1408 OFFCURVE",
"769 1305 OFFCURVE",
"667 1305 QCURVE SMOOTH",
"571 1305 OFFCURVE",
"447 1400 OFFCURVE",
"428 1462 QCURVE",
"344 1405 LINE"
);
}
);
width = 1024;
}
);
},
{
glyphname = breve_tilde;
layers = (
{
layerId = "363404A5-CC2E-4291-9CCC-B4D2C06AB158";
paths = (
{
closed = 1;
nodes = (
"738 1548 OFFCURVE",
"824 1500 OFFCURVE",
"872 1500 QCURVE SMOOTH",
"927 1500 OFFCURVE",
"1066 1586 OFFCURVE",
"1119 1666 QCURVE",
"1036 1746 LINE",
"1005 1708 OFFCURVE",
"937 1654 OFFCURVE",
"897 1654 QCURVE SMOOTH",
"856 1654 OFFCURVE",
"780 1709 OFFCURVE",
"757 1726 QCURVE SMOOTH",
"725 1753 OFFCURVE",
"659 1783 OFFCURVE",
"618 1783 QCURVE SMOOTH",
"550 1783 OFFCURVE",
"401 1676 OFFCURVE",
"355 1610 QCURVE",
"431 1518 LINE",
"452 1552 OFFCURVE",
"543 1623 OFFCURVE",
"591 1623 QCURVE SMOOTH",
"620 1623 OFFCURVE",
"686 1592 OFFCURVE",
"714 1568 QCURVE SMOOTH"
);
},
{
closed = 1;
nodes = (
"345 1300 OFFCURVE",
"525 1157 OFFCURVE",
"655 1157 QCURVE SMOOTH",
"785 1157 OFFCURVE",
"1003 1308 OFFCURVE",
"1049 1406 QCURVE",
"970 1461 LINE",
"933 1405 OFFCURVE",
"773 1313 OFFCURVE",
"671 1313 QCURVE SMOOTH",
"575 1313 OFFCURVE",
"441 1400 OFFCURVE",
"422 1462 QCURVE",
"338 1405 LINE"
);
}
);
width = 1024;
}
);
},
{
glyphname = tilde_macron;
layers = (
{
layerId = "363404A5-CC2E-4291-9CCC-B4D2C06AB158";
paths = (
{
closed = 1;
nodes = (
"679 1213 OFFCURVE",
"769 1168 OFFCURVE",
"819 1168 QCURVE SMOOTH",
"877 1168 OFFCURVE",
"1022 1250 OFFCURVE",
"1059 1303 QCURVE",
"1010 1382 LINE",
"996 1368 OFFCURVE",
"906 1315 OFFCURVE",
"864 1315 QCURVE SMOOTH",
"821 1315 OFFCURVE",
"741 1367 OFFCURVE",
"716 1384 QCURVE SMOOTH",
"682 1410 OFFCURVE",
"612 1438 OFFCURVE",
"569 1438 QCURVE SMOOTH",
"498 1438 OFFCURVE",
"338 1333 OFFCURVE",
"304 1290 QCURVE",
"358 1211 LINE",
"370 1219 OFFCURVE",
"474 1291 OFFCURVE",
"524 1291 QCURVE SMOOTH",
"554 1291 OFFCURVE",
"624 1256 OFFCURVE",
"653 1233 QCURVE SMOOTH"
);
},
{
closed = 1;
nodes = (
"425 1501 LINE",
"1017 1501 LINE",
"1046 1648 LINE",
"455 1648 LINE"
);
}
);
width = 1024;
}
);
},
{
glyphname = dieresis_macron;
layers = (
{
layerId = "363404A5-CC2E-4291-9CCC-B4D2C06AB158";
paths = (
{
closed = 1;
nodes = (
"336 1220 OFFCURVE",
"399 1158 OFFCURVE",
"452 1158 QCURVE SMOOTH",
"509 1158 OFFCURVE",
"568 1217 OFFCURVE",
"568 1271 QCURVE SMOOTH",
"568 1322 OFFCURVE",
"505 1385 OFFCURVE",
"452 1385 QCURVE SMOOTH",
"396 1385 OFFCURVE",
"336 1326 OFFCURVE",
"336 1271 QCURVE SMOOTH"
);
},
{
closed = 1;
nodes = (
"796 1220 OFFCURVE",
"859 1158 OFFCURVE",
"912 1158 QCURVE SMOOTH",
"969 1158 OFFCURVE",
"1028 1217 OFFCURVE",
"1028 1271 QCURVE SMOOTH",
"1028 1322 OFFCURVE",
"965 1385 OFFCURVE",
"912 1385 QCURVE SMOOTH",
"856 1385 OFFCURVE",
"796 1326 OFFCURVE",
"796 1271 QCURVE SMOOTH"
);
},
{
closed = 1;
nodes = (
"425 1501 LINE",
"1017 1501 LINE",
"1046 1648 LINE",
"455 1648 LINE"
);
}
);
width = 1024;
}
);
},
{
glyphname = dotaccent_macron;
layers = (
{
layerId = "363404A5-CC2E-4291-9CCC-B4D2C06AB158";
paths = (
{
closed = 1;
nodes = (
"563 1236 OFFCURVE",
"629 1171 OFFCURVE",
"684 1171 QCURVE SMOOTH",
"743 1171 OFFCURVE",
"805 1232 OFFCURVE",
"805 1289 QCURVE SMOOTH",
"805 1342 OFFCURVE",
"739 1407 OFFCURVE",
"684 1407 QCURVE SMOOTH",
"625 1407 OFFCURVE",
"563 1346 OFFCURVE",
"563 1289 QCURVE SMOOTH"
);
},
{
closed = 1;
nodes = (
"425 1501 LINE",
"1017 1501 LINE",
"1046 1648 LINE",
"455 1648 LINE"
);
}
);
width = 1024;
}
);
},
{
glyphname = ring_acute;
layers = (
{
layerId = "363404A5-CC2E-4291-9CCC-B4D2C06AB158";
paths = (
{
closed = 1;
nodes = (
"751 1788 LINE SMOOTH",
"796 1817 OFFCURVE",
"870 1854 OFFCURVE",
"898 1854 QCURVE SMOOTH",
"946 1854 OFFCURVE",
"989 1805 OFFCURVE",
"989 1772 QCURVE SMOOTH",
"989 1736 OFFCURVE",
"931 1696 OFFCURVE",
"863 1671 QCURVE SMOOTH",
"603 1577 LINE",
"551 1660 LINE"
);
},
{
closed = 1;
nodes = (
"490 1422 OFFCURVE",
"612 1539 OFFCURVE",
"707 1539 QCURVE SMOOTH",
"802 1539 OFFCURVE",
"924 1422 OFFCURVE",
"924 1331 QCURVE SMOOTH",
"924 1240 OFFCURVE",
"802 1123 OFFCURVE",
"707 1123 QCURVE SMOOTH",
"612 1123 OFFCURVE",
"490 1240 OFFCURVE",
"490 1331 QCURVE SMOOTH"
);
},
{
closed = 1;
nodes = (
"604 1285 OFFCURVE",
"660 1228 OFFCURVE",
"707 1228 QCURVE SMOOTH",
"757 1228 OFFCURVE",
"810 1281 OFFCURVE",
"810 1331 QCURVE SMOOTH",
"810 1377 OFFCURVE",
"754 1434 OFFCURVE",
"707 1434 QCURVE SMOOTH",
"657 1434 OFFCURVE",
"604 1381 OFFCURVE",
"604 1331 QCURVE SMOOTH"
);
}
);
width = 1024;
}
);
},
{
glyphname = trademark;
layers = (
{
layerId = "363404A5-CC2E-4291-9CCC-B4D2C06AB158";
paths = (
{
closed = 1;
nodes = (
"161 1500 LINE",
"969 1500 LINE",
"915 1195 LINE",
"814 1195 LINE",
"813 1385 LINE",
"644 1385 LINE",
"611 1365 LINE",
"559 1077 LINE",
"524 822 LINE",
"647 786 LINE",
"631 700 LINE",
"216 700 LINE",
"232 786 LINE",
"368 822 LINE",
"420 1090 LINE",
"469 1365 LINE",
"454 1385 LINE",
"277 1385 LINE",
"208 1195 LINE",
"107 1195 LINE"
);
},
{
closed = 1;
nodes = (
"878 785 LINE",
"1002 820 LINE",
"1045 1056 LINE",
"1096 1358 LINE",
"984 1392 LINE",
"1003 1500 LINE",
"1315 1500 LINE",
"1431 866 LINE",
"1767 1500 LINE",
"2082 1500 LINE",
"2063 1392 LINE",
"1949 1358 LINE",
"1894 1054 LINE",
"1855 818 LINE",
"1957 783 LINE",
"1941 700 LINE",
"1584 700 LINE",
"1600 783 LINE",
"1704 818 LINE",
"1747 1054 LINE",
"1794 1335 LINE",
"1446 692 LINE",
"1324 692 LINE",
"1198 1350 LINE",
"1144 1056 LINE",
"1105 820 LINE",
"1217 785 LINE",
"1202 702 LINE",
"863 702 LINE"
);
}
);
width = 2017;
}
);
unicode = 2122;
},
{
glyphname = brevebelow;
layers = (
{
layerId = "363404A5-CC2E-4291-9CCC-B4D2C06AB158";
paths = (
{
closed = 1;
nodes = (
"751 -130 LINE",
"709 -228 OFFCURVE",
"479 -397 OFFCURVE",
"349 -397 QCURVE SMOOTH",
"219 -397 OFFCURVE",
"45 -243 OFFCURVE",
"42 -133 QCURVE",
"126 -76 LINE",
"145 -138 OFFCURVE",
"269 -241 OFFCURVE",
"365 -241 QCURVE SMOOTH",
"467 -241 OFFCURVE",
"635 -130 OFFCURVE",
"674 -77 QCURVE"
);
}
);
width = 1024;
}
);
userData = {
public.markColor = "1,0,0,1";
};
},
{
glyphname = breveinverted;
layers = (
{
layerId = "363404A5-CC2E-4291-9CCC-B4D2C06AB158";
paths = (
{
closed = 1;
nodes = (
"305 1243 LINE",
"356 1337 OFFCURVE",
"601 1483 OFFCURVE",
"731 1471 QCURVE SMOOTH",
"860 1458 OFFCURVE",
"1019 1289 OFFCURVE",
"1011 1179 QCURVE",
"922 1130 LINE",
"909 1194 OFFCURVE",
"796 1308 OFFCURVE",
"700 1317 QCURVE SMOOTH",
"598 1327 OFFCURVE",
"421 1232 OFFCURVE",
"377 1183 QCURVE"
);
}
);
width = 1024;
}
);
},
{
glyphname = commaaccent;
layers = (
{
layerId = "363404A5-CC2E-4291-9CCC-B4D2C06AB158";
paths = (
{
closed = 1;
nodes = (
"251 -588 OFFCURVE",
"365 -470 OFFCURVE",
"385 -412 QCURVE",
"317 -412 OFFCURVE",
"241 -340 OFFCURVE",
"241 -284 QCURVE SMOOTH",
"241 -229 OFFCURVE",
"326 -148 OFFCURVE",
"386 -148 QCURVE SMOOTH",
"442 -148 OFFCURVE",
"528 -247 OFFCURVE",
"528 -327 QCURVE SMOOTH",
"528 -426 OFFCURVE",
"357 -622 OFFCURVE",
"259 -681 QCURVE",
"208 -619 LINE"
);
}
);
width = 1024;
}
);
userData = {
public.markColor = "1,0,0,1";
};
},
{
glyphname = commaturnedabove;
layers = (
{
layerId = "363404A5-CC2E-4291-9CCC-B4D2C06AB158";
paths = (
{
closed = 1;
nodes = (
"808 1570 OFFCURVE",
"686 1448 OFFCURVE",
"662 1390 QCURVE",
"730 1390 OFFCURVE",
"788 1330 OFFCURVE",
"784 1274 QCURVE SMOOTH",
"780 1219 OFFCURVE",
"695 1142 OFFCURVE",
"635 1142 QCURVE SMOOTH",
"579 1143 OFFCURVE",
"489 1229 OFFCURVE",
"495 1309 QCURVE SMOOTH",
"502 1408 OFFCURVE",
"698 1612 OFFCURVE",
"800 1671 QCURVE",
"853 1601 LINE"
);
}
);
width = 1024;
}
);
},
{
glyphname = dblgrave;
layers = (
{
layerId = "363404A5-CC2E-4291-9CCC-B4D2C06AB158";
paths = (
{
closed = 1;
nodes = (
"335 1593 OFFCURVE",
"404 1617 OFFCURVE",
"437 1603 QCURVE SMOOTH",
"470 1589 OFFCURVE",
"497 1510 OFFCURVE",
"511 1461 QCURVE SMOOTH",
"593 1182 LINE",
"491 1141 LINE",
"354 1415 LINE SMOOTH",
"331 1460 OFFCURVE",
"306 1527 OFFCURVE",
"321 1560 QCURVE SMOOTH"
);
},
{
closed = 1;
nodes = (
"608 1582 OFFCURVE",
"677 1606 OFFCURVE",
"710 1592 QCURVE SMOOTH",
"743 1577 OFFCURVE",
"775 1499 OFFCURVE",
"789 1449 QCURVE SMOOTH",
"866 1170 LINE",
"764 1130 LINE",
"632 1403 LINE SMOOTH",
"610 1448 OFFCURVE",
"579 1516 OFFCURVE",
"593 1549 QCURVE SMOOTH"
);
}
);
width = 1024;
}
);
},
{
glyphname = diagonalbarO;
layers = (
{
layerId = "363404A5-CC2E-4291-9CCC-B4D2C06AB158";
paths = (
{
closed = 1;
nodes = (
"-26 86 LINE",
"-9 81 LINE",
"351 871 LINE",
"446 803 LINE",
"107 54 LINE",
"126 50 LINE",
"53 -109 LINE",
"-123 -122 LINE"
);
},
{
closed = 1;
nodes = (
"838 1618 LINE",
"748 1424 LINE",
"727 1428 LINE",
"446 803 LINE",
"351 871 LINE",
"613 1455 LINE",
"594 1460 LINE",
"667 1618 LINE"
);
}
);
width = 623;
}
);
},
{
glyphname = diagonalbarl;
layers = (
{
layerId = "363404A5-CC2E-4291-9CCC-B4D2C06AB158";
paths = (
{
closed = 1;
nodes = (
"643 1026 LINE",
"696 884 LINE",
"388 690 LINE",
"79 469 LINE",
"23 614 LINE",
"336 807 LINE"
);
}
);
width = 629;
}
);
},
{
glyphname = diagonalbaro;
layers = (
{
layerId = "363404A5-CC2E-4291-9CCC-B4D2C06AB158";
paths = (
{
closed = 1;
nodes = (
"-26 86 LINE",
"-9 81 LINE",
"225 583 LINE",
"319 515 LINE",
"107 54 LINE",
"126 50 LINE",
"41 -125 LINE",
"-123 -122 LINE"
);
},
{
closed = 1;
nodes = (
"635 1145 LINE",
"544 951 LINE",
"524 955 LINE",
"319 515 LINE",
"225 583 LINE",
"409 982 LINE",
"390 987 LINE",
"464 1145 LINE"
);
}
);
width = 512;
}
);
},
{
glyphname = dieresisbelow;
layers = (
{
layerId = "363404A5-CC2E-4291-9CCC-B4D2C06AB158";
paths = (
{
closed = 1;
nodes = (
"22 -236 OFFCURVE",
"82 -177 OFFCURVE",
"138 -177 QCURVE SMOOTH",
"191 -177 OFFCURVE",
"254 -240 OFFCURVE",
"254 -291 QCURVE SMOOTH",
"254 -345 OFFCURVE",
"195 -404 OFFCURVE",
"138 -404 QCURVE SMOOTH",
"85 -404 OFFCURVE",
"22 -342 OFFCURVE",
"22 -291 QCURVE SMOOTH"
);
},
{
closed = 1;
nodes = (
"482 -236 OFFCURVE",
"542 -177 OFFCURVE",
"598 -177 QCURVE SMOOTH",
"651 -177 OFFCURVE",
"714 -240 OFFCURVE",
"714 -291 QCURVE SMOOTH",
"714 -345 OFFCURVE",
"655 -404 OFFCURVE",
"598 -404 QCURVE SMOOTH",
"545 -404 OFFCURVE",
"482 -342 OFFCURVE",
"482 -291 QCURVE SMOOTH"
);
}
);
width = 1024;
}
);
userData = {
public.markColor = "1,0,0,1";
};
},
{
glyphname = dotbelow;
layers = (
{
layerId = "363404A5-CC2E-4291-9CCC-B4D2C06AB158";
paths = (
{
closed = 1;
nodes = (
"282 -160 OFFCURVE",
"350 -99 OFFCURVE",
"403 -99 QCURVE SMOOTH",
"456 -99 OFFCURVE",
"524 -166 OFFCURVE",
"524 -217 QCURVE SMOOTH",
"524 -264 OFFCURVE",
"456 -325 OFFCURVE",
"403 -325 QCURVE SMOOTH",
"350 -325 OFFCURVE",
"282 -258 OFFCURVE",
"282 -207 QCURVE SMOOTH"
);
}
);
width = 1024;
}
);
userData = {
public.markColor = "1,0,0,1";
};
},
{
glyphname = engn;
layers = (
{
layerId = "363404A5-CC2E-4291-9CCC-B4D2C06AB158";
paths = (
{
closed = 1;
nodes = (
"116 56 LINE",
"219 527 LINE",
"271 822 LINE",
"129 818 LINE",
"131 915 LINE",
"350 1001 LINE",
"396 1001 LINE",
"429 736 LINE",
"396 588 LINE",
"291 87 LINE",
"322 4 LINE",
"158 -23 LINE"
);
},
{
closed = 1;
nodes = (
"413 819 OFFCURVE",
"714 1021 OFFCURVE",
"832 1021 QCURVE SMOOTH",
"941 1021 OFFCURVE",
"1074 878 OFFCURVE",
"1046 742 QCURVE SMOOTH",
"894 0 LINE",
"734 0 LINE",
"876 702 LINE SMOOTH",
"893 785 OFFCURVE",
"849 877 OFFCURVE",
"772 877 QCURVE SMOOTH",
"674 877 OFFCURVE",
"426 700 OFFCURVE",
"369 630 QCURVE",
"348 720 LINE"
);
}
);
width = 1173;
}
);
},
{
glyphname = engtail;
layers = (
{
layerId = "363404A5-CC2E-4291-9CCC-B4D2C06AB158";
paths = (
{
closed = 1;
nodes = (
"-59 -254 LINE",
"-25 -295 OFFCURVE",
"56 -325 OFFCURVE",
"97 -325 QCURVE SMOOTH",
"138 -325 OFFCURVE",
"207 -244 OFFCURVE",
"222 -165 QCURVE SMOOTH",
"254 0 LINE",
"414 0 LINE",
"376 -195 LINE SMOOTH",
"357 -295 OFFCURVE",
"215 -443 OFFCURVE",
"83 -443 QCURVE SMOOTH",
"11 -443 OFFCURVE",
"-118 -370 OFFCURVE",
"-137 -329 QCURVE"
);
}
);
width = 629;
}
);
},
{
glyphname = hookabove;
layers = (
{
layerId = "363404A5-CC2E-4291-9CCC-B4D2C06AB158";
paths = (
{
closed = 1;
nodes = (
"551 1003 LINE",
"691 1003 LINE",
"718 1102 LINE",
"733 1098 OFFCURVE",
"790 1089 OFFCURVE",
"828 1089 QCURVE SMOOTH",
"916 1089 OFFCURVE",
"1032 1225 OFFCURVE",
"1032 1317 QCURVE SMOOTH",
"1032 1395 OFFCURVE",
"912 1496 OFFCURVE",
"790 1496 QCURVE SMOOTH",
"728 1496 OFFCURVE",
"580 1467 OFFCURVE",
"533 1448 QCURVE",
"564 1333 LINE",
"611 1353 OFFCURVE",
"696 1372 OFFCURVE",
"753 1372 QCURVE SMOOTH",
"810 1372 OFFCURVE",
"870 1333 OFFCURVE",
"870 1297 QCURVE SMOOTH",
"870 1259 OFFCURVE",
"808 1206 OFFCURVE",
"756 1206 QCURVE SMOOTH",
"735 1206 OFFCURVE",
"676 1213 OFFCURVE",
"656 1222 QCURVE",
"585 1153 LINE"
);
}
);
width = 1024;
}
);
},
{
glyphname = horizontalbarH;
layers = (
{
layerId = "363404A5-CC2E-4291-9CCC-B4D2C06AB158";
paths = (
{
closed = 1;
nodes = (
"368 1045 LINE",
"371 1062 LINE",
"348 1062 LINE",
"368 1164 LINE",
"391 1164 LINE",
"395 1182 LINE",
"1496 1182 LINE",
"1459 1045 LINE"
);
},
{
closed = 1;
nodes = (
"130 1182 LINE",
"352 1182 LINE",
"348 1164 LINE",
"368 1164 LINE",
"348 1062 LINE",
"328 1062 LINE",
"325 1046 LINE",
"112 1046 LINE"
);
}
);
width = 1366;
}
);
},
{
glyphname = horizontalbarlc;
layers = (
{
layerId = "363404A5-CC2E-4291-9CCC-B4D2C06AB158";
paths = (
{
closed = 1;
nodes = (
"49 656 LINE",
"84 782 LINE",
"375 782 LINE",
"650 782 LINE",
"626 656 LINE",
"311 656 LINE"
);
}
);
width = 636;
}
);
},
{
glyphname = horn;
layers = (
{
layerId = "363404A5-CC2E-4291-9CCC-B4D2C06AB158";
paths = (
{
closed = 1;
nodes = (
"135 999 OFFCURVE",
"211 988 OFFCURVE",
"251 988 QCURVE SMOOTH",
"299 988 OFFCURVE",
"363 1037 OFFCURVE",
"374 1079 QCURVE SMOOTH",
"385 1121 OFFCURVE",
"392 1210 OFFCURVE",
"396 1279 QCURVE",
"537 1279 LINE",
"545 1244 OFFCURVE",
"557 1169 OFFCURVE",
"557 1129 QCURVE SMOOTH",
"557 989 OFFCURVE",
"403 853 OFFCURVE",
"267 853 QCURVE SMOOTH",
"227 853 OFFCURVE",
"124 871 OFFCURVE",
"74 891 QCURVE",
"97 1009 LINE"
);
}
);
width = 1024;
}
);
},
{
glyphname = hornU;
layers = (
{
layerId = "363404A5-CC2E-4291-9CCC-B4D2C06AB158";
paths = (
{
closed = 1;
nodes = (
"175 1500 LINE",
"716 1500 LINE",
"702 1386 LINE",
"527 1362 LINE",
"409 794 LINE SMOOTH",
"390 702 OFFCURVE",
"354 454 OFFCURVE",
"354 387 QCURVE SMOOTH",
"354 268 OFFCURVE",
"502 104 OFFCURVE",
"643 104 QCURVE SMOOTH",
"797 104 OFFCURVE",
"1007 277 OFFCURVE",
"1050 494 QCURVE SMOOTH",
"1109 794 LINE",
"1207 1362 LINE",
"1015 1386 LINE",
"1029 1500 LINE",
"1371 1500 LINE",
"1233 794 LINE",
"1178 493 LINE SMOOTH",
"1126 209 OFFCURVE",
"838 -22 OFFCURVE",
"611 -22 QCURVE SMOOTH",
"375 -22 OFFCURVE",
"176 202 OFFCURVE",
"179 364 QCURVE SMOOTH",
"180 444 OFFCURVE",
"213 615 OFFCURVE",
"247 794 QCURVE SMOOTH",
"354 1362 LINE",
"161 1386 LINE"
);
}
);
width = 1471;
}
);
},
{
glyphname = macronbelow;
layers = (
{
layerId = "363404A5-CC2E-4291-9CCC-B4D2C06AB158";
paths = (
{
closed = 1;
nodes = (
"105 -172 LINE",
"697 -172 LINE",
"676 -319 LINE",
"84 -319 LINE"
);
}
);
width = 1024;
}
);
userData = {
public.markColor = "1,0,0,1";
};
},
{
glyphname = f_f;
layers = (
{
layerId = "363404A5-CC2E-4291-9CCC-B4D2C06AB158";
paths = (
{
closed = 1;
nodes = (
"-295 -305 LINE",
"-161 -303 LINE SMOOTH",
"-43 -301 OFFCURVE",
"62 -155 OFFCURVE",
"116 147 QCURVE SMOOTH",
"251 905 LINE",
"263 942 LINE",
"318 1203 LINE SMOOTH",
"355 1379 OFFCURVE",
"512 1516 OFFCURVE",
"622 1516 QCURVE SMOOTH",
"707 1516 OFFCURVE",
"805 1445 OFFCURVE",
"805 1395 QCURVE SMOOTH",
"805 1354 OFFCURVE",
"751 1303 OFFCURVE",
"724 1303 QCURVE SMOOTH",
"708 1303 OFFCURVE",
"702 1312 OFFCURVE",
"702 1330 QCURVE SMOOTH",
"702 1357 OFFCURVE",
"659 1386 OFFCURVE",
"625 1386 QCURVE SMOOTH",
"564 1386 OFFCURVE",
"470 1297 OFFCURVE",
"455 1197 QCURVE SMOOTH",
"417 938 LINE",
"416 913 LINE",
"285 214 LINE SMOOTH",
"205 -210 OFFCURVE",
"26 -447 OFFCURVE",
"-120 -447 QCURVE",
"-305 -405 LINE SMOOTH"
);
},
{
closed = 1;
nodes = (
"281 -217 LINE",
"415 -215 LINE SMOOTH",
"533 -213 OFFCURVE",
"638 -67 OFFCURVE",
"692 235 QCURVE SMOOTH",
"811 905 LINE",
"823 942 LINE",
"890 1269 LINE SMOOTH",
"926 1445 OFFCURVE",
"1084 1582 OFFCURVE",
"1194 1582 QCURVE SMOOTH",
"1279 1582 OFFCURVE",
"1377 1511 OFFCURVE",
"1377 1461 QCURVE SMOOTH",
"1377 1420 OFFCURVE",
"1323 1369 OFFCURVE",
"1296 1369 QCURVE SMOOTH",
"1280 1369 OFFCURVE",
"1274 1378 OFFCURVE",
"1274 1396 QCURVE SMOOTH",
"1274 1423 OFFCURVE",
"1231 1452 OFFCURVE",
"1197 1452 QCURVE SMOOTH",
"1136 1452 OFFCURVE",
"1042 1363 OFFCURVE",
"1027 1263 QCURVE SMOOTH",
"977 938 LINE",
"976 913 LINE",
"861 302 LINE SMOOTH",
"781 -122 OFFCURVE",
"602 -359 OFFCURVE",
"456 -359 QCURVE",
"271 -317 LINE SMOOTH"
);
},
{
closed = 1;
nodes = (
"66 938 LINE",
"275 980 LINE",
"1225 980 LINE",
"1215 858 LINE",
"362 865 LINE",
"275 847 LINE",
"72 864 LINE"
);
}
);
width = 1135;
}
);
unicode = FB00;
},
{
glyphname = fi;
layers = (
{
layerId = "363404A5-CC2E-4291-9CCC-B4D2C06AB158";
paths = (
{
closed = 1;
nodes = (
"-295 -305 LINE",
"-161 -303 LINE SMOOTH",
"-43 -301 OFFCURVE",
"62 -155 OFFCURVE",
"124 194 QCURVE SMOOTH",
"251 905 LINE",
"263 942 LINE",
"316 1190 LINE SMOOTH",
"370 1443 OFFCURVE",
"561 1582 OFFCURVE",
"671 1582 QCURVE SMOOTH",
"756 1582 OFFCURVE",
"864 1508 OFFCURVE",
"864 1458 QCURVE SMOOTH",
"864 1417 OFFCURVE",
"810 1366 OFFCURVE",
"783 1366 QCURVE SMOOTH",
"767 1366 OFFCURVE",
"761 1375 OFFCURVE",
"761 1393 QCURVE SMOOTH",
"761 1420 OFFCURVE",
"708 1452 OFFCURVE",
"674 1452 QCURVE SMOOTH",
"613 1452 OFFCURVE",
"486 1362 OFFCURVE",
"457 1184 QCURVE SMOOTH",
"417 938 LINE",
"416 913 LINE",
"294 260 LINE SMOOTH",
"206 -210 OFFCURVE",
"26 -447 OFFCURVE",
"-120 -447 QCURVE",
"-303 -405 LINE"
);
},
{
closed = 1;
nodes = (
"66 938 LINE",
"275 980 LINE",
"865 980 LINE",
"855 858 LINE",
"362 865 LINE",
"275 847 LINE",
"72 864 LINE"
);
},
{
closed = 1;
nodes = (
"690 68 LINE",
"784 527 LINE",
"845 840 LINE",
"774 858 LINE",
"776 965 LINE",
"929 1014 LINE",
"999 1014 LINE",
"1048 898 LINE",
"997 755 LINE",
"873 140 LINE",
"1064 164 LINE",
"1064 76 LINE",
"731 -21 LINE"
);
}
);
width = 1198;
}
);
unicode = FB01;
},
{
glyphname = fl;
layers = (
{
layerId = "363404A5-CC2E-4291-9CCC-B4D2C06AB158";
paths = (
{
closed = 1;
nodes = (
"-295 -305 LINE",
"-161 -303 LINE SMOOTH",
"-43 -301 OFFCURVE",
"62 -155 OFFCURVE",
"124 194 QCURVE SMOOTH",
"251 905 LINE",
"263 942 LINE",
"316 1190 LINE SMOOTH",
"370 1443 OFFCURVE",
"561 1582 OFFCURVE",
"671 1582 QCURVE SMOOTH",
"756 1582 OFFCURVE",
"864 1508 OFFCURVE",
"864 1458 QCURVE SMOOTH",
"864 1417 OFFCURVE",
"810 1366 OFFCURVE",
"783 1366 QCURVE SMOOTH",
"767 1366 OFFCURVE",
"761 1375 OFFCURVE",
"761 1393 QCURVE SMOOTH",
"761 1420 OFFCURVE",
"708 1452 OFFCURVE",
"674 1452 QCURVE SMOOTH",
"613 1452 OFFCURVE",
"486 1362 OFFCURVE",
"457 1184 QCURVE SMOOTH",
"417 938 LINE",
"416 913 LINE",
"294 260 LINE SMOOTH",
"206 -210 OFFCURVE",
"26 -447 OFFCURVE",
"-120 -447 QCURVE",
"-303 -405 LINE"
);
},
{
closed = 1;
nodes = (
"66 938 LINE",
"275 980 LINE",
"865 980 LINE",
"855 858 LINE",
"362 865 LINE",
"275 847 LINE",
"72 864 LINE"
);
},
{
closed = 1;
nodes = (
"664 86 LINE",
"773 606 LINE",
"921 1408 LINE",
"797 1500 LINE",
"825 1572 LINE",
"1026 1606 LINE",
"1113 1536 LINE",
"931 588 LINE",
"848 134 LINE",
"1044 154 LINE",
"1044 66 LINE",
"711 -14 LINE"
);
}
);
width = 1142;
}
);
unicode = FB02;
},
{
glyphname = f_f_i;
layers = (
{
layerId = "363404A5-CC2E-4291-9CCC-B4D2C06AB158";
paths = (
{
closed = 1;
nodes = (
"-295 -305 LINE",
"-161 -303 LINE SMOOTH",
"-43 -301 OFFCURVE",
"62 -155 OFFCURVE",
"116 147 QCURVE SMOOTH",
"251 905 LINE",
"263 942 LINE",
"318 1203 LINE SMOOTH",
"355 1379 OFFCURVE",
"512 1516 OFFCURVE",
"622 1516 QCURVE SMOOTH",
"707 1516 OFFCURVE",
"805 1445 OFFCURVE",
"805 1395 QCURVE SMOOTH",
"805 1354 OFFCURVE",
"751 1303 OFFCURVE",
"724 1303 QCURVE SMOOTH",
"708 1303 OFFCURVE",
"702 1312 OFFCURVE",
"702 1330 QCURVE SMOOTH",
"702 1357 OFFCURVE",
"659 1386 OFFCURVE",
"625 1386 QCURVE SMOOTH",
"564 1386 OFFCURVE",
"470 1297 OFFCURVE",
"455 1197 QCURVE SMOOTH",
"417 938 LINE",
"416 913 LINE",
"285 214 LINE SMOOTH",
"205 -210 OFFCURVE",
"26 -447 OFFCURVE",
"-120 -447 QCURVE",
"-305 -405 LINE SMOOTH"
);
},
{
closed = 1;
nodes = (
"281 -217 LINE",
"415 -215 LINE SMOOTH",
"533 -213 OFFCURVE",
"638 -67 OFFCURVE",
"692 235 QCURVE SMOOTH",
"811 905 LINE",
"823 942 LINE",
"890 1269 LINE SMOOTH",
"926 1445 OFFCURVE",
"1084 1582 OFFCURVE",
"1194 1582 QCURVE SMOOTH",
"1279 1582 OFFCURVE",
"1377 1511 OFFCURVE",
"1377 1461 QCURVE SMOOTH",
"1377 1420 OFFCURVE",
"1323 1369 OFFCURVE",
"1296 1369 QCURVE SMOOTH",
"1280 1369 OFFCURVE",
"1274 1378 OFFCURVE",
"1274 1396 QCURVE SMOOTH",
"1274 1423 OFFCURVE",
"1231 1452 OFFCURVE",
"1197 1452 QCURVE SMOOTH",
"1136 1452 OFFCURVE",
"1042 1363 OFFCURVE",
"1027 1263 QCURVE SMOOTH",
"977 938 LINE",
"976 913 LINE",
"861 302 LINE SMOOTH",
"781 -122 OFFCURVE",
"602 -359 OFFCURVE",
"456 -359 QCURVE",
"271 -317 LINE SMOOTH"
);
},
{
closed = 1;
nodes = (
"66 938 LINE",
"275 980 LINE",
"1335 980 LINE",
"1325 858 LINE",
"362 865 LINE",
"275 847 LINE",
"72 864 LINE"
);
},
{
closed = 1;
nodes = (
"1200 68 LINE",
"1294 527 LINE",
"1355 850 LINE",
"1184 858 LINE",
"1186 955 LINE",
"1439 1014 LINE",
"1509 1014 LINE",
"1558 898 LINE",
"1507 755 LINE",
"1383 140 LINE",
"1604 164 LINE",
"1604 76 LINE",
"1241 -21 LINE"
);
}
);
width = 1707;
}
);
unicode = FB03;
},
{
glyphname = f_f_l;
layers = (
{
layerId = "363404A5-CC2E-4291-9CCC-B4D2C06AB158";
paths = (
{
closed = 1;
nodes = (
"-295 -305 LINE",
"-161 -303 LINE SMOOTH",
"-43 -301 OFFCURVE",
"62 -155 OFFCURVE",
"116 147 QCURVE SMOOTH",
"251 905 LINE",
"263 942 LINE",
"318 1203 LINE SMOOTH",
"355 1379 OFFCURVE",
"512 1516 OFFCURVE",
"622 1516 QCURVE SMOOTH",
"707 1516 OFFCURVE",
"805 1445 OFFCURVE",
"805 1395 QCURVE SMOOTH",
"805 1354 OFFCURVE",
"751 1303 OFFCURVE",
"724 1303 QCURVE SMOOTH",
"708 1303 OFFCURVE",
"702 1312 OFFCURVE",
"702 1330 QCURVE SMOOTH",
"702 1357 OFFCURVE",
"659 1386 OFFCURVE",
"625 1386 QCURVE SMOOTH",
"564 1386 OFFCURVE",
"470 1297 OFFCURVE",
"455 1197 QCURVE SMOOTH",
"417 938 LINE",
"416 913 LINE",
"285 214 LINE SMOOTH",
"205 -210 OFFCURVE",
"26 -447 OFFCURVE",
"-120 -447 QCURVE",
"-305 -405 LINE SMOOTH"
);
},
{
closed = 1;
nodes = (
"281 -217 LINE",
"415 -215 LINE SMOOTH",
"533 -213 OFFCURVE",
"638 -67 OFFCURVE",
"692 235 QCURVE SMOOTH",
"811 905 LINE",
"823 942 LINE",
"890 1269 LINE SMOOTH",
"926 1445 OFFCURVE",
"1084 1582 OFFCURVE",
"1194 1582 QCURVE SMOOTH",
"1279 1582 OFFCURVE",
"1377 1511 OFFCURVE",
"1377 1461 QCURVE SMOOTH",
"1377 1420 OFFCURVE",
"1323 1369 OFFCURVE",
"1296 1369 QCURVE SMOOTH",
"1280 1369 OFFCURVE",
"1274 1378 OFFCURVE",
"1274 1396 QCURVE SMOOTH",
"1274 1423 OFFCURVE",
"1231 1452 OFFCURVE",
"1197 1452 QCURVE SMOOTH",
"1136 1452 OFFCURVE",
"1042 1363 OFFCURVE",
"1027 1263 QCURVE SMOOTH",
"977 938 LINE",
"976 913 LINE",
"861 302 LINE SMOOTH",
"781 -122 OFFCURVE",
"602 -359 OFFCURVE",
"456 -359 QCURVE",
"271 -317 LINE SMOOTH"
);
},
{
closed = 1;
nodes = (
"66 938 LINE",
"275 980 LINE",
"1225 980 LINE",
"1215 858 LINE",
"362 865 LINE",
"275 847 LINE",
"72 864 LINE"
);
},
{
closed = 1;
nodes = (
"1164 86 LINE",
"1273 606 LINE",
"1421 1408 LINE",
"1297 1500 LINE",
"1325 1572 LINE",
"1526 1606 LINE",
"1613 1536 LINE",
"1431 588 LINE",
"1348 134 LINE",
"1544 154 LINE",
"1544 66 LINE",
"1211 -14 LINE"
);
}
);
width = 1667;
}
);
unicode = FB04;
},
{
glyphname = caron.alt;
layers = (
{
layerId = "363404A5-CC2E-4291-9CCC-B4D2C06AB158";
paths = (
{
closed = 1;
nodes = (
"676 1404 LINE SMOOTH",
"707 1474 OFFCURVE",
"768 1551 OFFCURVE",
"808 1551 QCURVE SMOOTH",
"848 1551 OFFCURVE",
"891 1506 OFFCURVE",
"891 1471 QCURVE SMOOTH",
"891 1436 OFFCURVE",
"848 1358 OFFCURVE",
"816 1314 QCURVE SMOOTH",
"612 1030 LINE",
"531 1075 LINE"
);
}
);
width = 1024;
}
);
},
{
glyphname = caron.alt.uc;
layers = (
{
layerId = "363404A5-CC2E-4291-9CCC-B4D2C06AB158";
paths = (
{
closed = 1;
nodes = (
"727 1837 LINE SMOOTH",
"758 1907 OFFCURVE",
"819 1984 OFFCURVE",
"859 1984 QCURVE SMOOTH",
"899 1984 OFFCURVE",
"942 1939 OFFCURVE",
"942 1904 QCURVE SMOOTH",
"942 1869 OFFCURVE",
"899 1791 OFFCURVE",
"867 1747 QCURVE SMOOTH",
"663 1463 LINE",
"582 1508 LINE"
);
}
);
width = 1024;
}
);
},
{
glyphname = acute.uc;
layers = (
{
layerId = "363404A5-CC2E-4291-9CCC-B4D2C06AB158";
paths = (
{
closed = 1;
nodes = (
"679 1612 LINE",
"1003 1784 LINE SMOOTH",
"1058 1813 OFFCURVE",
"1127 1880 OFFCURVE",
"1127 1920 QCURVE SMOOTH",
"1127 1960 OFFCURVE",
"1072 2022 OFFCURVE",
"1032 2022 QCURVE SMOOTH",
"992 2022 OFFCURVE",
"924 1964 OFFCURVE",
"880 1928 QCURVE SMOOTH",
"609 1711 LINE"
);
}
);
width = 1024;
}
);
},
{
glyphname = grave.uc;
layers = (
{
layerId = "363404A5-CC2E-4291-9CCC-B4D2C06AB158";
paths = (
{
closed = 1;
nodes = (
"883 1592 LINE",
"966 1673 LINE",
"778 1919 LINE SMOOTH",
"752 1953 OFFCURVE",
"686 2007 OFFCURVE",
"648 2007 QCURVE SMOOTH",
"608 2007 OFFCURVE",
"546 1943 OFFCURVE",
"546 1907 QCURVE SMOOTH",
"546 1873 OFFCURVE",
"593 1822 OFFCURVE",
"625 1796 QCURVE SMOOTH"
);
}
);
width = 1024;
}
);
},
{
glyphname = hungarumlaut.uc;
layers = (
{
layerId = "363404A5-CC2E-4291-9CCC-B4D2C06AB158";
paths = (
{
closed = 1;
nodes = (
"812 1881 OFFCURVE",
"745 1820 OFFCURVE",
"700 1789 QCURVE SMOOTH",
"418 1593 LINE",
"352 1677 LINE",
"590 1911 LINE SMOOTH",
"630 1951 OFFCURVE",
"692 1995 OFFCURVE",
"728 1995 QCURVE SMOOTH",
"764 1995 OFFCURVE",
"812 1953 OFFCURVE",
"812 1917 QCURVE SMOOTH"
);
},
{
closed = 1;
nodes = (
"1202 1881 OFFCURVE",
"1135 1820 OFFCURVE",
"1090 1789 QCURVE SMOOTH",
"808 1593 LINE",
"742 1677 LINE",
"980 1911 LINE SMOOTH",
"1020 1951 OFFCURVE",
"1082 1995 OFFCURVE",
"1118 1995 QCURVE SMOOTH",
"1154 1995 OFFCURVE",
"1202 1953 OFFCURVE",
"1202 1917 QCURVE SMOOTH"
);
}
);
width = 1024;
}
);
},
{
glyphname = circumflex.uc;
layers = (
{
layerId = "363404A5-CC2E-4291-9CCC-B4D2C06AB158";
paths = (
{
closed = 1;
nodes = (
"941 2009 OFFCURVE",
"977 1977 OFFCURVE",
"1002 1936 QCURVE SMOOTH",
"1170 1688 LINE",
"1076 1610 LINE",
"882 1835 LINE",
"576 1620 LINE",
"500 1717 LINE",
"782 1936 LINE SMOOTH",
"837 1979 OFFCURVE",
"873 2009 OFFCURVE",
"907 2009 QCURVE SMOOTH"
);
}
);
width = 1024;
}
);
},
{
glyphname = circumflex_acute.uc;
layers = (
{
layerId = "363404A5-CC2E-4291-9CCC-B4D2C06AB158";
paths = (
{
closed = 1;
nodes = (
"1044 1614 LINE",
"957 1550 LINE",
"771 1738 LINE",
"496 1550 LINE",
"429 1614 LINE",
"666 1819 LINE SMOOTH",
"704 1852 OFFCURVE",
"765 1894 OFFCURVE",
"802 1894 QCURVE",
"831 1894 OFFCURVE",
"872 1860 OFFCURVE",
"895 1827 QCURVE SMOOTH"
);
},
{
closed = 1;
nodes = (
"612 1934 LINE",
"578 2020 LINE",
"834 2153 LINE SMOOTH",
"900 2187 OFFCURVE",
"995 2223 OFFCURVE",
"1026 2223 QCURVE SMOOTH",
"1060 2223 OFFCURVE",
"1106 2181 OFFCURVE",
"1106 2147 QCURVE",
"1106 2105 OFFCURVE",
"1043 2059 OFFCURVE",
"963 2036 QCURVE SMOOTH"
);
}
);
width = 1024;
}
);
},
{
glyphname = circumflex_grave.uc;
layers = (
{
layerId = "363404A5-CC2E-4291-9CCC-B4D2C06AB158";
paths = (
{
closed = 1;
nodes = (
"496 1550 LINE",
"771 1738 LINE",
"957 1550 LINE",
"1044 1614 LINE",
"895 1827 LINE SMOOTH",
"872 1860 OFFCURVE",
"831 1894 OFFCURVE",
"802 1894 QCURVE",
"765 1894 OFFCURVE",
"704 1852 OFFCURVE",
"666 1819 QCURVE SMOOTH",
"429 1614 LINE"
);
},
{
closed = 1;
nodes = (
"1057 1900 LINE",
"1096 1986 LINE",
"860 2117 LINE SMOOTH",
"796 2152 OFFCURVE",
"716 2183 OFFCURVE",
"684 2183 QCURVE SMOOTH",
"650 2183 OFFCURVE",
"598 2137 OFFCURVE",
"598 2105 QCURVE",
"598 2063 OFFCURVE",
"661 2017 OFFCURVE",
"741 1993 QCURVE SMOOTH"
);
}
);
width = 1024;
}
);
},
{
glyphname = circumflex_hookabove.uc;
layers = (
{
layerId = "363404A5-CC2E-4291-9CCC-B4D2C06AB158";
paths = (
{
closed = 1;
nodes = (
"836 1937 OFFCURVE",
"874 1906 OFFCURVE",
"897 1864 QCURVE SMOOTH",
"1049 1621 LINE",
"961 1548 LINE",
"771 1763 LINE",
"491 1548 LINE",
"423 1621 LINE",
"677 1864 LINE SMOOTH",
"728 1913 OFFCURVE",
"768 1937 OFFCURVE",
"802 1937 QCURVE SMOOTH"
);
},
{
closed = 1;
nodes = (
"1093 1555 LINE",
"1183 1650 LINE",
"1198 1643 OFFCURVE",
"1246 1636 OFFCURVE",
"1267 1636 QCURVE SMOOTH",
"1319 1636 OFFCURVE",
"1381 1691 OFFCURVE",
"1381 1747 QCURVE SMOOTH",
"1381 1785 OFFCURVE",
"1321 1822 OFFCURVE",
"1264 1822 QCURVE SMOOTH",
"1207 1822 OFFCURVE",
"1094 1798 OFFCURVE",
"1055 1781 QCURVE",
"1025 1890 LINE",
"1081 1915 OFFCURVE",
"1239 1946 OFFCURVE",
"1301 1946 QCURVE SMOOTH",
"1423 1946 OFFCURVE",
"1543 1847 OFFCURVE",
"1543 1767 QCURVE SMOOTH",
"1543 1657 OFFCURVE",
"1411 1519 OFFCURVE",
"1316 1519 QCURVE SMOOTH",
"1286 1519 OFFCURVE",
"1230 1528 OFFCURVE",
"1215 1532 QCURVE",
"1192 1414 LINE",
"1066 1414 LINE"
);
}
);
width = 1024;
}
);
},
{
glyphname = circumflex_tilde.uc;
layers = (
{
layerId = "363404A5-CC2E-4291-9CCC-B4D2C06AB158";
paths = (
{
closed = 1;
nodes = (
"837 1954 OFFCURVE",
"927 1909 OFFCURVE",
"977 1909 QCURVE SMOOTH",
"1035 1909 OFFCURVE",
"1180 1991 OFFCURVE",
"1217 2044 QCURVE",
"1168 2123 LINE",
"1154 2109 OFFCURVE",
"1064 2056 OFFCURVE",
"1022 2056 QCURVE SMOOTH",
"979 2056 OFFCURVE",
"899 2108 OFFCURVE",
"874 2125 QCURVE SMOOTH",
"840 2151 OFFCURVE",
"770 2179 OFFCURVE",
"727 2179 QCURVE SMOOTH",
"656 2179 OFFCURVE",
"496 2074 OFFCURVE",
"462 2031 QCURVE",
"516 1952 LINE",
"528 1960 OFFCURVE",
"632 2032 OFFCURVE",
"682 2032 QCURVE SMOOTH",
"712 2032 OFFCURVE",
"782 1997 OFFCURVE",
"811 1974 QCURVE SMOOTH"
);
},
{
closed = 1;
nodes = (
"496 1550 LINE",
"771 1738 LINE",
"957 1550 LINE",
"1044 1614 LINE",
"895 1827 LINE SMOOTH",
"872 1860 OFFCURVE",
"831 1894 OFFCURVE",
"802 1894 QCURVE",
"765 1894 OFFCURVE",
"704 1852 OFFCURVE",
"666 1819 QCURVE SMOOTH",
"429 1614 LINE"
);
}
);
width = 1024;
}
);
},
{
glyphname = caron.uc;
layers = (
{
layerId = "363404A5-CC2E-4291-9CCC-B4D2C06AB158";
paths = (
{
closed = 1;
nodes = (
"708 1616 OFFCURVE",
"673 1649 OFFCURVE",
"648 1689 QCURVE SMOOTH",
"496 1932 LINE",
"577 2005 LINE",
"767 1790 LINE",
"1047 2005 LINE",
"1122 1932 LINE",
"868 1689 LINE SMOOTH",
"816 1640 OFFCURVE",
"776 1616 OFFCURVE",
"742 1616 QCURVE SMOOTH"
);
}
);
width = 1024;
}
);
},
{
glyphname = breve.uc;
layers = (
{
layerId = "363404A5-CC2E-4291-9CCC-B4D2C06AB158";
paths = (
{
closed = 1;
nodes = (
"1151 1907 LINE",
"1104 1796 OFFCURVE",
"899 1640 OFFCURVE",
"749 1640 QCURVE SMOOTH",
"619 1640 OFFCURVE",
"435 1793 OFFCURVE",
"413 1900 QCURVE",
"526 1961 LINE",
"545 1899 OFFCURVE",
"669 1796 OFFCURVE",
"765 1796 QCURVE SMOOTH",
"857 1796 OFFCURVE",
"1007 1891 OFFCURVE",
"1060 1967 QCURVE"
);
}
);
width = 1024;
}
);
},
{
glyphname = breve_acute.uc;
layers = (
{
layerId = "363404A5-CC2E-4291-9CCC-B4D2C06AB158";
paths = (
{
closed = 1;
nodes = (
"1104 1842 LINE",
"1059 1743 OFFCURVE",
"865 1602 OFFCURVE",
"730 1602 QCURVE SMOOTH",
"605 1602 OFFCURVE",
"427 1742 OFFCURVE",
"424 1841 QCURVE",
"505 1888 LINE",
"523 1833 OFFCURVE",
"642 1742 OFFCURVE",
"734 1742 QCURVE SMOOTH",
"832 1742 OFFCURVE",
"993 1842 OFFCURVE",
"1030 1889 QCURVE"
);
},
{
closed = 1;
nodes = (
"612 1934 LINE",
"578 2020 LINE",
"834 2153 LINE SMOOTH",
"900 2187 OFFCURVE",
"995 2223 OFFCURVE",
"1026 2223 QCURVE SMOOTH",
"1060 2223 OFFCURVE",
"1106 2181 OFFCURVE",
"1106 2147 QCURVE",
"1106 2105 OFFCURVE",
"1043 2059 OFFCURVE",
"963 2036 QCURVE SMOOTH"
);
}
);
width = 1024;
}
);
},
{
glyphname = breve_grave.uc;
layers = (
{
layerId = "363404A5-CC2E-4291-9CCC-B4D2C06AB158";
paths = (
{
closed = 1;
nodes = (
"434 1755 OFFCURVE",
"608 1601 OFFCURVE",
"738 1601 QCURVE SMOOTH",
"868 1601 OFFCURVE",
"1098 1770 OFFCURVE",
"1140 1868 QCURVE",
"1063 1921 LINE",
"1024 1868 OFFCURVE",
"856 1757 OFFCURVE",
"754 1757 QCURVE SMOOTH",
"658 1757 OFFCURVE",
"534 1860 OFFCURVE",
"515 1922 QCURVE",
"431 1865 LINE"
);
},
{
closed = 1;
nodes = (
"1005 1940 LINE",
"1044 2026 LINE",
"808 2157 LINE SMOOTH",
"744 2192 OFFCURVE",
"664 2223 OFFCURVE",
"632 2223 QCURVE SMOOTH",
"598 2223 OFFCURVE",
"546 2177 OFFCURVE",
"546 2145 QCURVE",
"546 2103 OFFCURVE",
"609 2057 OFFCURVE",
"689 2033 QCURVE SMOOTH"
);
}
);
width = 1024;
}
);
},
{
glyphname = breve_hookabove.uc;
layers = (
{
layerId = "363404A5-CC2E-4291-9CCC-B4D2C06AB158";
paths = (
{
closed = 1;
nodes = (
"1143 1868 LINE",
"1101 1770 OFFCURVE",
"871 1601 OFFCURVE",
"741 1601 QCURVE SMOOTH",
"611 1601 OFFCURVE",
"437 1755 OFFCURVE",
"434 1865 QCURVE",
"518 1922 LINE",
"537 1860 OFFCURVE",
"661 1757 OFFCURVE",
"757 1757 QCURVE SMOOTH",
"859 1757 OFFCURVE",
"1027 1868 OFFCURVE",
"1066 1921 QCURVE"
);
},
{
closed = 1;
nodes = (
"684 1974 LINE",
"759 2050 LINE",
"774 2044 OFFCURVE",
"832 2037 OFFCURVE",
"853 2037 QCURVE SMOOTH",
"901 2037 OFFCURVE",
"961 2071 OFFCURVE",
"961 2114 QCURVE",
"961 2147 OFFCURVE",
"893 2175 OFFCURVE",
"850 2175 QCURVE SMOOTH",
"795 2175 OFFCURVE",
"686 2155 OFFCURVE",
"650 2141 QCURVE",
"620 2254 LINE",
"673 2275 OFFCURVE",
"825 2301 OFFCURVE",
"884 2301 QCURVE SMOOTH",
"995 2301 OFFCURVE",
"1116 2213 OFFCURVE",
"1116 2126 QCURVE SMOOTH",
"1116 2026 OFFCURVE",
"989 1925 OFFCURVE",
"898 1925 QCURVE SMOOTH",
"869 1925 OFFCURVE",
"816 1933 OFFCURVE",
"801 1936 QCURVE",
"780 1856 LINE",
"661 1856 LINE"
);
}
);
width = 1024;
}
);
},
{
glyphname = breve_tilde.uc;
layers = (
{
layerId = "363404A5-CC2E-4291-9CCC-B4D2C06AB158";
paths = (
{
closed = 1;
nodes = (
"1139 1868 LINE",
"1090 1757 OFFCURVE",
"875 1601 OFFCURVE",
"737 1601 QCURVE SMOOTH",
"607 1601 OFFCURVE",
"433 1755 OFFCURVE",
"430 1865 QCURVE",
"514 1922 LINE",
"533 1860 OFFCURVE",
"657 1757 OFFCURVE",
"753 1757 QCURVE SMOOTH",
"869 1757 OFFCURVE",
"1023 1868 OFFCURVE",
"1062 1921 QCURVE"
);
},
{
closed = 1;
nodes = (
"481 2102 OFFCURVE",
"641 2207 OFFCURVE",
"712 2207 QCURVE SMOOTH",
"755 2207 OFFCURVE",
"825 2179 OFFCURVE",
"859 2153 QCURVE SMOOTH",
"884 2136 OFFCURVE",
"964 2084 OFFCURVE",
"1007 2084 QCURVE SMOOTH",
"1049 2084 OFFCURVE",
"1139 2137 OFFCURVE",
"1153 2151 QCURVE",
"1202 2072 LINE",
"1165 2019 OFFCURVE",
"1020 1937 OFFCURVE",
"962 1937 QCURVE SMOOTH",
"912 1937 OFFCURVE",
"822 1982 OFFCURVE",
"796 2002 QCURVE SMOOTH",
"767 2025 OFFCURVE",
"697 2060 OFFCURVE",
"667 2060 QCURVE SMOOTH",
"617 2060 OFFCURVE",
"513 1988 OFFCURVE",
"501 1980 QCURVE",
"447 2059 LINE"
);
}
);
width = 1024;
}
);
},
{
glyphname = tilde.uc;
layers = (
{
layerId = "363404A5-CC2E-4291-9CCC-B4D2C06AB158";
paths = (
{
closed = 1;
nodes = (
"422 1816 OFFCURVE",
"584 1921 OFFCURVE",
"655 1921 QCURVE SMOOTH",
"698 1921 OFFCURVE",
"767 1898 OFFCURVE",
"801 1872 QCURVE SMOOTH",
"825 1855 OFFCURVE",
"905 1803 OFFCURVE",
"948 1803 QCURVE SMOOTH",
"990 1803 OFFCURVE",
"1075 1857 OFFCURVE",
"1107 1894 QCURVE",
"1180 1809 LINE",
"1125 1733 OFFCURVE",
"979 1651 OFFCURVE",
"921 1651 QCURVE SMOOTH",
"871 1651 OFFCURVE",
"781 1691 OFFCURVE",
"756 1711 QCURVE SMOOTH",
"727 1734 OFFCURVE",
"657 1769 OFFCURVE",
"627 1769 QCURVE SMOOTH",
"577 1769 OFFCURVE",
"474 1700 OFFCURVE",
"449 1672 QCURVE",
"374 1753 LINE"
);
}
);
width = 1024;
}
);
},
{
glyphname = tilde_macron.uc;
layers = (
{
layerId = "363404A5-CC2E-4291-9CCC-B4D2C06AB158";
paths = (
{
closed = 1;
nodes = (
"541 2068 LINE",
"1133 2068 LINE",
"1104 1930 LINE",
"512 1930 LINE"
);
},
{
closed = 1;
nodes = (
"423 1781 OFFCURVE",
"585 1877 OFFCURVE",
"656 1877 QCURVE SMOOTH",
"699 1877 OFFCURVE",
"768 1857 OFFCURVE",
"802 1831 QCURVE SMOOTH",
"826 1814 OFFCURVE",
"906 1768 OFFCURVE",
"949 1768 QCURVE SMOOTH",
"991 1768 OFFCURVE",
"1076 1822 OFFCURVE",
"1108 1859 QCURVE",
"1177 1779 LINE",
"1122 1703 OFFCURVE",
"976 1621 OFFCURVE",
"918 1621 QCURVE SMOOTH",
"868 1621 OFFCURVE",
"778 1655 OFFCURVE",
"753 1675 QCURVE SMOOTH",
"724 1698 OFFCURVE",
"654 1730 OFFCURVE",
"624 1730 QCURVE SMOOTH",
"574 1730 OFFCURVE",
"471 1670 OFFCURVE",
"446 1642 QCURVE",
"375 1718 LINE"
);
}
);
width = 1024;
}
);
},
{
glyphname = macron.uc;
layers = (
{
layerId = "363404A5-CC2E-4291-9CCC-B4D2C06AB158";
paths = (
{
closed = 1;
nodes = (
"485 1819 LINE",
"1077 1819 LINE",
"1048 1664 LINE",
"456 1664 LINE"
);
}
);
width = 1024;
}
);
},
{
glyphname = dieresis.uc;
layers = (
{
layerId = "363404A5-CC2E-4291-9CCC-B4D2C06AB158";
paths = (
{
closed = 1;
nodes = (
"419 1799 OFFCURVE",
"486 1865 OFFCURVE",
"537 1865 QCURVE SMOOTH",
"589 1865 OFFCURVE",
"656 1799 OFFCURVE",
"656 1748 QCURVE SMOOTH",
"656 1698 OFFCURVE",
"589 1633 OFFCURVE",
"537 1633 QCURVE SMOOTH",
"486 1633 OFFCURVE",
"419 1698 OFFCURVE",
"419 1748 QCURVE SMOOTH"
);
},
{
closed = 1;
nodes = (
"879 1799 OFFCURVE",
"946 1865 OFFCURVE",
"997 1865 QCURVE SMOOTH",
"1049 1865 OFFCURVE",
"1116 1799 OFFCURVE",
"1116 1748 QCURVE SMOOTH",
"1116 1698 OFFCURVE",
"1049 1633 OFFCURVE",
"997 1633 QCURVE SMOOTH",
"946 1633 OFFCURVE",
"879 1698 OFFCURVE",
"879 1748 QCURVE SMOOTH"
);
}
);
width = 1024;
}
);
},
